G04 Layer_Physical_Order=2*
G04 Layer_Color=32768*
%FSLAX45Y45*%
%MOMM*%
%TF.FileFunction,Copper,L2,Inr,Plane*%
%TF.Part,Single*%
G01*
G75*
%TA.AperFunction,ComponentPad*%
%ADD82C,3.80000*%
%TA.AperFunction,NonConductor*%
%ADD92C,1.01600*%
%TA.AperFunction,ComponentPad*%
%ADD93C,1.28900*%
%ADD94C,1.41600*%
%ADD95C,1.89860*%
%TA.AperFunction,ViaPad*%
%ADD96C,0.65000*%
%ADD97C,0.90000*%
%ADD98C,1.11120*%
%ADD99C,0.70000*%
%ADD100C,0.80000*%
D82*
X8800001Y6500001D02*
D03*
X500000Y6500000D02*
D03*
X8800001Y500001D02*
D03*
X500000Y500000D02*
D03*
D92*
X2Y500001D02*
G03*
X500001Y1I500000J0D01*
G01*
X8800001D02*
G03*
X9300001Y500001I-0J500000D01*
G01*
Y6500001D02*
G03*
X8800001Y7000001I-500000J0D01*
G01*
X500001Y7000001D02*
G03*
X1Y6500001I0J-500000D01*
G01*
X500001Y1D02*
X8800001D01*
X9300001Y500001D02*
Y6500001D01*
X8800001Y7000001D02*
X8800001Y7000001D01*
X500001Y7000001D02*
X8800001D01*
X1Y500002D02*
Y6500001D01*
D93*
X7750001Y2319999D02*
D03*
X7749998Y2070000D02*
D03*
X7950000D02*
D03*
D94*
X4119000Y613000D02*
D03*
X4373000Y867000D02*
D03*
Y613000D02*
D03*
X4627000Y867000D02*
D03*
Y613000D02*
D03*
X4881000Y867000D02*
D03*
Y613000D02*
D03*
X2700000Y5330000D02*
D03*
D95*
X568602Y5804203D02*
D03*
X583600Y2724201D02*
D03*
X573602Y4789203D02*
D03*
X583601Y3769202D02*
D03*
X8885000Y4160000D02*
D03*
D96*
X7019987Y2179996D02*
D03*
X4550001Y2750001D02*
D03*
X4885001Y4850001D02*
D03*
X2235001Y2895001D02*
D03*
X5390001Y3805001D02*
D03*
X5265001Y1530001D02*
D03*
X3315001Y3665001D02*
D03*
X3230001Y4100001D02*
D03*
X3205001Y3920001D02*
D03*
X7210001Y380001D02*
D03*
X5525001Y5600001D02*
D03*
X4900001Y1790001D02*
D03*
X5195001Y6375001D02*
D03*
X5735001Y1000001D02*
D03*
X4515001Y2425001D02*
D03*
X3075001Y2500001D02*
D03*
X2980001Y2505001D02*
D03*
X1365001Y5350001D02*
D03*
X1015001Y3470001D02*
D03*
X2050001Y2425001D02*
D03*
X1045001Y3140001D02*
D03*
X1865001Y2530001D02*
D03*
X3245001Y1015001D02*
D03*
X3355001Y1205001D02*
D03*
X3675001Y2560001D02*
D03*
X3610001Y2620001D02*
D03*
X6649987Y2019996D02*
D03*
X6845001Y2020001D02*
D03*
X6670001Y2155001D02*
D03*
X4695001Y1460001D02*
D03*
Y1370001D02*
D03*
X1755001Y765001D02*
D03*
X5000001Y3235001D02*
D03*
X5868602Y2376398D02*
D03*
X5448602Y2314203D02*
D03*
X6073602Y2779203D02*
D03*
X5973603Y3409204D02*
D03*
X5888602Y3305564D02*
D03*
X5705001Y1165001D02*
D03*
X5750001Y1285001D02*
D03*
X5575001Y1115001D02*
D03*
X5490001Y1150001D02*
D03*
X5870001Y1385001D02*
D03*
X4680001Y1790001D02*
D03*
X7315001Y835001D02*
D03*
X5640002Y904851D02*
D03*
X5359989Y479999D02*
D03*
X5715001Y900001D02*
D03*
X5255001Y410001D02*
D03*
X5920001Y1305001D02*
D03*
X6220001Y735001D02*
D03*
X5345001Y765001D02*
D03*
X4585001Y1820001D02*
D03*
X1960001Y2430001D02*
D03*
X3120001Y1745001D02*
D03*
X2755001Y2050001D02*
D03*
X1725001Y1065001D02*
D03*
X4745001Y6280001D02*
D03*
X3125001Y5210001D02*
D03*
X5188604Y2799204D02*
D03*
D97*
X7750001Y3205002D02*
D03*
D98*
X7530001Y3795001D02*
D03*
X7955001Y4690001D02*
D03*
X7265001Y4850001D02*
D03*
D99*
X3832008Y1115375D02*
D03*
X3495001Y910001D02*
D03*
D100*
X4000001Y3565001D02*
D03*
X3995001Y3172500D02*
D03*
%TF.MD5,bc02e307d8f90d1878c37c274e72dfe0*%
M02*
