G04 Layer_Color=16711935*
%FSLAX45Y45*%
%MOMM*%
%TF.FileFunction,Other,Mechanical_13*%
%TF.Part,Single*%
G01*
G75*
%TA.AperFunction,NonConductor*%
%ADD110C,0.10000*%
D110*
X5995000Y925000D02*
G03*
X5995000Y925000I-50000J0D01*
G01*
X2980000Y2670000D02*
G03*
X2980000Y2670000I-50000J0D01*
G01*
X3556102Y5776703D02*
G03*
X3556102Y5776703I-50000J0D01*
G01*
X7605000Y4205000D02*
G03*
X7605000Y4205000I-50000J0D01*
G01*
X5775001Y2690001D02*
G03*
X5775001Y2690001I-50000J0D01*
G01*
X4633605Y3349204D02*
G03*
X4633605Y3349204I-50000J0D01*
G01*
X1703601Y3324201D02*
G03*
X1703601Y3324201I-50000J0D01*
G01*
X6040000Y830000D02*
Y1530000D01*
X5340000Y830000D02*
Y1530000D01*
Y830000D02*
X6040000D01*
X5340000Y1530000D02*
X6040000D01*
X2835000Y2255000D02*
X3285000D01*
X2835000Y2765000D02*
X3285000D01*
Y2255000D02*
Y2765000D01*
X2835000Y2255000D02*
Y2765000D01*
X1050000Y6140000D02*
X1350000D01*
X1050000Y6000000D02*
X1350000D01*
Y6140000D01*
X1050000Y6000000D02*
Y6140000D01*
X3411102Y5376703D02*
X3806102D01*
X3411102Y5871703D02*
X3806102D01*
Y5376703D02*
Y5871703D01*
X3411102Y5376703D02*
Y5871703D01*
X2598604Y1698204D02*
X2773604D01*
X2598604Y2003204D02*
X2773604D01*
Y1698204D02*
Y2003204D01*
X2598604Y1698204D02*
Y2003204D01*
X7460000Y4000000D02*
X7660000D01*
X7460000Y4300000D02*
X7660000D01*
Y4000000D02*
Y4300000D01*
X7460000Y4000000D02*
Y4300000D01*
X5320002Y3095001D02*
X5820001D01*
X5320002Y2595001D02*
X5820001D01*
X5320002D02*
Y3095001D01*
X5820001Y2595001D02*
Y3095001D01*
X4468605Y3444204D02*
X4678605D01*
X4468605Y3134204D02*
X4678605D01*
Y3444204D01*
X4468605Y3134204D02*
Y3444204D01*
X1558601Y3119202D02*
X1758601D01*
X1558601Y3419201D02*
X1758601D01*
Y3119202D02*
Y3419201D01*
X1558601Y3119202D02*
Y3419201D01*
%TF.MD5,a13982b3a408ea1423957ba126d8e2a0*%
M02*
