G04 Layer_Physical_Order=1*
G04 Layer_Color=255*
%FSLAX45Y45*%
%MOMM*%
%TF.FileFunction,Copper,L1,Top,Signal*%
%TF.Part,Single*%
G01*
G75*
%TA.AperFunction,NonConductor*%
%ADD10C,0.01000*%
%TA.AperFunction,Conductor*%
%ADD11C,0.70000*%
%TA.AperFunction,SMDPad,CuDef*%
G04:AMPARAMS|DCode=12|XSize=0.6mm|YSize=0.75mm|CornerRadius=0.15mm|HoleSize=0mm|Usage=FLASHONLY|Rotation=0.000|XOffset=0mm|YOffset=0mm|HoleType=Round|Shape=RoundedRectangle|*
%AMROUNDEDRECTD12*
21,1,0.60000,0.45000,0,0,0.0*
21,1,0.30000,0.75000,0,0,0.0*
1,1,0.30000,0.15000,-0.22500*
1,1,0.30000,-0.15000,-0.22500*
1,1,0.30000,-0.15000,0.22500*
1,1,0.30000,0.15000,0.22500*
%
%ADD12ROUNDEDRECTD12*%
%ADD13O,1.75000X0.30000*%
%ADD14O,0.30000X1.75000*%
%ADD15O,2.00000X0.35000*%
%ADD16R,0.60000X1.40000*%
%ADD17R,2.00660X1.49860*%
%ADD18R,2.00660X3.81000*%
%ADD19O,1.75000X0.60000*%
%ADD20R,1.10000X0.60000*%
%ADD21R,1.00000X1.05000*%
%ADD22R,1.05000X2.20000*%
%ADD23R,0.70000X0.50000*%
%ADD24R,1.01600X1.01600*%
%ADD25O,0.50800X1.77800*%
G04:AMPARAMS|DCode=26|XSize=1.778mm|YSize=0.508mm|CornerRadius=0.0254mm|HoleSize=0mm|Usage=FLASHONLY|Rotation=90.000|XOffset=0mm|YOffset=0mm|HoleType=Round|Shape=RoundedRectangle|*
%AMROUNDEDRECTD26*
21,1,1.77800,0.45720,0,0,90.0*
21,1,1.72720,0.50800,0,0,90.0*
1,1,0.05080,0.22860,0.86360*
1,1,0.05080,0.22860,-0.86360*
1,1,0.05080,-0.22860,-0.86360*
1,1,0.05080,-0.22860,0.86360*
%
%ADD26ROUNDEDRECTD26*%
%ADD27R,1.01600X0.30480*%
%ADD28R,0.65000X0.70000*%
%ADD29R,0.45000X0.70000*%
%ADD30R,1.14300X0.38100*%
%ADD31R,2.00000X1.20000*%
G04:AMPARAMS|DCode=32|XSize=2mm|YSize=1.2mm|CornerRadius=0mm|HoleSize=0mm|Usage=FLASHONLY|Rotation=180.000|XOffset=0mm|YOffset=0mm|HoleType=Round|Shape=Octagon|*
%AMOCTAGOND32*
4,1,8,-1.00000,0.30000,-1.00000,-0.30000,-0.70000,-0.60000,0.70000,-0.60000,1.00000,-0.30000,1.00000,0.30000,0.70000,0.60000,-0.70000,0.60000,-1.00000,0.30000,0.0*
%
%ADD32OCTAGOND32*%

%ADD33R,1.80000X1.60000*%
%ADD34R,1.50000X1.30000*%
%ADD35R,1.30000X1.50000*%
%ADD36R,1.00000X1.10000*%
%ADD37R,1.10000X1.00000*%
%ADD38R,0.70000X0.90000*%
%ADD39R,1.75000X0.60000*%
%ADD40R,1.00000X0.60000*%
%ADD41R,0.90000X2.10000*%
%ADD42O,0.60000X0.30000*%
%ADD43R,0.55000X0.30000*%
%ADD44R,0.30000X0.55000*%
%ADD45R,3.30000X3.30000*%
%ADD46O,0.25000X0.65000*%
%ADD47O,0.65000X0.25000*%
%ADD48O,0.30000X0.60000*%
%ADD49R,0.40000X0.80000*%
%ADD50R,0.90000X1.30000*%
%ADD51R,1.01600X1.01600*%
%ADD52R,0.38000X0.28000*%
G04:AMPARAMS|DCode=53|XSize=0.5mm|YSize=0.25mm|CornerRadius=0.0625mm|HoleSize=0mm|Usage=FLASHONLY|Rotation=90.000|XOffset=0mm|YOffset=0mm|HoleType=Round|Shape=RoundedRectangle|*
%AMROUNDEDRECTD53*
21,1,0.50000,0.12500,0,0,90.0*
21,1,0.37500,0.25000,0,0,90.0*
1,1,0.12500,0.06250,0.18750*
1,1,0.12500,0.06250,-0.18750*
1,1,0.12500,-0.06250,-0.18750*
1,1,0.12500,-0.06250,0.18750*
%
%ADD53ROUNDEDRECTD53*%
G04:AMPARAMS|DCode=54|XSize=0.5mm|YSize=0.25mm|CornerRadius=0.0625mm|HoleSize=0mm|Usage=FLASHONLY|Rotation=0.000|XOffset=0mm|YOffset=0mm|HoleType=Round|Shape=RoundedRectangle|*
%AMROUNDEDRECTD54*
21,1,0.50000,0.12500,0,0,0.0*
21,1,0.37500,0.25000,0,0,0.0*
1,1,0.12500,0.18750,-0.06250*
1,1,0.12500,-0.18750,-0.06250*
1,1,0.12500,-0.18750,0.06250*
1,1,0.12500,0.18750,0.06250*
%
%ADD54ROUNDEDRECTD54*%
%ADD55R,0.90000X0.70000*%
G04:AMPARAMS|DCode=56|XSize=0.7mm|YSize=0.9mm|CornerRadius=0mm|HoleSize=0mm|Usage=FLASHONLY|Rotation=135.000|XOffset=0mm|YOffset=0mm|HoleType=Round|Shape=Rectangle|*
%AMROTATEDRECTD56*
4,1,4,0.56569,0.07071,-0.07071,-0.56569,-0.56569,-0.07071,0.07071,0.56569,0.56569,0.07071,0.0*
%
%ADD56ROTATEDRECTD56*%

G04:AMPARAMS|DCode=57|XSize=0.7mm|YSize=0.9mm|CornerRadius=0mm|HoleSize=0mm|Usage=FLASHONLY|Rotation=225.000|XOffset=0mm|YOffset=0mm|HoleType=Round|Shape=Rectangle|*
%AMROTATEDRECTD57*
4,1,4,-0.07071,0.56569,0.56569,-0.07071,0.07071,-0.56569,-0.56569,0.07071,-0.07071,0.56569,0.0*
%
%ADD57ROTATEDRECTD57*%

%TA.AperFunction,Conductor*%
%ADD58C,0.22000*%
%ADD59C,0.50000*%
%ADD60C,0.20000*%
%ADD61C,0.25000*%
%ADD62C,0.40000*%
%ADD63C,0.30000*%
%ADD64C,0.90000*%
%ADD65C,0.60000*%
%ADD66C,0.32000*%
%ADD67C,0.35000*%
%ADD68C,1.00000*%
%ADD69R,4.07500X3.65000*%
%ADD70R,0.90000X1.10000*%
%ADD71R,0.41467X0.91104*%
%ADD72R,3.13228X0.52443*%
%ADD73R,2.43254X0.29763*%
%ADD74R,0.88604X2.45798*%
%ADD75R,1.40000X1.20000*%
%ADD76R,0.70000X0.90000*%
%ADD77R,2.71478X0.18355*%
%ADD78R,1.80001X1.24267*%
%ADD79R,1.35000X1.60000*%
%TA.AperFunction,ComponentPad*%
%ADD80C,1.39700*%
%ADD81C,3.81000*%
%ADD82C,3.80000*%
%ADD83R,1.52400X2.03200*%
%ADD84O,1.52400X2.03200*%
%ADD85R,1.52400X3.04800*%
%ADD86O,1.52400X3.04800*%
%ADD87C,2.54000*%
%TA.AperFunction,ViaPad*%
%ADD88C,0.66000*%
%ADD89C,0.70000*%
%ADD90C,0.60000*%
%ADD91C,1.27000*%
G36*
X9405001Y-9999D02*
X1D01*
Y7000001D01*
X9405001D01*
Y-9999D01*
D02*
G37*
%LPC*%
G36*
X3441503Y2093005D02*
X3373804D01*
Y2030304D01*
X3441503D01*
Y2093005D01*
D02*
G37*
G36*
X5435902Y2131503D02*
X5373202D01*
Y2063803D01*
X5435902D01*
Y2131503D01*
D02*
G37*
G36*
X3348404Y2181104D02*
X3280703D01*
Y2118405D01*
X3348404D01*
Y2181104D01*
D02*
G37*
G36*
X3261103Y2170704D02*
X3121103D01*
Y2040704D01*
X3132595D01*
X3137856Y2028004D01*
X3097837Y1987985D01*
X3086103Y1992845D01*
Y2025704D01*
X2906104D01*
Y1971194D01*
X2876103D01*
Y1990704D01*
X2830491D01*
Y2000001D01*
X2828551Y2009756D01*
X2823025Y2018025D01*
X2799251Y2041799D01*
X2800883Y2050001D01*
X2797390Y2067559D01*
X2787445Y2082444D01*
X2772559Y2092390D01*
X2755001Y2095883D01*
X2737443Y2092390D01*
X2722558Y2082444D01*
X2712612Y2067559D01*
X2709120Y2050001D01*
X2712612Y2032443D01*
X2722558Y2017558D01*
X2737443Y2007612D01*
X2753585Y2004401D01*
X2754939Y2003404D01*
X2755024Y2001150D01*
X2748581Y1990704D01*
X2736104D01*
Y1900704D01*
X2876103D01*
Y1920214D01*
X2906104D01*
Y1865704D01*
X3086103D01*
Y1920214D01*
X3091603D01*
X3101358Y1922155D01*
X3109627Y1927680D01*
X3189127Y2007180D01*
X3194653Y2015450D01*
X3196593Y2025204D01*
Y2026206D01*
X3209293Y2031467D01*
X3218114Y2022646D01*
Y1953205D01*
X3216898Y1952964D01*
X3206975Y1946333D01*
X3200344Y1936410D01*
X3198016Y1924704D01*
Y1879704D01*
X3200344Y1867999D01*
X3206975Y1858075D01*
X3215206Y1852576D01*
X3216128Y1845704D01*
X3215206Y1838833D01*
X3206975Y1833333D01*
X3200344Y1823410D01*
X3198016Y1811704D01*
Y1766704D01*
X3200344Y1754999D01*
X3206975Y1745075D01*
X3211996Y1741720D01*
Y1614203D01*
X3153602D01*
Y1555810D01*
X2903602D01*
Y1614203D01*
X2743602D01*
Y1437303D01*
X2743602Y1434203D01*
X2736119Y1424603D01*
X2733202D01*
Y1336905D01*
X2823604D01*
X2914002D01*
Y1424603D01*
X2911085D01*
X2903602Y1434203D01*
X2903602Y1437303D01*
Y1492596D01*
X3153602D01*
Y1434203D01*
X3313602D01*
Y1614203D01*
X3275211D01*
Y1741720D01*
X3280232Y1745075D01*
X3286863Y1754999D01*
X3289191Y1766704D01*
Y1811704D01*
X3286863Y1823410D01*
X3280232Y1833333D01*
X3272002Y1838833D01*
X3271080Y1845704D01*
X3272002Y1852576D01*
X3280232Y1858075D01*
X3286863Y1867999D01*
X3289191Y1879704D01*
Y1924704D01*
X3286863Y1936410D01*
X3280232Y1946333D01*
X3270309Y1952964D01*
X3269093Y1953205D01*
Y2026091D01*
X3269094Y2027673D01*
X3280703Y2030304D01*
X3281703Y2030304D01*
X3287577D01*
X3288115Y2030304D01*
X3348404D01*
Y2093005D01*
X3280703D01*
Y2043004D01*
X3280703Y2039935D01*
X3268003Y2038684D01*
X3267153Y2042959D01*
X3261627Y2051228D01*
X3261103Y2051752D01*
Y2170704D01*
D02*
G37*
G36*
X2383403Y2001104D02*
X2320704D01*
Y1933404D01*
X2383403D01*
Y2001104D01*
D02*
G37*
G36*
X2471503D02*
X2408803D01*
Y1933404D01*
X2471503D01*
Y2001104D01*
D02*
G37*
G36*
X1825102Y2148294D02*
X1809339Y2145159D01*
X1795976Y2136230D01*
X1787046Y2122866D01*
X1783911Y2107103D01*
Y1980103D01*
X1787046Y1964340D01*
X1795976Y1950976D01*
X1809339Y1942047D01*
X1825102Y1938912D01*
X1840866Y1942047D01*
X1854229Y1950976D01*
X1863158Y1964340D01*
X1866294Y1980103D01*
Y2107103D01*
X1863158Y2122866D01*
X1854229Y2136230D01*
X1840866Y2145159D01*
X1825102Y2148294D01*
D02*
G37*
G36*
X3441503Y2181104D02*
X3373804D01*
Y2118405D01*
X3441503D01*
Y2181104D01*
D02*
G37*
G36*
X8044400Y2307301D02*
X7962698D01*
Y2225599D01*
X7974865Y2227201D01*
X7998036Y2236799D01*
X8017933Y2252066D01*
X8033201Y2271963D01*
X8042798Y2295134D01*
X8044400Y2307301D01*
D02*
G37*
G36*
X7937298D02*
X7855600D01*
X7857202Y2295134D01*
X7866799Y2271963D01*
X7882067Y2252066D01*
X7901964Y2236799D01*
X7925135Y2227201D01*
X7937298Y2225600D01*
Y2307301D01*
D02*
G37*
G36*
X2757300Y2269801D02*
X2646286D01*
X2647089Y2265762D01*
X2656571Y2251571D01*
X2670761Y2242089D01*
X2687500Y2238760D01*
X2757300D01*
Y2269801D01*
D02*
G37*
G36*
X5945400Y2285400D02*
X5882697D01*
Y2217700D01*
X5945400D01*
Y2285400D01*
D02*
G37*
G36*
X5857297Y2192300D02*
X5794600D01*
Y2124600D01*
X5857297D01*
Y2192300D01*
D02*
G37*
G36*
X5945400D02*
X5882697D01*
Y2124600D01*
X5945400D01*
Y2192300D01*
D02*
G37*
G36*
X5307301Y2247302D02*
X5244601D01*
Y2179602D01*
X5307301D01*
Y2247302D01*
D02*
G37*
G36*
X2130897Y2030902D02*
X2091803D01*
Y1930834D01*
X2098923Y1932250D01*
X2115727Y1943478D01*
X2126955Y1960282D01*
X2130897Y1980103D01*
Y2030902D01*
D02*
G37*
G36*
X3464795Y1776504D02*
X3421304D01*
Y1725513D01*
X3423604D01*
X3439367Y1728648D01*
X3452730Y1737577D01*
X3461659Y1750941D01*
X3464795Y1766704D01*
Y1776504D01*
D02*
G37*
G36*
X2646503Y1838003D02*
X2566105D01*
X2485704D01*
Y1795304D01*
X2496104D01*
Y1781194D01*
X2461103D01*
Y1820704D01*
X2331104D01*
Y1680704D01*
X2461103D01*
Y1730214D01*
X2496104D01*
Y1710704D01*
X2636103D01*
Y1725214D01*
X2736104D01*
Y1710704D01*
X2876103D01*
Y1725214D01*
X2906104D01*
Y1675704D01*
X3086103D01*
Y1698256D01*
X3098803Y1705044D01*
X3102443Y1702612D01*
X3120001Y1699120D01*
X3137559Y1702612D01*
X3152445Y1712558D01*
X3162390Y1727443D01*
X3165883Y1745001D01*
X3162390Y1762559D01*
X3152445Y1777445D01*
X3137559Y1787390D01*
X3120001Y1790883D01*
X3102443Y1787390D01*
X3098803Y1784958D01*
X3086103Y1791738D01*
Y1835704D01*
X2906104D01*
Y1776194D01*
X2876103D01*
Y1800704D01*
X2736104D01*
Y1776194D01*
X2636103D01*
Y1795304D01*
X2646503D01*
Y1838003D01*
D02*
G37*
G36*
X4232300Y1867300D02*
X4164600D01*
Y1804600D01*
X4232300D01*
Y1867300D01*
D02*
G37*
G36*
X3395904Y1776504D02*
X3352412D01*
Y1766704D01*
X3355548Y1750941D01*
X3364477Y1737577D01*
X3377840Y1728648D01*
X3393604Y1725513D01*
X3395904D01*
Y1776504D01*
D02*
G37*
G36*
X1558602Y1749203D02*
X1378603D01*
Y1705810D01*
X1293602D01*
Y1739203D01*
X1153602D01*
Y1609203D01*
X1293602D01*
Y1642596D01*
X1378603D01*
Y1589203D01*
X1558602D01*
Y1643713D01*
X1878047D01*
X1926613Y1595148D01*
Y1579860D01*
X1922976Y1577430D01*
X1914046Y1564066D01*
X1910911Y1548303D01*
Y1421303D01*
X1914046Y1405540D01*
X1922976Y1392176D01*
X1936339Y1383247D01*
X1952102Y1380112D01*
X1967866Y1383247D01*
X1981229Y1392176D01*
X1990158Y1405540D01*
X1993294Y1421303D01*
Y1548303D01*
X1990158Y1564066D01*
X1981229Y1577430D01*
X1977592Y1579860D01*
Y1605706D01*
X1975652Y1615460D01*
X1970126Y1623730D01*
X1906629Y1687227D01*
X1898360Y1692752D01*
X1888605Y1694693D01*
X1558602D01*
Y1749203D01*
D02*
G37*
G36*
X5297300Y1792300D02*
X5234600D01*
Y1724600D01*
X5297300D01*
Y1792300D01*
D02*
G37*
G36*
X5385400D02*
X5322700D01*
Y1724600D01*
X5385400D01*
Y1792300D01*
D02*
G37*
G36*
X4325400Y1867300D02*
X4257700D01*
Y1804600D01*
X4325400D01*
Y1867300D01*
D02*
G37*
G36*
X2636103Y1990704D02*
X2496104D01*
Y1906104D01*
X2485704D01*
Y1863403D01*
X2566105D01*
X2646503D01*
Y1906104D01*
X2636103D01*
Y1990704D01*
D02*
G37*
G36*
X3711104Y1960704D02*
X3571104D01*
Y1930243D01*
X3453090D01*
X3451863Y1936410D01*
X3445232Y1946333D01*
X3435309Y1952964D01*
X3423604Y1955292D01*
X3393604D01*
X3381898Y1952964D01*
X3371975Y1946333D01*
X3365344Y1936410D01*
X3363016Y1924704D01*
Y1879704D01*
X3365344Y1867999D01*
X3371975Y1858075D01*
X3369700Y1844321D01*
X3364477Y1840831D01*
X3355548Y1827468D01*
X3352412Y1811704D01*
Y1801904D01*
X3464795D01*
Y1811704D01*
X3461659Y1827468D01*
X3452730Y1840831D01*
X3447507Y1844321D01*
X3445232Y1858076D01*
X3451863Y1867999D01*
X3453090Y1874166D01*
X3571104D01*
Y1830704D01*
X3564586Y1820704D01*
X3561104D01*
Y1690704D01*
X3701103D01*
Y1820704D01*
X3707621Y1830704D01*
X3711104D01*
Y1960704D01*
D02*
G37*
G36*
X2066403Y2030902D02*
X2027307D01*
Y1980103D01*
X2031250Y1960282D01*
X2042478Y1943478D01*
X2059281Y1932250D01*
X2066403Y1930834D01*
Y2030902D01*
D02*
G37*
G36*
X2471503Y1908004D02*
X2408803D01*
Y1840304D01*
X2471503D01*
Y1908004D01*
D02*
G37*
G36*
X5297300Y1885400D02*
X5234600D01*
Y1817700D01*
X5297300D01*
Y1885400D01*
D02*
G37*
G36*
X5385400D02*
X5322700D01*
Y1817700D01*
X5385400D01*
Y1885400D01*
D02*
G37*
G36*
X2383403Y1908004D02*
X2320704D01*
Y1840304D01*
X2383403D01*
Y1908004D01*
D02*
G37*
G36*
X2893715Y2269801D02*
X2782700D01*
Y2238760D01*
X2852500D01*
X2869239Y2242089D01*
X2883429Y2251571D01*
X2892911Y2265762D01*
X2893715Y2269801D01*
D02*
G37*
G36*
X4623605Y3179791D02*
X4611900Y3177463D01*
X4607875Y3174774D01*
X4598605Y3171884D01*
X4589336Y3174774D01*
X4585311Y3177463D01*
X4573605Y3179791D01*
X4561900Y3177463D01*
X4557875Y3174774D01*
X4548605Y3171884D01*
X4539336Y3174774D01*
X4535311Y3177463D01*
X4523605Y3179791D01*
X4511900Y3177463D01*
X4501977Y3170833D01*
X4495346Y3160909D01*
X4493018Y3149204D01*
Y3119204D01*
X4495346Y3107498D01*
X4498116Y3103353D01*
Y3094764D01*
X4463045Y3059694D01*
X4169204D01*
X4159450Y3057754D01*
X4151180Y3052228D01*
X4051977Y2953025D01*
X4046452Y2944756D01*
X4044512Y2935001D01*
Y2680560D01*
X3801942Y2437990D01*
X3468192D01*
X3463035Y2450690D01*
X3464393Y2452010D01*
X3687500D01*
X3697255Y2453951D01*
X3705524Y2459476D01*
X3768025Y2521977D01*
X3773551Y2530247D01*
X3775491Y2540001D01*
Y2655000D01*
X3805000D01*
Y2785000D01*
X3665000D01*
Y2655000D01*
X3724512D01*
Y2589761D01*
X3711812Y2585908D01*
X3707444Y2592444D01*
X3692559Y2602390D01*
X3675001Y2605883D01*
X3665654Y2604023D01*
X3654841Y2614763D01*
X3655883Y2620001D01*
X3652390Y2637559D01*
X3642445Y2652445D01*
X3627559Y2662390D01*
X3610001Y2665883D01*
X3609015Y2665687D01*
X3579853Y2694850D01*
X3569599Y2701701D01*
X3557503Y2704107D01*
X3463387D01*
X3461077Y2707193D01*
X3457761Y2716807D01*
X3463114Y2724819D01*
X3465637Y2737500D01*
X3463114Y2750181D01*
X3455931Y2760931D01*
X3445181Y2768114D01*
X3432500Y2770637D01*
X3267500D01*
X3254819Y2768114D01*
X3250965Y2765539D01*
X2869036D01*
X2865181Y2768114D01*
X2852500Y2770637D01*
X2687500D01*
X2674819Y2768114D01*
X2670964Y2765539D01*
X2550000D01*
Y2855000D01*
X2370000D01*
Y2803038D01*
X2335000D01*
Y2825000D01*
X2298039D01*
Y2860003D01*
X2295904Y2870733D01*
X2289826Y2879829D01*
X2279849Y2889806D01*
X2280883Y2895001D01*
X2277390Y2912559D01*
X2267445Y2927444D01*
X2252559Y2937390D01*
X2235001Y2940883D01*
X2217443Y2937390D01*
X2202558Y2927444D01*
X2192612Y2912559D01*
X2189120Y2895001D01*
X2192612Y2877443D01*
X2202558Y2862558D01*
X2217443Y2852612D01*
X2235001Y2849120D01*
X2241961Y2837555D01*
Y2825000D01*
X2205000D01*
Y2685000D01*
X2335000D01*
Y2746961D01*
X2370000D01*
Y2695000D01*
X2550000D01*
Y2709461D01*
X2645327D01*
X2652116Y2696761D01*
X2647089Y2689238D01*
X2646286Y2685200D01*
X2770000D01*
X2893714D01*
X2892911Y2689238D01*
X2887884Y2696761D01*
X2894673Y2709461D01*
X3241459D01*
X3245312Y2696761D01*
X3244069Y2695931D01*
X3236886Y2685181D01*
X3234363Y2672500D01*
X3236886Y2659819D01*
X3244069Y2649069D01*
X3246212Y2647637D01*
Y2632363D01*
X3244069Y2630931D01*
X3236886Y2620181D01*
X3234363Y2607500D01*
X3236886Y2594819D01*
X3244069Y2584069D01*
Y2578439D01*
X3236571Y2573429D01*
X3227089Y2559238D01*
X3226285Y2555199D01*
X3350001D01*
Y2529799D01*
X3226286D01*
X3227089Y2525761D01*
X3236571Y2511571D01*
X3244069Y2506561D01*
Y2500931D01*
X3236886Y2490181D01*
X3234363Y2477500D01*
X3236886Y2464819D01*
X3244069Y2454069D01*
X3246212Y2452637D01*
Y2437363D01*
X3244069Y2435931D01*
X3236886Y2425181D01*
X3234363Y2412500D01*
X3236886Y2399819D01*
X3244069Y2389069D01*
X3246212Y2387637D01*
Y2372363D01*
X3244069Y2370931D01*
X3236886Y2360181D01*
X3234363Y2347500D01*
X3236886Y2334819D01*
X3244069Y2324069D01*
X3246212Y2322637D01*
Y2307363D01*
X3244069Y2305931D01*
X3236886Y2295181D01*
X3234363Y2282500D01*
X3236886Y2269819D01*
X3244069Y2259069D01*
X3254819Y2251886D01*
X3267500Y2249364D01*
X3432500D01*
X3445181Y2251886D01*
X3452850Y2257010D01*
X4372500D01*
X4382255Y2258951D01*
X4390524Y2264476D01*
X4506799Y2380751D01*
X4515001Y2379120D01*
X4532559Y2382612D01*
X4547445Y2392558D01*
X4557390Y2407443D01*
X4560883Y2425001D01*
X4557390Y2442559D01*
X4547445Y2457444D01*
X4532559Y2467390D01*
X4515001Y2470883D01*
X4497443Y2467390D01*
X4482558Y2457444D01*
X4472612Y2442559D01*
X4469120Y2425001D01*
X4470751Y2416799D01*
X4361942Y2307990D01*
X3468192D01*
X3463034Y2320690D01*
X3464392Y2322010D01*
X3842500D01*
X3852255Y2323951D01*
X3860524Y2329476D01*
X4133025Y2601978D01*
X4138551Y2610247D01*
X4140491Y2620001D01*
Y2904443D01*
X4209762Y2973715D01*
X4493604D01*
X4503358Y2975655D01*
X4511628Y2981180D01*
X4551873Y3021426D01*
X4563607Y3016566D01*
Y2959205D01*
X4557089Y2949205D01*
X4553607D01*
Y2819205D01*
X4561564D01*
X4566424Y2807472D01*
X4554033Y2795081D01*
X4550001Y2795883D01*
X4532443Y2792390D01*
X4517558Y2782445D01*
X4507612Y2767559D01*
X4504120Y2750001D01*
X4507612Y2732443D01*
X4517558Y2717558D01*
X4532443Y2707612D01*
X4550001Y2704120D01*
X4567559Y2707612D01*
X4582444Y2717558D01*
X4592390Y2732443D01*
X4595883Y2750001D01*
X4593422Y2762374D01*
X4641631Y2810583D01*
X4647156Y2818852D01*
X4647226Y2819205D01*
X4693607D01*
Y2949205D01*
X4690124D01*
X4683606Y2959205D01*
Y3059205D01*
X4649095D01*
Y3103353D01*
X4651865Y3107498D01*
X4654193Y3119204D01*
Y3149204D01*
X4651865Y3160909D01*
X4645234Y3170833D01*
X4635311Y3177463D01*
X4623605Y3179791D01*
D02*
G37*
G36*
X5795902Y3381503D02*
X5733202D01*
Y3313803D01*
X5795902D01*
Y3381503D01*
D02*
G37*
G36*
X583601Y3947058D02*
X548903Y3943640D01*
X515538Y3933519D01*
X484789Y3917084D01*
X457837Y3894965D01*
X435719Y3868013D01*
X419283Y3837264D01*
X409162Y3803900D01*
X405744Y3769202D01*
X409162Y3734503D01*
X419283Y3701139D01*
X435719Y3670390D01*
X457837Y3643438D01*
X484789Y3621319D01*
X515538Y3604884D01*
X548903Y3594763D01*
X583601Y3591345D01*
X618299Y3594763D01*
X651663Y3604884D01*
X682412Y3621319D01*
X709364Y3643438D01*
X731483Y3670390D01*
X740610Y3687466D01*
X1379827D01*
X1431109Y3636184D01*
X1431109Y3636183D01*
Y3636183D01*
X1439266Y3626862D01*
Y3412802D01*
X1442188Y3390613D01*
X1450752Y3369936D01*
X1458422Y3359940D01*
X1452159Y3347240D01*
X1425000D01*
Y3415000D01*
X1383039D01*
Y3430000D01*
X1380904Y3440730D01*
X1375000Y3449566D01*
Y3545000D01*
X1235000D01*
Y3415000D01*
X1272300D01*
X1285000Y3415000D01*
Y3285001D01*
X1285000D01*
Y3284999D01*
X1285000D01*
Y3155000D01*
X1272300Y3155000D01*
X1235000D01*
Y3025000D01*
X1375000D01*
Y3115433D01*
X1380905Y3124270D01*
X1383039Y3135000D01*
Y3155000D01*
X1425000D01*
Y3191961D01*
X1458454D01*
X1466939Y3179261D01*
X1462188Y3167790D01*
X1459267Y3145601D01*
Y2896974D01*
X1386226Y2823934D01*
X730725D01*
X709363Y2849964D01*
X682411Y2872083D01*
X651662Y2888518D01*
X618298Y2898639D01*
X583600Y2902057D01*
X548901Y2898639D01*
X515537Y2888518D01*
X484788Y2872083D01*
X457836Y2849964D01*
X435717Y2823012D01*
X419282Y2792263D01*
X409161Y2758899D01*
X405743Y2724201D01*
X409161Y2689502D01*
X419282Y2656138D01*
X435717Y2625389D01*
X457836Y2598437D01*
X484788Y2576318D01*
X515537Y2559883D01*
X548901Y2549762D01*
X583600Y2546344D01*
X618298Y2549762D01*
X651662Y2559883D01*
X682411Y2576318D01*
X709363Y2598437D01*
X731482Y2625389D01*
X745955Y2652467D01*
X1393759D01*
X1424467Y2621759D01*
X1516391Y2713683D01*
X1590425Y2787718D01*
X1605623Y2799379D01*
X1617285Y2814577D01*
X1650741Y2848033D01*
X1630733Y2868040D01*
Y3145601D01*
X1630359Y3148446D01*
X1631927Y3152233D01*
X1634161Y3169201D01*
X1631927Y3186170D01*
X1625378Y3201982D01*
X1614959Y3215560D01*
X1601381Y3225979D01*
X1597522Y3227577D01*
X1596860Y3230907D01*
X1594171Y3234932D01*
X1591281Y3244202D01*
X1594171Y3253471D01*
X1596860Y3257496D01*
X1599188Y3269201D01*
X1596860Y3280907D01*
X1590229Y3290830D01*
Y3297573D01*
X1596860Y3307496D01*
X1597522Y3310826D01*
X1601381Y3312424D01*
X1614959Y3322843D01*
X1625378Y3336421D01*
X1631927Y3352233D01*
X1634161Y3369202D01*
X1631927Y3386170D01*
X1631562Y3387052D01*
X1632134Y3391401D01*
X1629213Y3413591D01*
X1620648Y3434268D01*
X1610733Y3447190D01*
Y3631959D01*
X1643241Y3664467D01*
X1508891Y3798817D01*
X1508891Y3798817D01*
X1481355Y3826353D01*
X1475624Y3833822D01*
X1468155Y3839553D01*
X1416967Y3890741D01*
X1385159Y3858933D01*
X736337D01*
X731483Y3868013D01*
X709364Y3894965D01*
X682412Y3917084D01*
X651663Y3933519D01*
X618299Y3943640D01*
X583601Y3947058D01*
D02*
G37*
G36*
X1778601Y3399789D02*
X1748601D01*
X1736895Y3397461D01*
X1726972Y3390830D01*
X1720341Y3380907D01*
X1718013Y3369202D01*
X1720341Y3357496D01*
X1726972Y3347573D01*
X1730533Y3345193D01*
X1730943Y3340475D01*
X1728543Y3331249D01*
X1715820Y3325979D01*
X1702242Y3315560D01*
X1691824Y3301982D01*
X1685274Y3286170D01*
X1683040Y3269201D01*
X1685274Y3252233D01*
X1691824Y3236421D01*
X1702242Y3222843D01*
X1715820Y3212424D01*
X1728543Y3207154D01*
X1730943Y3197928D01*
X1730533Y3193210D01*
X1726972Y3190830D01*
X1720341Y3180907D01*
X1718013Y3169201D01*
X1720341Y3157496D01*
X1726972Y3147573D01*
X1736895Y3140942D01*
X1748601Y3138614D01*
X1778601D01*
X1790306Y3140942D01*
X1800230Y3147573D01*
X1806860Y3157496D01*
X1809188Y3169201D01*
X1808586Y3172230D01*
X1819138Y3183651D01*
X1820525Y3183468D01*
X1968601D01*
X1971566Y3183859D01*
X1984267Y3176538D01*
Y3175000D01*
X1985000Y3169428D01*
Y3040000D01*
X2155000D01*
Y3122500D01*
X2325000D01*
Y3147100D01*
X2367300D01*
Y3237500D01*
Y3327900D01*
X2325000D01*
Y3352500D01*
X2215574D01*
X2210000Y3353234D01*
X2165000D01*
Y3354201D01*
X1974173D01*
X1968601Y3354935D01*
X1820525D01*
X1819138Y3354752D01*
X1808586Y3366173D01*
X1809188Y3369202D01*
X1806860Y3380907D01*
X1800230Y3390830D01*
X1790306Y3397461D01*
X1778601Y3399789D01*
D02*
G37*
G36*
X1045001Y3185883D02*
X1027443Y3182390D01*
X1012558Y3172445D01*
X1002612Y3157559D01*
X999120Y3140001D01*
X1002612Y3122443D01*
X1012558Y3107558D01*
X1027443Y3097612D01*
X1045001Y3094120D01*
X1050197Y3095153D01*
X1065000Y3080350D01*
Y3025000D01*
X1205000D01*
Y3155000D01*
X1087899D01*
X1087390Y3157559D01*
X1077444Y3172445D01*
X1062559Y3182390D01*
X1045001Y3185883D01*
D02*
G37*
G36*
X3629800Y3069800D02*
X3602100D01*
Y3029600D01*
X3629800D01*
Y3069800D01*
D02*
G37*
G36*
X3877900Y3069799D02*
X3850199D01*
Y3029600D01*
X3877900D01*
Y3069799D01*
D02*
G37*
G36*
X5795902Y3474603D02*
X5733202D01*
Y3406903D01*
X5795902D01*
Y3474603D01*
D02*
G37*
G36*
X5782301Y3537299D02*
X5724600D01*
Y3489600D01*
X5782301D01*
Y3537299D01*
D02*
G37*
G36*
X1205000Y3545000D02*
X1065000D01*
Y3508038D01*
X1039072D01*
X1032559Y3512390D01*
X1015001Y3515883D01*
X997443Y3512390D01*
X982558Y3502444D01*
X972612Y3487559D01*
X969120Y3470001D01*
X972612Y3452443D01*
X982558Y3437558D01*
X997443Y3427612D01*
X1015001Y3424120D01*
X1032559Y3427612D01*
X1047444Y3437558D01*
X1052300Y3444825D01*
X1065000Y3440973D01*
Y3415000D01*
X1205000D01*
Y3545000D01*
D02*
G37*
G36*
X2760400Y3952301D02*
X2700002D01*
X2639600D01*
Y3894600D01*
X2650000D01*
Y3839925D01*
X2649020Y3835000D01*
Y3695000D01*
X2635000D01*
Y3560000D01*
X2600000D01*
Y3352500D01*
X2435000D01*
Y3327900D01*
X2392700D01*
Y3237500D01*
Y3147100D01*
X2435000D01*
Y3122500D01*
X2625000D01*
Y3174371D01*
X2630001Y3185000D01*
X2683030D01*
X2688602Y3184267D01*
X2694174Y3185000D01*
X2820000D01*
Y3220000D01*
X2846060D01*
X2855000Y3218222D01*
X2962530D01*
X2970586Y3208405D01*
X2969999Y3205452D01*
Y3180556D01*
X2969268Y3175001D01*
X2969999Y3169447D01*
Y3167952D01*
X2970581Y3165026D01*
X2972189Y3152812D01*
X2973770Y3148996D01*
X2974365Y3146004D01*
X2976060Y3143468D01*
X2980754Y3132134D01*
X2994379Y3114379D01*
X3012135Y3100754D01*
X3032812Y3092189D01*
X3055001Y3089268D01*
X3253602D01*
X3259165Y3090000D01*
X3367057D01*
X3367811Y3089688D01*
X3390000Y3086767D01*
X3550000D01*
X3572189Y3089688D01*
X3589400Y3096817D01*
X3592867Y3095200D01*
X3642500D01*
Y3082500D01*
X3655200D01*
Y3029600D01*
X3694800D01*
Y3082499D01*
X3720200D01*
Y3029600D01*
X3759799D01*
Y3082499D01*
X3785199D01*
Y3029600D01*
X3824799D01*
Y3082499D01*
X3837499D01*
Y3095199D01*
X3877900D01*
Y3127018D01*
X3877900Y3132741D01*
X3882010Y3138390D01*
X3887659Y3142500D01*
X3954912D01*
X3958953Y3136452D01*
X3975492Y3125401D01*
X3995001Y3121521D01*
X4004159Y3123342D01*
X4010415Y3111638D01*
X3886255Y2987478D01*
X3880509Y2978878D01*
X3878491Y2968733D01*
X3878491Y2968732D01*
Y2925000D01*
X3835000D01*
Y2795001D01*
X3835000D01*
Y2784999D01*
X3835000D01*
Y2655000D01*
X3975000D01*
Y2784999D01*
X3975000D01*
Y2795001D01*
X3975000D01*
Y2925000D01*
X3931509D01*
Y2957752D01*
X4084582Y3110825D01*
X4084583Y3110826D01*
X4090329Y3119426D01*
X4092347Y3129571D01*
Y3187931D01*
X4090329Y3198075D01*
X4087506Y3202300D01*
X4093244Y3215000D01*
X4213380D01*
X4225000Y3213470D01*
X4275000D01*
Y3190000D01*
X4445000D01*
Y3216096D01*
X4453606Y3223643D01*
X4483605D01*
X4500574Y3225877D01*
X4516385Y3232427D01*
X4529964Y3242845D01*
X4540382Y3256424D01*
X4546932Y3272235D01*
X4549166Y3289204D01*
X4546932Y3306172D01*
X4540382Y3321984D01*
X4529964Y3335562D01*
X4516385Y3345981D01*
X4500574Y3352531D01*
X4483605Y3354764D01*
X4472512D01*
X4459984Y3356263D01*
X4495001Y3330001D01*
X4490001Y3325001D01*
X4435001D01*
Y3374998D01*
X4435000Y3375000D01*
X4445000Y3367500D01*
Y3380000D01*
X4412058D01*
X4407191Y3382016D01*
X4385001Y3384937D01*
X4320000D01*
Y3385000D01*
X4000000D01*
Y3378147D01*
X3982900D01*
Y3407900D01*
X3890035D01*
X3886480Y3416481D01*
X3877900Y3420035D01*
Y3444799D01*
X3837498D01*
Y3457499D01*
X3824798D01*
Y3510400D01*
X3785199D01*
Y3457499D01*
X3759799D01*
Y3510400D01*
X3720199D01*
Y3457500D01*
X3694799D01*
Y3510400D01*
X3655199D01*
Y3457500D01*
X3642499D01*
Y3444800D01*
X3592866D01*
X3589400Y3443183D01*
X3572189Y3450312D01*
X3550000Y3453233D01*
X3391899D01*
X3369710Y3450312D01*
X3367032Y3449203D01*
X3264174D01*
X3258602Y3449936D01*
X3055001D01*
X3032812Y3447015D01*
X3012135Y3438450D01*
X2994379Y3424826D01*
X2980754Y3407070D01*
X2975187Y3393629D01*
X2974365Y3392399D01*
X2974076Y3390949D01*
X2972189Y3386393D01*
X2970269Y3371810D01*
X2969999Y3370452D01*
Y3369758D01*
X2969268Y3364203D01*
X2969999Y3358649D01*
Y3332952D01*
X2970587Y3329998D01*
X2962530Y3320181D01*
X2855000D01*
X2854090Y3320000D01*
X2820000D01*
Y3355000D01*
X2800000D01*
Y3560000D01*
X2765000D01*
Y3695000D01*
X2750980D01*
Y3794020D01*
X2865000D01*
Y3775000D01*
X2927904D01*
X2953952Y3748952D01*
X2970491Y3737901D01*
X2990000Y3734020D01*
X3171020D01*
X3180000Y3725040D01*
Y3715000D01*
X3180000Y3712300D01*
Y3678933D01*
X3179218Y3675001D01*
X3180000Y3671069D01*
Y3595000D01*
X3280000D01*
Y3618993D01*
X3292700Y3625782D01*
X3297443Y3622612D01*
X3300277Y3622049D01*
X3331164Y3591162D01*
X3331164Y3591161D01*
X3344395Y3582321D01*
X3360003Y3579216D01*
X3360004Y3579216D01*
X3535000D01*
Y3555000D01*
X3652300D01*
X3664999Y3555000D01*
Y3554999D01*
X3665001D01*
Y3555000D01*
X3782326D01*
X3801162Y3536164D01*
X3801163Y3536163D01*
X3814394Y3527322D01*
X3830001Y3524218D01*
X3971041D01*
X3980492Y3517902D01*
X4000001Y3514022D01*
X4019510Y3517902D01*
X4036049Y3528953D01*
X4047100Y3545492D01*
X4050981Y3565001D01*
X4047100Y3584510D01*
X4036049Y3601049D01*
X4019510Y3612100D01*
X4000001Y3615981D01*
X3980492Y3612100D01*
X3971041Y3605785D01*
X3846894D01*
X3798841Y3653838D01*
X3795000Y3656405D01*
Y3695000D01*
X3677700D01*
X3665001Y3695000D01*
Y3695000D01*
X3664999D01*
Y3695000D01*
X3535000D01*
Y3660783D01*
X3376896D01*
X3357954Y3679725D01*
X3357390Y3682559D01*
X3347444Y3697444D01*
X3332559Y3707390D01*
X3326816Y3708533D01*
X3320609Y3712680D01*
X3305001Y3715785D01*
X3305000Y3715785D01*
X3288413D01*
X3280000Y3725000D01*
X3280000Y3728485D01*
Y3780075D01*
X3280979Y3785000D01*
X3280000Y3789925D01*
Y3845000D01*
X3180000D01*
Y3835980D01*
X3011116D01*
X2995000Y3852096D01*
Y3915000D01*
X2865000D01*
Y3895980D01*
X2760400D01*
Y3952301D01*
D02*
G37*
G36*
X4412299Y3537302D02*
X4354600D01*
Y3489600D01*
X4412299D01*
Y3537302D01*
D02*
G37*
G36*
X3877900Y3510400D02*
X3850198D01*
Y3470199D01*
X3877900D01*
Y3510400D01*
D02*
G37*
G36*
X3629799D02*
X3602100D01*
Y3470200D01*
X3629799D01*
Y3510400D01*
D02*
G37*
G36*
X4960902Y3526503D02*
X4903202D01*
Y3478803D01*
X4960902D01*
Y3526503D01*
D02*
G37*
G36*
X8233702Y3012695D02*
Y2809699D01*
X8436694D01*
X8433776Y2839325D01*
X8421431Y2880022D01*
X8401383Y2917529D01*
X8374403Y2950404D01*
X8341528Y2977384D01*
X8304021Y2997432D01*
X8263324Y3009777D01*
X8233702Y3012695D01*
D02*
G37*
G36*
X7962698Y2414400D02*
Y2332701D01*
X8044400D01*
X8042798Y2344865D01*
X8033201Y2368035D01*
X8017933Y2387932D01*
X7998036Y2403200D01*
X7974865Y2412798D01*
X7962698Y2414400D01*
D02*
G37*
G36*
X5065401Y2482302D02*
X4985001D01*
X4904602D01*
Y2419602D01*
Y2357701D01*
X4985001D01*
X5065401D01*
Y2419602D01*
Y2482302D01*
D02*
G37*
G36*
X4972301Y2570402D02*
X4904602D01*
Y2507702D01*
X4972301D01*
Y2570402D01*
D02*
G37*
G36*
X7937298Y2414399D02*
X7925135Y2412798D01*
X7901964Y2403200D01*
X7882067Y2387932D01*
X7866799Y2368035D01*
X7857202Y2344865D01*
X7855600Y2332701D01*
X7937298D01*
Y2414399D01*
D02*
G37*
G36*
X4972301Y2332301D02*
X4904602D01*
Y2269602D01*
X4972301D01*
Y2332301D01*
D02*
G37*
G36*
X5065401D02*
X4997701D01*
Y2269602D01*
X5065401D01*
Y2332301D01*
D02*
G37*
G36*
X7750001Y2405582D02*
X7727850Y2402666D01*
X7707209Y2394116D01*
X7689485Y2380515D01*
X7675884Y2362791D01*
X7667334Y2342150D01*
X7664418Y2319999D01*
X7665558Y2311340D01*
X7655204Y2300699D01*
X7654177Y2300491D01*
X6955864D01*
X6955859Y2300490D01*
X6877500D01*
Y2315000D01*
X6777500D01*
Y2300490D01*
X6725000D01*
X6715246Y2298550D01*
X6706976Y2293024D01*
X6651978Y2238025D01*
X6646452Y2229756D01*
X6644512Y2220001D01*
Y2192379D01*
X6642170Y2190526D01*
X6637558Y2187444D01*
X6636754Y2186240D01*
X6634857Y2184739D01*
X6622900Y2188366D01*
Y2229447D01*
X6622900Y2229447D01*
Y2230401D01*
X6612500Y2235953D01*
X6612500Y2243100D01*
Y2315000D01*
X6512500D01*
X6512500Y2235953D01*
X6502099Y2230401D01*
X6502100Y2229447D01*
X6502100Y2229447D01*
Y2192700D01*
X6562500D01*
Y2167300D01*
X6502100D01*
Y2130554D01*
X6502100Y2130553D01*
Y2129600D01*
X6512500Y2124048D01*
X6512500Y2116900D01*
Y2045000D01*
X6597299D01*
X6599454Y2043442D01*
X6606553Y2032300D01*
X6604105Y2019996D01*
X6607598Y2002438D01*
X6617544Y1987553D01*
X6632429Y1977607D01*
X6649987Y1974114D01*
X6651491Y1974414D01*
X6762479D01*
X6798520Y1938373D01*
X6808443Y1931742D01*
X6820149Y1929414D01*
X6832331D01*
X7379414Y1382331D01*
Y627671D01*
X7297732Y545989D01*
X7279599D01*
Y580401D01*
X7139599D01*
Y450402D01*
X7168815D01*
Y399360D01*
X7167612Y397559D01*
X7164120Y380001D01*
X7167612Y362443D01*
X7177558Y347558D01*
X7192443Y337612D01*
X7210001Y334120D01*
X7227559Y337612D01*
X7242444Y347558D01*
X7252390Y362443D01*
X7255883Y380001D01*
X7252390Y397559D01*
X7250383Y400564D01*
Y450402D01*
X7279599D01*
Y484814D01*
X7310400D01*
X7310402Y484814D01*
X7322107Y487142D01*
X7332031Y493773D01*
X7431630Y593372D01*
X7431630Y593372D01*
X7438261Y603296D01*
X7440589Y615001D01*
Y1395000D01*
X7440589Y1395001D01*
X7438261Y1406707D01*
X7431630Y1416630D01*
X7431630Y1416631D01*
X6921502Y1926759D01*
X6926362Y1938492D01*
X6995626D01*
X7000579Y1939477D01*
X7005546Y1940418D01*
X7005649Y1940486D01*
X7005771Y1940510D01*
X7009972Y1943317D01*
X7014199Y1946085D01*
X7014268Y1946188D01*
X7014371Y1946256D01*
X7017185Y1950467D01*
X7020024Y1954633D01*
X7083289Y2103492D01*
X7136054D01*
X7205388Y1930156D01*
X7205478Y1930018D01*
X7205510Y1929856D01*
X7208301Y1925680D01*
X7211029Y1921486D01*
X7211165Y1921393D01*
X7211256Y1921256D01*
X7215427Y1918470D01*
X7219559Y1915635D01*
X7219720Y1915601D01*
X7219857Y1915510D01*
X7224765Y1914533D01*
X7229678Y1913494D01*
X7229840Y1913524D01*
X7230001Y1913492D01*
X7330001D01*
X7331821Y1913854D01*
X7333675Y1913748D01*
X7336850Y1914854D01*
X7340146Y1915510D01*
X7341689Y1916541D01*
X7343442Y1917152D01*
X7345951Y1919389D01*
X7348746Y1921256D01*
X7349778Y1922800D01*
X7351163Y1924035D01*
X7352625Y1927061D01*
X7354493Y1929856D01*
X7354855Y1931677D01*
X7355662Y1933348D01*
X7401070Y2108492D01*
X7505686D01*
X7533626Y2007906D01*
X7534359Y2006453D01*
X7534677Y2004857D01*
X7536669Y2001874D01*
X7538285Y1998672D01*
X7539519Y1997609D01*
X7540423Y1996256D01*
X7543406Y1994263D01*
X7546124Y1991923D01*
X7547670Y1991414D01*
X7549023Y1990510D01*
X7552541Y1989810D01*
X7555948Y1988688D01*
X7557572Y1988810D01*
X7559168Y1988492D01*
X7720385D01*
X7723538Y1989119D01*
X7727848Y1987334D01*
X7749998Y1984418D01*
X7772148Y1987334D01*
X7792789Y1995883D01*
X7810514Y2009484D01*
X7824114Y2027209D01*
X7832664Y2047850D01*
X7835580Y2070000D01*
X7832664Y2092150D01*
X7824114Y2112791D01*
X7813356Y2126812D01*
X7818399Y2139512D01*
X7844441D01*
X7874500Y2109452D01*
X7867334Y2092150D01*
X7864418Y2070000D01*
X7867334Y2047850D01*
X7875884Y2027209D01*
X7889484Y2009484D01*
X7907209Y1995883D01*
X7927850Y1987334D01*
X7950000Y1984418D01*
X7972150Y1987334D01*
X7992791Y1995883D01*
X8010516Y2009484D01*
X8024117Y2027209D01*
X8032666Y2047850D01*
X8035582Y2070000D01*
X8032666Y2092150D01*
X8024117Y2112791D01*
X8010516Y2130516D01*
X7992791Y2144116D01*
X7972150Y2152666D01*
X7950000Y2155582D01*
X7927850Y2152666D01*
X7910548Y2145500D01*
X7873023Y2183025D01*
X7864753Y2188551D01*
X7854999Y2190491D01*
X7775559D01*
X7742817Y2223233D01*
X7748434Y2234623D01*
X7750001Y2234417D01*
X7772151Y2237333D01*
X7792792Y2245883D01*
X7810516Y2259484D01*
X7824117Y2277208D01*
X7832667Y2297849D01*
X7835583Y2319999D01*
X7832667Y2342150D01*
X7824117Y2362791D01*
X7810516Y2380515D01*
X7792792Y2394116D01*
X7772151Y2402666D01*
X7750001Y2405582D01*
D02*
G37*
G36*
X5065401Y2570402D02*
X4997701D01*
Y2507702D01*
X5065401D01*
Y2570402D01*
D02*
G37*
G36*
X4925903Y2661503D02*
X4863202D01*
Y2593803D01*
X4925903D01*
Y2661503D01*
D02*
G37*
G36*
Y2754603D02*
X4863202D01*
Y2686903D01*
X4925903D01*
Y2754603D01*
D02*
G37*
G36*
X8208302Y3012695D02*
X8178677Y3009777D01*
X8137979Y2997432D01*
X8100472Y2977384D01*
X8067597Y2950404D01*
X8040617Y2917529D01*
X8020569Y2880022D01*
X8008224Y2839325D01*
X8005306Y2809699D01*
X8208302D01*
Y3012695D01*
D02*
G37*
G36*
X5075900Y2754603D02*
X4951303D01*
Y2674203D01*
Y2593803D01*
X5075900D01*
Y2674203D01*
Y2754603D01*
D02*
G37*
G36*
X2550000Y2665000D02*
X2370000D01*
Y2513040D01*
X2078779D01*
X2078232Y2513405D01*
X2067502Y2515540D01*
X1924115D01*
X1910679Y2528976D01*
X1910883Y2530001D01*
X1907390Y2547559D01*
X1897445Y2562444D01*
X1882559Y2572390D01*
X1865001Y2575883D01*
X1847443Y2572390D01*
X1832558Y2562444D01*
X1822612Y2547559D01*
X1819120Y2530001D01*
X1822612Y2512443D01*
X1832558Y2497558D01*
X1847443Y2487612D01*
X1865001Y2484120D01*
X1874367Y2485983D01*
X1892675Y2467675D01*
X1901771Y2461597D01*
X1910551Y2459851D01*
X1917418Y2450000D01*
X1917454Y2446763D01*
X1914120Y2430001D01*
X1917612Y2412443D01*
X1920782Y2407700D01*
X1913993Y2395000D01*
X1895000D01*
Y2265000D01*
X1905000Y2260000D01*
Y2238038D01*
X1765000D01*
X1754270Y2235904D01*
X1745174Y2229826D01*
X1678276Y2162928D01*
X1672198Y2153832D01*
X1670064Y2143102D01*
Y2136957D01*
X1668976Y2136230D01*
X1660046Y2122866D01*
X1656911Y2107103D01*
Y1980103D01*
X1660046Y1964340D01*
X1668976Y1950976D01*
X1682339Y1942047D01*
X1698102Y1938912D01*
X1713866Y1942047D01*
X1727229Y1950976D01*
X1736158Y1964340D01*
X1739294Y1980103D01*
Y2107103D01*
X1736158Y2122866D01*
X1728692Y2134040D01*
X1776614Y2181961D01*
X1905000D01*
Y2160000D01*
X1924064D01*
Y2136957D01*
X1922976Y2136230D01*
X1914046Y2122866D01*
X1910911Y2107103D01*
Y1980103D01*
X1914046Y1964340D01*
X1922976Y1950976D01*
X1936339Y1942047D01*
X1952102Y1938912D01*
X1967866Y1942047D01*
X1981229Y1950976D01*
X1990158Y1964340D01*
X1993294Y1980103D01*
Y2107103D01*
X1990158Y2122866D01*
X1981229Y2136230D01*
X1980141Y2136957D01*
Y2160000D01*
X2024600D01*
Y2149600D01*
X2031127D01*
X2037915Y2136900D01*
X2031250Y2126924D01*
X2027307Y2107103D01*
Y2056302D01*
X2079103D01*
X2130897D01*
Y2107103D01*
X2126955Y2126924D01*
X2120289Y2136900D01*
X2127078Y2149600D01*
X2165400D01*
Y2197302D01*
X2095002D01*
Y2222702D01*
X2165400D01*
Y2254600D01*
X2215400D01*
Y2317300D01*
X2135000D01*
Y2342700D01*
X2215400D01*
Y2405400D01*
X2215400D01*
X2218145Y2416963D01*
X2581570D01*
X2592300Y2419097D01*
X2601396Y2425175D01*
X2625682Y2449461D01*
X2661459D01*
X2665312Y2436761D01*
X2664069Y2435931D01*
X2656886Y2425181D01*
X2654363Y2412500D01*
X2656886Y2399819D01*
X2664069Y2389069D01*
X2666212Y2387637D01*
Y2372363D01*
X2664069Y2370931D01*
X2656886Y2360181D01*
X2654363Y2347500D01*
X2656886Y2334819D01*
X2664069Y2324069D01*
Y2318439D01*
X2656571Y2313429D01*
X2647089Y2299239D01*
X2646286Y2295201D01*
X2770000D01*
X2893714D01*
X2892911Y2299239D01*
X2886182Y2309310D01*
X2891625Y2321824D01*
X2891807Y2322010D01*
X2922500D01*
X2932254Y2323951D01*
X2940524Y2329476D01*
X3066799Y2455751D01*
X3075001Y2454120D01*
X3092559Y2457612D01*
X3107444Y2467558D01*
X3117390Y2482443D01*
X3120883Y2500001D01*
X3117390Y2517559D01*
X3107444Y2532445D01*
X3092559Y2542390D01*
X3075001Y2545883D01*
X3057443Y2542390D01*
X3042558Y2532445D01*
X3035480Y2521852D01*
X3027150Y2522302D01*
X3021815Y2523421D01*
X3012445Y2537445D01*
X2997559Y2547390D01*
X2980001Y2550883D01*
X2962443Y2547390D01*
X2947558Y2537445D01*
X2937612Y2522559D01*
X2934120Y2505001D01*
X2935751Y2496799D01*
X2887549Y2448596D01*
X2877684Y2456692D01*
X2883114Y2464819D01*
X2885637Y2477500D01*
X2883114Y2490181D01*
X2875931Y2500931D01*
X2873789Y2502363D01*
Y2517637D01*
X2875931Y2519069D01*
X2883114Y2529819D01*
X2885637Y2542500D01*
X2883114Y2555181D01*
X2875931Y2565931D01*
X2873788Y2567363D01*
Y2582637D01*
X2875931Y2584069D01*
X2883114Y2594819D01*
X2885637Y2607500D01*
X2883114Y2620181D01*
X2875931Y2630931D01*
Y2636561D01*
X2883429Y2641571D01*
X2892911Y2655761D01*
X2893715Y2659800D01*
X2770000D01*
X2646286D01*
X2647089Y2655761D01*
X2650412Y2650788D01*
X2643624Y2638088D01*
X2550000D01*
Y2665000D01*
D02*
G37*
G36*
X8208302Y2784299D02*
X8005307D01*
X8008224Y2754677D01*
X8020569Y2713980D01*
X8040617Y2676473D01*
X8067597Y2643598D01*
X8100472Y2616618D01*
X8137979Y2596570D01*
X8178677Y2584225D01*
X8208302Y2581307D01*
Y2784299D01*
D02*
G37*
G36*
X8436694D02*
X8233702D01*
Y2581308D01*
X8263324Y2584225D01*
X8304021Y2596570D01*
X8341528Y2616618D01*
X8374403Y2643598D01*
X8401383Y2676473D01*
X8421431Y2713980D01*
X8433776Y2754677D01*
X8436694Y2784299D01*
D02*
G37*
G36*
X1123602Y1739203D02*
X983603D01*
Y1705810D01*
X923602D01*
Y1739203D01*
X783602D01*
Y1609203D01*
X923602D01*
Y1642596D01*
X983603D01*
Y1609203D01*
X1021995D01*
Y1539203D01*
X938602D01*
Y1379203D01*
X1118602D01*
Y1427596D01*
X1148602D01*
Y1379203D01*
X1328602D01*
Y1539203D01*
X1148602D01*
Y1490810D01*
X1118602D01*
Y1539203D01*
X1085210D01*
Y1609203D01*
X1123602D01*
Y1739203D01*
D02*
G37*
G36*
X2015906Y1013991D02*
X1946052D01*
Y982241D01*
X2015906D01*
Y1013991D01*
D02*
G37*
G36*
X2111152D02*
X2041306D01*
Y982241D01*
X2111152D01*
Y1013991D01*
D02*
G37*
G36*
X3166151Y1033966D02*
X3001051D01*
Y1002216D01*
Y994342D01*
X3166151D01*
Y1002216D01*
Y1033966D01*
D02*
G37*
G36*
Y968942D02*
X3096301D01*
Y937192D01*
X3166151D01*
Y968942D01*
D02*
G37*
G36*
X1955400Y960400D02*
X1897699D01*
Y912699D01*
X1955400D01*
Y960400D01*
D02*
G37*
G36*
X7127297Y1255400D02*
X7064600D01*
Y1243850D01*
X7055400Y1235400D01*
X7051900Y1235400D01*
X6942699D01*
Y1150000D01*
X6929999D01*
Y1137300D01*
X6804600D01*
Y1073902D01*
X6804600Y1064600D01*
X6793308Y1061202D01*
X6787859D01*
Y929602D01*
X6919459D01*
Y963794D01*
X6969599D01*
Y930402D01*
X7109599D01*
Y1060401D01*
X7066361D01*
X7055400Y1064600D01*
X7055400Y1073102D01*
Y1086150D01*
X7064600Y1094600D01*
X7068100Y1094600D01*
X7127297D01*
Y1175000D01*
Y1255400D01*
D02*
G37*
G36*
X3070901Y968942D02*
X3001051D01*
Y937192D01*
X3070901D01*
Y968942D01*
D02*
G37*
G36*
X3606151Y1034013D02*
X3523598D01*
X3441051D01*
Y1002263D01*
Y994389D01*
X3523598D01*
X3606151D01*
Y1002263D01*
Y1034013D01*
D02*
G37*
G36*
X3745000Y1235000D02*
X3615000D01*
Y1204800D01*
X3595751D01*
Y1210811D01*
X3451451D01*
Y1156187D01*
X3441051D01*
Y1124437D01*
X3523598D01*
Y1099037D01*
X3441051D01*
Y1067287D01*
Y1059413D01*
X3523598D01*
X3606151D01*
Y1085966D01*
X3615000Y1095000D01*
X3679510D01*
Y880000D01*
X3625000D01*
Y700000D01*
X3679510D01*
Y670000D01*
X3625000D01*
Y490000D01*
X3785000D01*
Y670000D01*
X3730490D01*
Y700000D01*
X3785000D01*
Y880000D01*
X3730490D01*
Y1095000D01*
X3745000D01*
Y1139510D01*
X3771825D01*
X3787758Y1123578D01*
X3786126Y1115375D01*
X3789619Y1097817D01*
X3799565Y1082932D01*
X3814450Y1072986D01*
X3832008Y1069494D01*
X3849566Y1072986D01*
X3864451Y1082932D01*
X3874397Y1097817D01*
X3877889Y1115375D01*
X3874397Y1132933D01*
X3864451Y1147819D01*
X3849566Y1157765D01*
X3832008Y1161257D01*
X3823805Y1159626D01*
X3800407Y1183024D01*
X3792138Y1188549D01*
X3782383Y1190490D01*
X3745000D01*
Y1235000D01*
D02*
G37*
G36*
X789002Y1286503D02*
X701301D01*
Y1208803D01*
X789002D01*
Y1286503D01*
D02*
G37*
G36*
X2810904Y1311505D02*
X2733202D01*
Y1223803D01*
X2810904D01*
Y1311505D01*
D02*
G37*
G36*
X7215400Y1255400D02*
X7152697D01*
Y1187700D01*
X7215400D01*
Y1255400D01*
D02*
G37*
G36*
X2111152Y1079015D02*
X2028606D01*
X1946052D01*
Y1047265D01*
Y1039391D01*
X2028606D01*
X2111152D01*
Y1047265D01*
Y1079015D01*
D02*
G37*
G36*
X7215400Y1162300D02*
X7152697D01*
Y1094600D01*
X7215400D01*
Y1162300D01*
D02*
G37*
G36*
X6917299Y1235400D02*
X6804600D01*
Y1162700D01*
X6917299D01*
Y1235400D01*
D02*
G37*
G36*
X1955400Y887299D02*
X1897699D01*
Y839600D01*
X1955400D01*
Y887299D01*
D02*
G37*
G36*
X5912301Y585400D02*
X5844600D01*
Y522701D01*
X5912301D01*
Y585400D01*
D02*
G37*
G36*
X6005400D02*
X5937701D01*
Y522701D01*
X6005400D01*
Y585400D01*
D02*
G37*
G36*
X6097296Y595400D02*
X6034600D01*
Y527700D01*
X6097296D01*
Y595400D01*
D02*
G37*
G36*
X4119000Y730387D02*
X4095192Y727253D01*
X4073007Y718063D01*
X4053955Y703445D01*
X4039337Y684394D01*
X4030147Y662208D01*
X4027013Y638400D01*
Y587600D01*
X4030147Y563792D01*
X4039337Y541606D01*
X4053955Y522555D01*
X4073007Y507937D01*
X4095192Y498748D01*
X4119000Y495613D01*
X4142808Y498748D01*
X4164993Y507937D01*
X4184044Y522555D01*
X4198663Y541606D01*
X4207852Y563792D01*
X4210987Y587600D01*
Y638400D01*
X4207852Y662208D01*
X4198663Y684394D01*
X4184044Y703445D01*
X4164993Y718063D01*
X4142808Y727253D01*
X4119000Y730387D01*
D02*
G37*
G36*
X500000Y705992D02*
X459813Y702034D01*
X421170Y690312D01*
X385557Y671276D01*
X354342Y645658D01*
X328724Y614443D01*
X309688Y578830D01*
X297966Y540187D01*
X294008Y500000D01*
X297966Y459813D01*
X309688Y421170D01*
X328724Y385557D01*
X354342Y354342D01*
X385557Y328724D01*
X421170Y309688D01*
X459813Y297966D01*
X500000Y294008D01*
X540187Y297966D01*
X578830Y309688D01*
X614443Y328724D01*
X645658Y354342D01*
X671276Y385557D01*
X690312Y421170D01*
X702034Y459813D01*
X705992Y500000D01*
X702034Y540187D01*
X690312Y578830D01*
X671276Y614443D01*
X645658Y645658D01*
X614443Y671276D01*
X578830Y690312D01*
X540187Y702034D01*
X500000Y705992D01*
D02*
G37*
G36*
X8800001Y705993D02*
X8759815Y702035D01*
X8721172Y690313D01*
X8685559Y671277D01*
X8654343Y645659D01*
X8628726Y614444D01*
X8609690Y578831D01*
X8597968Y540188D01*
X8594010Y500001D01*
X8597968Y459814D01*
X8609690Y421172D01*
X8628726Y385559D01*
X8654343Y354343D01*
X8685559Y328726D01*
X8721172Y309690D01*
X8759815Y297968D01*
X8800001Y294010D01*
X8840188Y297968D01*
X8878831Y309690D01*
X8914444Y328726D01*
X8945660Y354343D01*
X8971277Y385559D01*
X8990313Y421172D01*
X9002035Y459814D01*
X9005993Y500001D01*
X9002035Y540188D01*
X8990313Y578831D01*
X8971277Y614444D01*
X8945660Y645659D01*
X8914444Y671277D01*
X8878831Y690313D01*
X8840188Y702035D01*
X8800001Y705993D01*
D02*
G37*
G36*
X6919459Y581202D02*
X6787859D01*
Y449602D01*
X6919459D01*
Y483794D01*
X6969599D01*
Y450402D01*
X7109599D01*
Y580401D01*
X6969599D01*
Y547009D01*
X6919459D01*
Y581202D01*
D02*
G37*
G36*
X6185400Y595400D02*
X6122696D01*
Y527700D01*
X6185400D01*
Y595400D01*
D02*
G37*
G36*
X6919459Y901201D02*
X6787859D01*
Y769601D01*
X6919459D01*
Y803794D01*
X6969599D01*
Y770402D01*
X7109599D01*
Y900401D01*
X6969599D01*
Y867009D01*
X6919459D01*
Y901201D01*
D02*
G37*
G36*
X7279599Y1060401D02*
X7139599D01*
Y930402D01*
X7181560D01*
Y900401D01*
X7139599D01*
Y770402D01*
X7181560D01*
Y740401D01*
X7139599D01*
Y610402D01*
X7279599D01*
Y740401D01*
X7237638D01*
Y770402D01*
X7279599D01*
Y789261D01*
X7292299Y796050D01*
X7297443Y792612D01*
X7315001Y789120D01*
X7332559Y792612D01*
X7347445Y802558D01*
X7357390Y817443D01*
X7360883Y835001D01*
X7357390Y852559D01*
X7347445Y867445D01*
X7332559Y877390D01*
X7315001Y880883D01*
X7297443Y877390D01*
X7292299Y873953D01*
X7279599Y880741D01*
Y900401D01*
X7237638D01*
Y930402D01*
X7279599D01*
Y1060401D01*
D02*
G37*
G36*
X573602Y1379203D02*
X443602D01*
Y1239203D01*
X476995D01*
Y1231400D01*
X479401Y1219305D01*
X486253Y1209051D01*
X691010Y1004293D01*
X701264Y997442D01*
X713360Y995036D01*
X1516452D01*
Y992593D01*
X1660752D01*
Y1066177D01*
X1678155D01*
X1679120Y1065001D01*
X1682612Y1047443D01*
X1692558Y1032558D01*
X1707443Y1022612D01*
X1725001Y1019120D01*
X1742559Y1022612D01*
X1749263Y1027091D01*
X1761963Y1020303D01*
Y950000D01*
X1695000D01*
Y850000D01*
X1726961D01*
Y800387D01*
X1722558Y797444D01*
X1712612Y782559D01*
X1709120Y765001D01*
X1712612Y747443D01*
X1722558Y732558D01*
X1737443Y722612D01*
X1755001Y719120D01*
X1772559Y722612D01*
X1787444Y732558D01*
X1797390Y747443D01*
X1800883Y765001D01*
X1797390Y782559D01*
X1787444Y797444D01*
X1783038Y800389D01*
Y850000D01*
X1814600D01*
Y839600D01*
X1872299D01*
Y899999D01*
Y960400D01*
X1818040D01*
Y1105001D01*
X1815906Y1115731D01*
X1809827Y1124828D01*
X1758138Y1176517D01*
X1749041Y1182595D01*
X1738311Y1184730D01*
X1671152D01*
Y1209015D01*
X1506052D01*
Y1177265D01*
X1516452D01*
Y1058250D01*
X726452D01*
X588599Y1196103D01*
X593860Y1208803D01*
X598559Y1208803D01*
X675901D01*
Y1286503D01*
X588202D01*
Y1219740D01*
X588202Y1214461D01*
X575502Y1209200D01*
X557232Y1227470D01*
X562092Y1239203D01*
X573602D01*
Y1379203D01*
D02*
G37*
G36*
X3606151Y968989D02*
X3523598D01*
X3441051D01*
Y937239D01*
X3444969D01*
X3452012Y924539D01*
X3449120Y910001D01*
X3452561Y892700D01*
X3453008Y890400D01*
X3445815Y880000D01*
X3435000D01*
Y700000D01*
X3595000D01*
Y880000D01*
X3546607D01*
Y890003D01*
X3544201Y902098D01*
X3540433Y907738D01*
X3540883Y910001D01*
X3537991Y924539D01*
X3545034Y937239D01*
X3606151D01*
Y968989D01*
D02*
G37*
G36*
X5237297Y602300D02*
X5174600D01*
Y534600D01*
X5237297D01*
Y602300D01*
D02*
G37*
G36*
X5325400D02*
X5262697D01*
Y534600D01*
X5325400D01*
Y602300D01*
D02*
G37*
G36*
X6919459Y741201D02*
X6787859D01*
Y609602D01*
X6919459D01*
Y643794D01*
X6969599D01*
Y610402D01*
X7109599D01*
Y740401D01*
X6969599D01*
Y707009D01*
X6919459D01*
Y741201D01*
D02*
G37*
G36*
X2914002Y1311505D02*
X2836304D01*
Y1223803D01*
X2914002D01*
Y1311505D01*
D02*
G37*
G36*
X2066403Y1597572D02*
X2059281Y1596156D01*
X2042478Y1584928D01*
X2031250Y1568124D01*
X2027307Y1548303D01*
Y1497502D01*
X2066403D01*
Y1597572D01*
D02*
G37*
G36*
X2091803Y1597572D02*
Y1497502D01*
X2130897D01*
Y1548303D01*
X2126955Y1568124D01*
X2115727Y1584928D01*
X2098923Y1596156D01*
X2091803Y1597572D01*
D02*
G37*
G36*
X753602Y1739203D02*
X613603D01*
Y1609203D01*
X637721D01*
Y1569203D01*
X598602D01*
Y1525085D01*
X573602D01*
Y1549203D01*
X443602D01*
Y1409203D01*
X573602D01*
Y1433321D01*
X598602D01*
Y1409203D01*
X778602D01*
Y1569203D01*
X729484D01*
Y1609203D01*
X753602D01*
Y1739203D01*
D02*
G37*
G36*
X1569002Y1569603D02*
X1481300D01*
Y1491903D01*
X1569002D01*
Y1569603D01*
D02*
G37*
G36*
X3410900Y1511501D02*
X3333202D01*
Y1423803D01*
X3410900D01*
Y1511501D01*
D02*
G37*
G36*
X3514002D02*
X3436300D01*
Y1423803D01*
X3514002D01*
Y1511501D01*
D02*
G37*
G36*
X1455900Y1569603D02*
X1368202D01*
Y1491903D01*
X1455900D01*
Y1569603D01*
D02*
G37*
G36*
X3410900Y1624603D02*
X3333202D01*
Y1536901D01*
X3410900D01*
Y1624603D01*
D02*
G37*
G36*
X8233702Y1808694D02*
Y1605699D01*
X8436694D01*
X8433776Y1635324D01*
X8421431Y1676022D01*
X8401383Y1713529D01*
X8374403Y1746404D01*
X8341528Y1773384D01*
X8304021Y1793432D01*
X8263324Y1805777D01*
X8233702Y1808694D01*
D02*
G37*
G36*
X6652298Y1695400D02*
X6584600D01*
Y1632698D01*
X6652298D01*
Y1695400D01*
D02*
G37*
G36*
X6745400D02*
X6677698D01*
Y1632698D01*
X6745400D01*
Y1695400D01*
D02*
G37*
G36*
X8208302Y1808695D02*
X8178677Y1805777D01*
X8137979Y1793432D01*
X8100472Y1773384D01*
X8067597Y1746404D01*
X8040617Y1713529D01*
X8020569Y1676022D01*
X8008224Y1635324D01*
X8005306Y1605699D01*
X8208302D01*
Y1808695D01*
D02*
G37*
G36*
X3514002Y1624603D02*
X3436300D01*
Y1536901D01*
X3514002D01*
Y1624603D01*
D02*
G37*
G36*
X6652298Y1607298D02*
X6584600D01*
Y1544600D01*
X6652298D01*
Y1607298D01*
D02*
G37*
G36*
X6745400D02*
X6677698D01*
Y1544600D01*
X6745400D01*
Y1607298D01*
D02*
G37*
G36*
X1569002Y1466503D02*
X1481300D01*
Y1388803D01*
X1569002D01*
Y1466503D01*
D02*
G37*
G36*
X675901Y1389603D02*
X588202D01*
Y1311903D01*
X675901D01*
Y1389603D01*
D02*
G37*
G36*
X789002D02*
X701301D01*
Y1311903D01*
X789002D01*
Y1389603D01*
D02*
G37*
G36*
X3667300Y1415400D02*
X3604600D01*
Y1347700D01*
X3667300D01*
Y1415400D01*
D02*
G37*
G36*
X3755400Y1322300D02*
X3692700D01*
Y1254600D01*
X3755400D01*
Y1322300D01*
D02*
G37*
G36*
X1575902Y1266165D02*
X1506052D01*
Y1234415D01*
X1575902D01*
Y1266165D01*
D02*
G37*
G36*
X1671152D02*
X1601302D01*
Y1234415D01*
X1671152D01*
Y1266165D01*
D02*
G37*
G36*
X3667300Y1322300D02*
X3604600D01*
Y1254600D01*
X3667300D01*
Y1322300D01*
D02*
G37*
G36*
X3755400Y1415400D02*
X3692700D01*
Y1347700D01*
X3755400D01*
Y1415400D01*
D02*
G37*
G36*
X8436694Y1580299D02*
X8233702D01*
Y1377307D01*
X8263324Y1380225D01*
X8304021Y1392570D01*
X8341528Y1412618D01*
X8374403Y1439598D01*
X8401383Y1472473D01*
X8421431Y1509979D01*
X8433776Y1550677D01*
X8436694Y1580299D01*
D02*
G37*
G36*
X6685400Y1455400D02*
X6572701D01*
Y1382700D01*
X6685400D01*
Y1455400D01*
D02*
G37*
G36*
X1455900Y1466503D02*
X1368202D01*
Y1388803D01*
X1455900D01*
Y1466503D01*
D02*
G37*
G36*
X8208302Y1580299D02*
X8005307D01*
X8008224Y1550677D01*
X8020569Y1509979D01*
X8040617Y1472473D01*
X8067597Y1439598D01*
X8100472Y1412618D01*
X8137979Y1392570D01*
X8178677Y1380225D01*
X8208302Y1377307D01*
Y1580299D01*
D02*
G37*
G36*
X2713602Y1614203D02*
X2553602D01*
Y1434203D01*
X2608113D01*
Y1414203D01*
X2553602D01*
Y1349693D01*
X2523602D01*
Y1389203D01*
X2383603D01*
Y1259203D01*
X2523602D01*
Y1298713D01*
X2553602D01*
Y1234203D01*
X2713602D01*
Y1414203D01*
X2659092D01*
Y1434203D01*
X2713602D01*
Y1614203D01*
D02*
G37*
G36*
X2066403Y1472102D02*
X2027307D01*
Y1421303D01*
X2031250Y1401482D01*
X2042478Y1384678D01*
X2059281Y1373450D01*
X2066403Y1372034D01*
Y1472102D01*
D02*
G37*
G36*
X2130897D02*
X2091803D01*
Y1372034D01*
X2098923Y1373450D01*
X2115727Y1384678D01*
X2126955Y1401482D01*
X2130897Y1421303D01*
Y1472102D01*
D02*
G37*
G36*
X1665906Y5636504D02*
X1603202D01*
Y5568803D01*
X1665906D01*
Y5636504D01*
D02*
G37*
G36*
X835302Y5702089D02*
Y5562903D01*
X974489D01*
X972797Y5580079D01*
X964083Y5608806D01*
X949931Y5635281D01*
X930887Y5658487D01*
X907681Y5677532D01*
X881205Y5691683D01*
X852478Y5700398D01*
X835302Y5702089D01*
D02*
G37*
G36*
X2205906Y5636504D02*
X2143202D01*
Y5568803D01*
X2205906D01*
Y5636504D01*
D02*
G37*
G36*
X1754002D02*
X1691306D01*
Y5568803D01*
X1754002D01*
Y5636504D01*
D02*
G37*
G36*
X301902Y5702089D02*
X284726Y5700398D01*
X255999Y5691683D01*
X229524Y5677532D01*
X206318Y5658487D01*
X187273Y5635281D01*
X173122Y5608806D01*
X164407Y5580079D01*
X162716Y5562903D01*
X301902D01*
Y5702089D01*
D02*
G37*
G36*
X1184002Y5626503D02*
X1121305D01*
Y5558803D01*
X1184002D01*
Y5626503D01*
D02*
G37*
G36*
X809902Y5702089D02*
X792726Y5700398D01*
X763999Y5691683D01*
X737524Y5677532D01*
X714318Y5658487D01*
X695273Y5635281D01*
X681122Y5608806D01*
X672407Y5580079D01*
X670716Y5562903D01*
X809902D01*
Y5702089D01*
D02*
G37*
G36*
X327302D02*
Y5562903D01*
X466489D01*
X464797Y5580079D01*
X456083Y5608806D01*
X441931Y5635281D01*
X422887Y5658487D01*
X399681Y5677532D01*
X373205Y5691683D01*
X344478Y5700398D01*
X327302Y5702089D01*
D02*
G37*
G36*
X2294002Y5636504D02*
X2231306D01*
Y5568803D01*
X2294002D01*
Y5636504D01*
D02*
G37*
G36*
X5344002Y5649603D02*
X5276301D01*
Y5586905D01*
X5344002D01*
Y5649603D01*
D02*
G37*
G36*
X5250901D02*
X5183202D01*
Y5586905D01*
X5250901D01*
Y5649603D01*
D02*
G37*
G36*
X4193602Y5629203D02*
X4053603D01*
Y5596389D01*
X3956192D01*
X3946160Y5603092D01*
X3928602Y5606584D01*
X3813602D01*
X3796044Y5603092D01*
X3781159Y5593146D01*
X3771213Y5578261D01*
X3767720Y5560703D01*
X3771213Y5543145D01*
X3781159Y5528260D01*
X3796044Y5518314D01*
X3813602Y5514821D01*
X3928602D01*
X3946160Y5518314D01*
X3956192Y5525017D01*
X4053603D01*
Y5499203D01*
X4193602D01*
Y5629203D01*
D02*
G37*
G36*
X2994002Y5651501D02*
X2926301D01*
Y5588803D01*
X2994002D01*
Y5651501D01*
D02*
G37*
G36*
X3403602Y5617188D02*
X3358804D01*
Y5573401D01*
X3457562D01*
X3455788Y5582319D01*
X3443543Y5600644D01*
X3425218Y5612888D01*
X3403602Y5617188D01*
D02*
G37*
G36*
X3333404D02*
X3288602D01*
X3266986Y5612888D01*
X3248661Y5600644D01*
X3236416Y5582319D01*
X3234643Y5573401D01*
X3333404D01*
Y5617188D01*
D02*
G37*
G36*
X4974002Y5649603D02*
X4906302D01*
Y5586903D01*
X4974002D01*
Y5649603D01*
D02*
G37*
G36*
X4880902D02*
X4813202D01*
Y5586903D01*
X4880902D01*
Y5649603D01*
D02*
G37*
G36*
X1767900Y5332900D02*
X1700201D01*
Y5270200D01*
X1767900D01*
Y5332900D01*
D02*
G37*
G36*
X1674801D02*
X1607100D01*
Y5270200D01*
X1674801D01*
Y5332900D01*
D02*
G37*
G36*
X466489Y5537503D02*
X327302D01*
Y5398316D01*
X344478Y5400008D01*
X373205Y5408722D01*
X399681Y5422874D01*
X422887Y5441918D01*
X441931Y5465124D01*
X456083Y5491600D01*
X464797Y5520327D01*
X466489Y5537503D01*
D02*
G37*
G36*
X301902D02*
X162716D01*
X164407Y5520327D01*
X173122Y5491600D01*
X187273Y5465124D01*
X206318Y5441918D01*
X229524Y5422874D01*
X255999Y5408722D01*
X284726Y5400008D01*
X301902Y5398316D01*
Y5537503D01*
D02*
G37*
G36*
X1275400Y5295400D02*
X1207701D01*
Y5232700D01*
X1275400D01*
Y5295400D01*
D02*
G37*
G36*
X1182301D02*
X1114600D01*
Y5232700D01*
X1182301D01*
Y5295400D01*
D02*
G37*
G36*
X3854002Y5299603D02*
X3786304D01*
Y5236901D01*
X3854002D01*
Y5299603D01*
D02*
G37*
G36*
X3760904D02*
X3693202D01*
Y5236901D01*
X3760904D01*
Y5299603D01*
D02*
G37*
G36*
X809902Y5537503D02*
X670716D01*
X672407Y5520327D01*
X681122Y5491600D01*
X695273Y5465124D01*
X714318Y5441918D01*
X737524Y5422874D01*
X763999Y5408722D01*
X792726Y5400008D01*
X809902Y5398316D01*
Y5537503D01*
D02*
G37*
G36*
X3333404Y5548001D02*
X3234644D01*
X3236416Y5539087D01*
X3248661Y5520762D01*
X3266986Y5508517D01*
X3288602Y5504218D01*
X3333404D01*
Y5548001D01*
D02*
G37*
G36*
X5344002Y5561505D02*
X5276301D01*
Y5498803D01*
X5344002D01*
Y5561505D01*
D02*
G37*
G36*
X1095905Y5626503D02*
X1033202D01*
Y5558803D01*
X1095905D01*
Y5626503D01*
D02*
G37*
G36*
X3457561Y5548001D02*
X3358804D01*
Y5504218D01*
X3403602D01*
X3425218Y5508517D01*
X3443543Y5520762D01*
X3455788Y5539087D01*
X3457561Y5548001D01*
D02*
G37*
G36*
X4880902Y5561503D02*
X4813202D01*
Y5498803D01*
X4880902D01*
Y5561503D01*
D02*
G37*
G36*
X974489Y5537503D02*
X835302D01*
Y5398316D01*
X852478Y5400008D01*
X881205Y5408722D01*
X907681Y5422874D01*
X930887Y5441918D01*
X949931Y5465124D01*
X964083Y5491600D01*
X972797Y5520327D01*
X974489Y5537503D01*
D02*
G37*
G36*
X5250901Y5561505D02*
X5183202D01*
Y5498803D01*
X5250901D01*
Y5561505D01*
D02*
G37*
G36*
X4974002Y5561503D02*
X4906302D01*
Y5498803D01*
X4974002D01*
Y5561503D01*
D02*
G37*
G36*
X4598602Y5649203D02*
X4418603D01*
Y5599889D01*
X4363602D01*
Y5629203D01*
X4223602D01*
Y5499203D01*
X4363602D01*
Y5528517D01*
X4418603D01*
Y5489203D01*
X4598602D01*
Y5533517D01*
X4653603D01*
Y5509203D01*
X4793602D01*
Y5639203D01*
X4653603D01*
Y5604889D01*
X4598602D01*
Y5649203D01*
D02*
G37*
G36*
X4253602Y6214203D02*
X4093602D01*
Y6034203D01*
X4253602D01*
Y6085977D01*
X4281042D01*
Y6055863D01*
X4412642D01*
Y6187463D01*
X4281042D01*
Y6157349D01*
X4253602D01*
Y6214203D01*
D02*
G37*
G36*
X3684002Y6111502D02*
X3603603D01*
X3523203D01*
Y6048803D01*
Y6006902D01*
X3603603D01*
X3684002D01*
Y6048803D01*
Y6111502D01*
D02*
G37*
G36*
X327302Y6210089D02*
Y6070903D01*
X466489D01*
X464797Y6088079D01*
X456083Y6116806D01*
X441931Y6143281D01*
X422887Y6166487D01*
X399681Y6185532D01*
X373205Y6199683D01*
X344478Y6208398D01*
X327302Y6210089D01*
D02*
G37*
G36*
X301902D02*
X284726Y6208398D01*
X255999Y6199683D01*
X229524Y6185532D01*
X206318Y6166487D01*
X187273Y6143281D01*
X173122Y6116806D01*
X164407Y6088079D01*
X162716Y6070903D01*
X301902D01*
Y6210089D01*
D02*
G37*
G36*
X3590903Y5981502D02*
X3523203D01*
Y5918803D01*
X3590903D01*
Y5981502D01*
D02*
G37*
G36*
X974489Y6045503D02*
X835302D01*
Y5906316D01*
X852478Y5908008D01*
X881205Y5916722D01*
X907681Y5930874D01*
X930887Y5949918D01*
X949931Y5973124D01*
X964083Y5999600D01*
X972797Y6028327D01*
X974489Y6045503D01*
D02*
G37*
G36*
X4636162Y6093483D02*
X4504562D01*
Y5961883D01*
X4636162D01*
Y5988517D01*
X4733602D01*
Y5959203D01*
X4873602D01*
Y6089203D01*
X4733602D01*
Y6059889D01*
X4636162D01*
Y6093483D01*
D02*
G37*
G36*
X3684002Y5981502D02*
X3616303D01*
Y5918803D01*
X3684002D01*
Y5981502D01*
D02*
G37*
G36*
X809902Y6210089D02*
X792726Y6208398D01*
X763999Y6199683D01*
X737524Y6185532D01*
X714318Y6166487D01*
X695273Y6143281D01*
X681122Y6116806D01*
X672407Y6088079D01*
X670716Y6070903D01*
X809902D01*
Y6210089D01*
D02*
G37*
G36*
X500000Y6705992D02*
X459813Y6702034D01*
X421170Y6690311D01*
X385557Y6671276D01*
X354342Y6645658D01*
X328724Y6614443D01*
X309688Y6578830D01*
X297966Y6540187D01*
X294008Y6500000D01*
X297966Y6459813D01*
X309688Y6421170D01*
X328724Y6385557D01*
X354342Y6354342D01*
X385557Y6328724D01*
X421170Y6309688D01*
X459813Y6297966D01*
X500000Y6294008D01*
X540187Y6297966D01*
X578830Y6309688D01*
X614443Y6328724D01*
X645658Y6354342D01*
X671276Y6385557D01*
X690312Y6421170D01*
X702034Y6459813D01*
X705992Y6500000D01*
X702034Y6540187D01*
X690312Y6578830D01*
X671276Y6614443D01*
X645658Y6645658D01*
X614443Y6671276D01*
X578830Y6690311D01*
X540187Y6702034D01*
X500000Y6705992D01*
D02*
G37*
G36*
X4063602Y6214203D02*
X3903603D01*
Y6159889D01*
X3843602D01*
Y6189203D01*
X3703602D01*
Y6059204D01*
X3703602D01*
Y6059202D01*
X3703602D01*
Y5929203D01*
X3788135D01*
X3835416Y5881922D01*
Y5860584D01*
X3813602D01*
X3796044Y5857092D01*
X3781159Y5847146D01*
X3771213Y5832261D01*
X3767720Y5814703D01*
X3771213Y5797145D01*
X3781159Y5782260D01*
X3796044Y5772314D01*
X3813602Y5768821D01*
X3928602D01*
X3946160Y5772314D01*
X3961045Y5782260D01*
X3970991Y5797145D01*
X3974484Y5814703D01*
X3970991Y5832261D01*
X3961045Y5847146D01*
X3946160Y5857092D01*
X3928602Y5860584D01*
X3906788D01*
Y5896703D01*
X3904071Y5910360D01*
X3896336Y5921937D01*
X3843602Y5974670D01*
Y6046503D01*
X3843602Y6059202D01*
X3843603D01*
Y6059204D01*
X3843602D01*
Y6088517D01*
X3903603D01*
Y6034203D01*
X4063602D01*
Y6214203D01*
D02*
G37*
G36*
X5195001Y6420883D02*
X5177443Y6417390D01*
X5162558Y6407444D01*
X5152612Y6392559D01*
X5149120Y6375001D01*
X5150751Y6366799D01*
X4955578Y6171626D01*
X4950053Y6163357D01*
X4948113Y6153602D01*
Y6089203D01*
X4903602D01*
Y5959203D01*
X5043602D01*
Y6089203D01*
X4999092D01*
Y6143044D01*
X5186799Y6330751D01*
X5195001Y6329120D01*
X5212559Y6332612D01*
X5227444Y6342558D01*
X5237390Y6357443D01*
X5240883Y6375001D01*
X5237390Y6392559D01*
X5227444Y6407444D01*
X5212559Y6417390D01*
X5195001Y6420883D01*
D02*
G37*
G36*
X8800001Y6705993D02*
X8759815Y6702035D01*
X8721172Y6690313D01*
X8685559Y6671277D01*
X8654343Y6645659D01*
X8628726Y6614444D01*
X8609690Y6578831D01*
X8597968Y6540188D01*
X8594010Y6500001D01*
X8597968Y6459814D01*
X8609690Y6421172D01*
X8628726Y6385558D01*
X8654343Y6354343D01*
X8685559Y6328725D01*
X8721172Y6309690D01*
X8759815Y6297968D01*
X8800001Y6294010D01*
X8840188Y6297968D01*
X8878831Y6309690D01*
X8914444Y6328725D01*
X8945660Y6354343D01*
X8971277Y6385558D01*
X8990313Y6421172D01*
X9002035Y6459814D01*
X9005993Y6500001D01*
X9002035Y6540188D01*
X8990313Y6578831D01*
X8971277Y6614444D01*
X8945660Y6645659D01*
X8914444Y6671277D01*
X8878831Y6690313D01*
X8840188Y6702035D01*
X8800001Y6705993D01*
D02*
G37*
G36*
X3590903Y6199603D02*
X3523203D01*
Y6136902D01*
X3590903D01*
Y6199603D01*
D02*
G37*
G36*
X835302Y6210089D02*
Y6070903D01*
X974489D01*
X972797Y6088079D01*
X964083Y6116806D01*
X949931Y6143281D01*
X930887Y6166487D01*
X907681Y6185532D01*
X881205Y6199683D01*
X852478Y6208398D01*
X835302Y6210089D01*
D02*
G37*
G36*
X4745001Y6325883D02*
X4629641D01*
X4612082Y6322390D01*
X4597198Y6312445D01*
X4571276Y6286523D01*
X4504562D01*
Y6154923D01*
X4636162D01*
Y6221637D01*
X4648646Y6234120D01*
X4745001D01*
X4762559Y6237612D01*
X4777445Y6247558D01*
X4787390Y6262443D01*
X4790883Y6280001D01*
X4787390Y6297559D01*
X4777445Y6312445D01*
X4762559Y6322390D01*
X4745001Y6325883D01*
D02*
G37*
G36*
X3684002Y6199603D02*
X3616303D01*
Y6136902D01*
X3684002D01*
Y6199603D01*
D02*
G37*
G36*
X1573602Y5894203D02*
X1413602D01*
Y5714203D01*
X1573602D01*
Y5768517D01*
X1613602D01*
Y5749203D01*
X1743602D01*
Y5768517D01*
X1763602D01*
Y5737087D01*
X1754002Y5729603D01*
X1750902Y5729603D01*
X1691306D01*
Y5661904D01*
X1754002D01*
Y5696719D01*
X1763602Y5704203D01*
X1766702Y5704203D01*
X1923602D01*
Y5884203D01*
X1763602D01*
Y5839888D01*
X1743602D01*
Y5889203D01*
X1613602D01*
Y5839888D01*
X1573602D01*
Y5894203D01*
D02*
G37*
G36*
X1665906Y5729603D02*
X1603202D01*
Y5661904D01*
X1665906D01*
Y5729603D01*
D02*
G37*
G36*
X5713602Y5819203D02*
X5573603D01*
Y5689204D01*
X5573602Y5689203D01*
X5573602D01*
X5567893Y5678940D01*
X5533204Y5644251D01*
X5525001Y5645883D01*
X5507443Y5642390D01*
X5492558Y5632444D01*
X5482612Y5617559D01*
X5479120Y5600001D01*
X5482612Y5582443D01*
X5492558Y5567558D01*
X5507443Y5557612D01*
X5525001Y5554120D01*
X5542559Y5557612D01*
X5557445Y5567558D01*
X5567390Y5582443D01*
X5570883Y5600001D01*
X5569251Y5608204D01*
X5650251Y5689203D01*
X5713602D01*
Y5819203D01*
D02*
G37*
G36*
X4598602Y5839203D02*
X4418603D01*
Y5679203D01*
X4598602D01*
Y5723517D01*
X4653603D01*
Y5689203D01*
X4793602D01*
Y5819203D01*
X4653603D01*
Y5794889D01*
X4598602D01*
Y5839203D01*
D02*
G37*
G36*
X1095905Y5719603D02*
X1033202D01*
Y5651903D01*
X1095905D01*
Y5719603D01*
D02*
G37*
G36*
X3928602Y5733584D02*
X3813602D01*
X3796044Y5730092D01*
X3781159Y5720146D01*
X3771213Y5705261D01*
X3767720Y5687703D01*
X3771213Y5670145D01*
X3781159Y5655260D01*
X3796044Y5645314D01*
X3813602Y5641821D01*
X3928602D01*
X3946160Y5645314D01*
X3961045Y5655260D01*
X3970991Y5670145D01*
X3974484Y5687703D01*
X3970991Y5705261D01*
X3961045Y5720146D01*
X3946160Y5730092D01*
X3928602Y5733584D01*
D02*
G37*
G36*
X2205906Y5729603D02*
X2143202D01*
Y5661904D01*
X2205906D01*
Y5729603D01*
D02*
G37*
G36*
X1184002Y5719603D02*
X1121305D01*
Y5651903D01*
X1184002D01*
Y5719603D01*
D02*
G37*
G36*
X3403602Y5733584D02*
X3288602D01*
X3271044Y5730092D01*
X3261012Y5723389D01*
X3153602D01*
Y5729203D01*
X3013602D01*
Y5599203D01*
X3153602D01*
Y5652017D01*
X3261012D01*
X3271044Y5645314D01*
X3288602Y5641821D01*
X3403602D01*
X3421160Y5645314D01*
X3436045Y5655260D01*
X3445991Y5670145D01*
X3449484Y5687703D01*
X3445991Y5705261D01*
X3436045Y5720146D01*
X3421160Y5730092D01*
X3403602Y5733584D01*
D02*
G37*
G36*
X301902Y6045503D02*
X162716D01*
X164407Y6028327D01*
X173122Y5999600D01*
X187273Y5973124D01*
X206318Y5949918D01*
X229524Y5930874D01*
X255999Y5916722D01*
X284726Y5908008D01*
X301902Y5906316D01*
Y6045503D01*
D02*
G37*
G36*
X1245000Y6060000D02*
X1155000D01*
Y5980468D01*
X1083369Y5908836D01*
X1075633Y5897259D01*
X1072917Y5883603D01*
Y5879203D01*
X1043602D01*
Y5839888D01*
X707129D01*
X706947Y5841272D01*
X692639Y5875816D01*
X669878Y5905478D01*
X640215Y5928240D01*
X605672Y5942548D01*
X568602Y5947428D01*
X531533Y5942548D01*
X496990Y5928240D01*
X467326Y5905478D01*
X444565Y5875816D01*
X430257Y5841272D01*
X425377Y5804203D01*
X430257Y5767133D01*
X444565Y5732590D01*
X467326Y5702927D01*
X496990Y5680166D01*
X531533Y5665858D01*
X568602Y5660978D01*
X605672Y5665858D01*
X640215Y5680166D01*
X669878Y5702927D01*
X692639Y5732590D01*
X706947Y5767133D01*
X707129Y5768517D01*
X1043602D01*
Y5739203D01*
X1173602D01*
Y5879202D01*
X1173602Y5879203D01*
X1173603D01*
X1173602Y5879203D01*
X1178195Y5890000D01*
X1223602D01*
Y5714203D01*
X1383602D01*
Y5894203D01*
X1330459D01*
X1328836Y5896632D01*
X1245000Y5980468D01*
Y6060000D01*
D02*
G37*
G36*
X809902Y6045503D02*
X670716D01*
X672407Y6028327D01*
X681122Y5999600D01*
X695273Y5973124D01*
X714318Y5949918D01*
X737524Y5930874D01*
X763999Y5916722D01*
X792726Y5908008D01*
X809902Y5906316D01*
Y6045503D01*
D02*
G37*
G36*
X466489D02*
X327302D01*
Y5906316D01*
X344478Y5908008D01*
X373205Y5916722D01*
X399681Y5930874D01*
X422887Y5949918D01*
X441931Y5973124D01*
X456083Y5999600D01*
X464797Y6028327D01*
X466489Y6045503D01*
D02*
G37*
G36*
X5163602Y5819203D02*
X5023603D01*
Y5789889D01*
X4963602D01*
Y5819203D01*
X4823602D01*
Y5689203D01*
X4963602D01*
Y5718517D01*
X5023603D01*
Y5689203D01*
X5057917D01*
Y5639203D01*
X5023603D01*
Y5509203D01*
X5163602D01*
Y5639203D01*
X5129288D01*
Y5689203D01*
X5163602D01*
Y5819203D01*
D02*
G37*
G36*
X3143602Y5879203D02*
X3003602D01*
Y5749203D01*
X3143602D01*
Y5778517D01*
X3261760D01*
X3271044Y5772314D01*
X3288602Y5768821D01*
X3403602D01*
X3421160Y5772314D01*
X3436045Y5782260D01*
X3445991Y5797145D01*
X3449484Y5814703D01*
X3445991Y5832261D01*
X3436045Y5847146D01*
X3421160Y5857092D01*
X3403602Y5860584D01*
X3288602D01*
X3271044Y5857092D01*
X3260263Y5849889D01*
X3143602D01*
Y5879203D01*
D02*
G37*
G36*
X2293602Y5894203D02*
X2283602Y5889203D01*
X2153602D01*
Y5829889D01*
X2113602D01*
Y5884203D01*
X1953602D01*
Y5704203D01*
X2113602D01*
Y5758517D01*
X2153602D01*
Y5749203D01*
X2283602D01*
X2293602Y5742685D01*
Y5729603D01*
X2231306D01*
Y5661904D01*
X2294002D01*
Y5714203D01*
X2453602D01*
Y5894203D01*
X2293602D01*
Y5894203D01*
D02*
G37*
G36*
X5543602Y5819203D02*
X5403603D01*
Y5789889D01*
X5333602D01*
Y5819203D01*
X5193603D01*
Y5689203D01*
X5333602D01*
Y5718517D01*
X5403603D01*
Y5689203D01*
X5543602D01*
Y5819203D01*
D02*
G37*
G36*
X4023602Y5099203D02*
X3883602D01*
Y4969203D01*
X4023602D01*
Y4983223D01*
X7289684D01*
X7494022Y4778885D01*
Y4369999D01*
X7497902Y4350490D01*
X7508953Y4333951D01*
X7525492Y4322900D01*
X7545001Y4319019D01*
X7556253Y4321257D01*
X7620756Y4256755D01*
X7619412Y4250000D01*
X7621741Y4238295D01*
X7624430Y4234270D01*
X7627320Y4225000D01*
X7624430Y4215730D01*
X7621741Y4211705D01*
X7621078Y4208376D01*
X7617220Y4206777D01*
X7603642Y4196358D01*
X7593223Y4182780D01*
X7586673Y4166969D01*
X7584439Y4150000D01*
X7586673Y4133032D01*
X7593223Y4117220D01*
X7603642Y4103642D01*
X7617220Y4093223D01*
X7629943Y4087953D01*
X7632342Y4078727D01*
X7631933Y4074008D01*
X7628371Y4071629D01*
X7621741Y4061705D01*
X7619412Y4050000D01*
X7621741Y4038295D01*
X7628371Y4028371D01*
X7638295Y4021741D01*
X7650000Y4019412D01*
X7680000D01*
X7691705Y4021741D01*
X7701629Y4028371D01*
X7708259Y4038295D01*
X7710588Y4050000D01*
X7708259Y4061705D01*
X7701629Y4071629D01*
X7704156Y4084761D01*
X7706290Y4087805D01*
X7790000D01*
Y4075000D01*
X8029429D01*
X8035001Y4074267D01*
X8730128D01*
X8737118Y4061188D01*
X8759237Y4034237D01*
X8786189Y4012118D01*
X8816938Y3995682D01*
X8850302Y3985561D01*
X8885000Y3982144D01*
X8919698Y3985561D01*
X8953063Y3995682D01*
X8983812Y4012118D01*
X9010764Y4034237D01*
X9032882Y4061188D01*
X9049318Y4091937D01*
X9059439Y4125302D01*
X9062857Y4160000D01*
X9059439Y4194698D01*
X9049318Y4228063D01*
X9032882Y4258812D01*
X9010764Y4285764D01*
X8983812Y4307882D01*
X8953063Y4324318D01*
X8919698Y4334439D01*
X8885000Y4337856D01*
X8850302Y4334439D01*
X8816938Y4324318D01*
X8786189Y4307882D01*
X8759237Y4285764D01*
X8737118Y4258812D01*
X8730128Y4245733D01*
X8035001D01*
X8029429Y4245000D01*
X7805450D01*
X7800190Y4257700D01*
X7822490Y4280000D01*
X7920000D01*
Y4333491D01*
X8030000D01*
Y4290000D01*
X8160000D01*
Y4430000D01*
X8030000D01*
Y4386509D01*
X7920000D01*
Y4420000D01*
X7790000D01*
Y4322490D01*
X7722537Y4255027D01*
X7708756Y4259207D01*
X7708259Y4261705D01*
X7701629Y4271629D01*
X7691705Y4278259D01*
X7680000Y4280588D01*
X7671902D01*
X7593743Y4358747D01*
X7595981Y4369999D01*
Y4800001D01*
X7592100Y4819510D01*
X7581049Y4836049D01*
X7346335Y5070764D01*
X7329796Y5081815D01*
X7310287Y5085695D01*
X7307709Y5085182D01*
X4023602D01*
Y5099203D01*
D02*
G37*
G36*
X5524796Y4045400D02*
X5424600D01*
Y4002700D01*
X5524796D01*
Y4045400D01*
D02*
G37*
G36*
X3555000Y4175000D02*
X3415000D01*
Y4135490D01*
X3257887D01*
X3247559Y4142390D01*
X3230001Y4145883D01*
X3212443Y4142390D01*
X3197558Y4132444D01*
X3187612Y4117559D01*
X3184120Y4100001D01*
X3187612Y4082443D01*
X3197558Y4067558D01*
X3212443Y4057612D01*
X3230001Y4054120D01*
X3247559Y4057612D01*
X3262445Y4067558D01*
X3272390Y4082443D01*
X3272802Y4084510D01*
X3406020D01*
X3415000Y4075530D01*
X3415000Y4045000D01*
X3415000Y4032300D01*
Y4005490D01*
X3265000D01*
X3255246Y4003549D01*
X3246976Y3998024D01*
X3213204Y3964251D01*
X3205001Y3965883D01*
X3187443Y3962390D01*
X3172558Y3952444D01*
X3162612Y3937559D01*
X3159120Y3920001D01*
X3162612Y3902443D01*
X3172558Y3887558D01*
X3187443Y3877612D01*
X3205001Y3874120D01*
X3222559Y3877612D01*
X3237445Y3887558D01*
X3247391Y3902443D01*
X3250883Y3920001D01*
X3249252Y3928203D01*
X3275558Y3954510D01*
X3415000D01*
Y3915000D01*
X3555000D01*
Y4032300D01*
X3555000Y4045000D01*
X3555000Y4057700D01*
Y4175000D01*
D02*
G37*
G36*
X2760400Y4035400D02*
X2712702D01*
Y3977701D01*
X2760400D01*
Y4035400D01*
D02*
G37*
G36*
X5524796Y3977300D02*
X5424600D01*
Y3934600D01*
X5524796D01*
Y3977300D01*
D02*
G37*
G36*
X5650400D02*
X5550196D01*
Y3934600D01*
X5650400D01*
Y3977300D01*
D02*
G37*
G36*
X2687302Y4035400D02*
X2639600D01*
Y3977701D01*
X2687302D01*
Y4035400D01*
D02*
G37*
G36*
X5487299Y4217299D02*
X5424600D01*
Y4174600D01*
X5487299D01*
Y4217299D01*
D02*
G37*
G36*
X5825400Y4285400D02*
X5762701D01*
Y4242699D01*
X5825400D01*
Y4285400D01*
D02*
G37*
G36*
X2839080Y4516161D02*
X2726050D01*
Y4428530D01*
X2839080D01*
Y4516161D01*
D02*
G37*
G36*
X2977510D02*
X2864480D01*
Y4428530D01*
X2977510D01*
Y4516161D01*
D02*
G37*
G36*
X5575400Y4285400D02*
X5512699D01*
Y4242699D01*
X5575400D01*
Y4285400D01*
D02*
G37*
G36*
Y4217299D02*
X5512699D01*
Y4174600D01*
X5575400D01*
Y4217299D01*
D02*
G37*
G36*
X5737301Y4285400D02*
X5674600D01*
Y4242699D01*
X5737301D01*
Y4285400D01*
D02*
G37*
G36*
X5487299D02*
X5424600D01*
Y4242699D01*
X5487299D01*
Y4285400D01*
D02*
G37*
G36*
X7107300Y3632300D02*
X7059600D01*
Y3574600D01*
X7107300D01*
Y3632300D01*
D02*
G37*
G36*
X5562301Y3667301D02*
X5494600D01*
Y3604600D01*
X5562301D01*
Y3667301D01*
D02*
G37*
G36*
X5655400D02*
X5587701D01*
Y3604600D01*
X5655400D01*
Y3667301D01*
D02*
G37*
G36*
X4412299Y3610400D02*
X4354600D01*
Y3562702D01*
X4412299D01*
Y3610400D01*
D02*
G37*
G36*
X7435400Y3612300D02*
X7372698D01*
Y3544600D01*
X7435400D01*
Y3612300D01*
D02*
G37*
G36*
X4960902Y3599603D02*
X4903202D01*
Y3551903D01*
X4960902D01*
Y3599603D01*
D02*
G37*
G36*
X5782301Y3610400D02*
X5724600D01*
Y3562699D01*
X5782301D01*
Y3610400D01*
D02*
G37*
G36*
X5390001Y3850883D02*
X5372443Y3847390D01*
X5357558Y3837444D01*
X5347612Y3822559D01*
X5344120Y3805001D01*
X5347612Y3787443D01*
X5357558Y3772558D01*
X5365564Y3767209D01*
Y3745000D01*
X5335000D01*
Y3624203D01*
X5200000D01*
Y3782250D01*
X5000000D01*
Y3599603D01*
X4986302D01*
Y3539203D01*
Y3478803D01*
X5008602D01*
Y3415735D01*
X4775001D01*
X4752812Y3412813D01*
X4732135Y3404248D01*
X4714379Y3390624D01*
Y3339379D01*
X4700001Y3325001D01*
X4693255D01*
X4686955Y3354764D01*
X4663605D01*
X4646637Y3352531D01*
X4630825Y3345981D01*
X4617247Y3335562D01*
X4606828Y3321984D01*
X4600279Y3306172D01*
X4598045Y3289204D01*
X4600279Y3272235D01*
X4606828Y3256424D01*
X4617247Y3242845D01*
X4630825Y3232427D01*
X4646637Y3225877D01*
X4663605Y3223643D01*
X4693605D01*
X4710574Y3225877D01*
X4715768Y3228028D01*
X4734204D01*
X4753229Y3231813D01*
Y3255001D01*
X4764216D01*
X4774950Y3244268D01*
X4774958Y3244273D01*
X4775001Y3244268D01*
X4946515D01*
X4954120Y3235001D01*
X4957612Y3217443D01*
X4967558Y3202558D01*
X4975423Y3197303D01*
X4971571Y3184603D01*
X4893202D01*
Y3121904D01*
X4973602D01*
Y3096504D01*
X4893202D01*
Y3033803D01*
X4943202D01*
Y3001902D01*
X5013604D01*
Y2976502D01*
X4943202D01*
Y2943980D01*
X4940579Y2942227D01*
X4920578Y2922227D01*
X4915217Y2914203D01*
X4873602D01*
Y2774203D01*
X5003602D01*
Y2898714D01*
X5023602D01*
Y2774203D01*
X5131144D01*
X5133601Y2773715D01*
X5145970D01*
X5150859Y2768639D01*
X5151630Y2767248D01*
X5145142Y2754603D01*
X5101300D01*
Y2674203D01*
Y2593803D01*
X5160414D01*
X5164002Y2593803D01*
X5173114Y2585140D01*
Y2560001D01*
X5085002D01*
Y2430002D01*
X5218114D01*
Y2410001D01*
X5085002D01*
Y2280002D01*
X5225001D01*
Y2321761D01*
X5232313Y2327188D01*
X5244601Y2321585D01*
Y2272702D01*
X5320001D01*
Y2260002D01*
X5332701D01*
Y2179602D01*
X5373202D01*
Y2156903D01*
X5448602D01*
Y2144203D01*
X5461302D01*
Y2063803D01*
X5514795D01*
X5520055Y2051103D01*
X5508710Y2039758D01*
X5506977Y2038600D01*
X5497671Y2029294D01*
X4806593D01*
Y2060707D01*
X4804653Y2070461D01*
X4799127Y2078731D01*
X4749129Y2128729D01*
X4740859Y2134255D01*
X4731105Y2136195D01*
X4121105D01*
X4111351Y2134255D01*
X4103081Y2128729D01*
X4038081Y2063729D01*
X4032556Y2055460D01*
X4030615Y2045705D01*
Y1971264D01*
X3980546Y1921194D01*
X3881103D01*
Y1960704D01*
X3741104D01*
Y1833404D01*
X3741104Y1830704D01*
X3734586Y1820704D01*
X3731104D01*
Y1690704D01*
X3775614D01*
Y1618971D01*
X3777554Y1609217D01*
X3783080Y1600948D01*
X3906347Y1477680D01*
X3911104Y1474502D01*
Y1430704D01*
X4051104D01*
Y1560704D01*
X3911104D01*
Y1560704D01*
X3900013Y1556110D01*
X3826593Y1629529D01*
Y1690704D01*
X3871103D01*
Y1723714D01*
X3902904D01*
Y1698404D01*
X3979106D01*
X4055304D01*
Y1726344D01*
X4044904D01*
Y1779444D01*
X3913304D01*
Y1774694D01*
X3871103D01*
Y1818004D01*
X3871104Y1820704D01*
X3877621Y1830704D01*
X3881103D01*
Y1870214D01*
X3991104D01*
X4000858Y1872155D01*
X4009127Y1877680D01*
X4074129Y1942682D01*
X4079654Y1950951D01*
X4081595Y1960706D01*
Y2035147D01*
X4131663Y2085216D01*
X4174600D01*
Y2032699D01*
X4255001D01*
Y2007299D01*
X4174600D01*
Y1955400D01*
X4164600D01*
Y1892700D01*
X4245000D01*
X4325400D01*
Y1934758D01*
X4330944Y1940215D01*
X4333985Y1941184D01*
X4345000Y1932965D01*
Y1815000D01*
X4395614D01*
Y1746262D01*
X4360546Y1711194D01*
X4308385D01*
X4298904Y1718964D01*
X4298904Y1728644D01*
Y1779444D01*
X4167304D01*
Y1774694D01*
X4139603D01*
X4129849Y1772753D01*
X4121579Y1767228D01*
X4093081Y1738729D01*
X4087555Y1730460D01*
X4085615Y1720705D01*
Y1666264D01*
X4068004Y1648652D01*
X4055304Y1650007D01*
Y1673004D01*
X3979106D01*
X3902904D01*
Y1645064D01*
X3913304D01*
Y1591964D01*
X4044904D01*
Y1596714D01*
X4067045D01*
X4091322Y1572437D01*
X4086462Y1560704D01*
X4081104D01*
Y1430704D01*
X4221104D01*
Y1560704D01*
X4173152D01*
X4169128Y1566728D01*
X4120001Y1615854D01*
Y1628554D01*
X4129129Y1637682D01*
X4134654Y1645951D01*
X4136594Y1655705D01*
Y1710147D01*
X4150162Y1723714D01*
X4157822D01*
X4167303Y1715944D01*
X4167304Y1706264D01*
X4167303Y1655464D01*
X4167304Y1642764D01*
Y1591964D01*
X4298904D01*
Y1594165D01*
X4371104D01*
Y1508454D01*
X4501104D01*
Y1569186D01*
X4511104Y1575704D01*
X4671103D01*
Y1733515D01*
X4680002Y1744120D01*
X4688403Y1745791D01*
X4701103Y1735869D01*
Y1575704D01*
X4861103D01*
Y1746144D01*
X4861103Y1746597D01*
X4862834Y1747522D01*
X4873803Y1753385D01*
X4882443Y1747612D01*
X4900001Y1744120D01*
X4908204Y1745751D01*
X4980000Y1673954D01*
Y1565000D01*
X5045506D01*
X5046451Y1560248D01*
X5051976Y1551979D01*
X5139512Y1464443D01*
Y1444499D01*
X5126812Y1439239D01*
X5118027Y1448024D01*
X5109757Y1453549D01*
X5100003Y1455490D01*
X5055000D01*
Y1495000D01*
X4915000D01*
Y1394363D01*
X4902300Y1389103D01*
X4885000Y1406403D01*
Y1495000D01*
X4745000D01*
Y1489030D01*
X4732300Y1485178D01*
X4727444Y1492445D01*
X4712559Y1502390D01*
X4695001Y1505883D01*
X4677443Y1502390D01*
X4662558Y1492445D01*
X4652612Y1477559D01*
X4649120Y1460001D01*
X4652612Y1442443D01*
X4662558Y1427558D01*
X4669921Y1422639D01*
Y1407364D01*
X4662558Y1402444D01*
X4652612Y1387559D01*
X4649120Y1370001D01*
X4652612Y1352443D01*
X4662558Y1337558D01*
X4668198Y1333790D01*
X4669097Y1329271D01*
X4675175Y1320175D01*
X4715176Y1280174D01*
X4724273Y1274096D01*
X4735003Y1271961D01*
X4745000D01*
Y1235000D01*
X4745000D01*
X4745000Y1222300D01*
Y1105000D01*
X4885000D01*
Y1193597D01*
X4902300Y1210897D01*
X4915000Y1205636D01*
Y1105000D01*
X5054999D01*
X5055000Y1105000D01*
Y1105000D01*
X5065034Y1098918D01*
X5120763Y1043189D01*
X5115502Y1030489D01*
X4455000D01*
X4445245Y1028549D01*
X4436976Y1023024D01*
X4395391Y981439D01*
X4373000Y984387D01*
X4349192Y981253D01*
X4327007Y972063D01*
X4307955Y957445D01*
X4293337Y938394D01*
X4284147Y916208D01*
X4281013Y892400D01*
Y841600D01*
X4284147Y817792D01*
X4293337Y795606D01*
X4307955Y776555D01*
X4327007Y761937D01*
X4349192Y752748D01*
X4373000Y749613D01*
X4396808Y752748D01*
X4418993Y761937D01*
X4438044Y776555D01*
X4452663Y795606D01*
X4461852Y817792D01*
X4464987Y841600D01*
Y892400D01*
X4461852Y916208D01*
X4452663Y938394D01*
X4440410Y954362D01*
X4465558Y979510D01*
X4569850D01*
X4574161Y966810D01*
X4561955Y957445D01*
X4547337Y938394D01*
X4538147Y916208D01*
X4535013Y892400D01*
Y841600D01*
X4538147Y817792D01*
X4547337Y795606D01*
X4561955Y776555D01*
X4581007Y761937D01*
X4603192Y752748D01*
X4627000Y749613D01*
X4650808Y752748D01*
X4672993Y761937D01*
X4692044Y776555D01*
X4706663Y795606D01*
X4715852Y817792D01*
X4718987Y841600D01*
Y892400D01*
X4715852Y916208D01*
X4706663Y938394D01*
X4692044Y957445D01*
X4679839Y966810D01*
X4684150Y979510D01*
X4823850D01*
X4828161Y966810D01*
X4815955Y957445D01*
X4801337Y938394D01*
X4792147Y916208D01*
X4789013Y892400D01*
Y841600D01*
X4792147Y817792D01*
X4801337Y795606D01*
X4815955Y776555D01*
X4835007Y761937D01*
X4857192Y752748D01*
X4881000Y749613D01*
X4904808Y752748D01*
X4926993Y761937D01*
X4946044Y776555D01*
X4960663Y795606D01*
X4969852Y817792D01*
X4972987Y841600D01*
Y892400D01*
X4969852Y916208D01*
X4960663Y938394D01*
X4946044Y957445D01*
X4933839Y966810D01*
X4938150Y979510D01*
X5163678D01*
X5170635Y967698D01*
X5282498D01*
X5393666D01*
X5393056Y970763D01*
X5384127Y984127D01*
X5379292Y987357D01*
X5383259Y993294D01*
X5385588Y1005000D01*
X5383259Y1016705D01*
X5380570Y1020730D01*
X5377680Y1030000D01*
X5380570Y1039269D01*
X5383259Y1043295D01*
X5385588Y1055000D01*
X5383259Y1066705D01*
X5376629Y1076629D01*
Y1083371D01*
X5383259Y1093294D01*
X5385588Y1105000D01*
X5383259Y1116705D01*
X5376629Y1126628D01*
Y1133371D01*
X5383259Y1143294D01*
X5385588Y1155000D01*
X5383259Y1166705D01*
X5380570Y1170730D01*
X5377680Y1180000D01*
X5380570Y1189269D01*
X5383259Y1193295D01*
X5385588Y1205000D01*
X5383259Y1216705D01*
X5376629Y1226628D01*
Y1233371D01*
X5383259Y1243294D01*
X5385588Y1255000D01*
X5383259Y1266705D01*
X5380570Y1270730D01*
X5377680Y1280000D01*
X5380570Y1289269D01*
X5383259Y1293295D01*
X5385588Y1305000D01*
X5383259Y1316705D01*
X5376629Y1326629D01*
Y1333371D01*
X5383259Y1343294D01*
X5385588Y1355000D01*
X5383259Y1366705D01*
X5376629Y1376628D01*
Y1383371D01*
X5383259Y1393294D01*
X5385588Y1405000D01*
X5383259Y1416705D01*
X5380570Y1420730D01*
X5377680Y1430000D01*
X5380570Y1439269D01*
X5383259Y1443295D01*
X5385588Y1455000D01*
X5383259Y1466705D01*
X5376629Y1476629D01*
X5366706Y1483259D01*
X5355000Y1485588D01*
X5302389D01*
X5298779Y1494327D01*
X5297932Y1498288D01*
X5307390Y1512443D01*
X5310883Y1530001D01*
X5309849Y1535197D01*
X5329826Y1555174D01*
X5335904Y1564270D01*
X5336050Y1565000D01*
X5375000D01*
X5384412Y1557063D01*
Y1515000D01*
X5386741Y1503294D01*
X5393371Y1493371D01*
X5403295Y1486740D01*
X5415000Y1484412D01*
X5426705Y1486740D01*
X5432643Y1490708D01*
X5435874Y1485873D01*
X5449237Y1476944D01*
X5452301Y1476335D01*
Y1587500D01*
Y1698665D01*
X5449237Y1698056D01*
X5435874Y1689126D01*
X5432643Y1684292D01*
X5426705Y1688259D01*
X5415000Y1690587D01*
X5403295Y1688259D01*
X5393371Y1681629D01*
X5377421Y1680617D01*
X5375000Y1682549D01*
Y1705000D01*
X5245000D01*
Y1570758D01*
X5232558Y1562444D01*
X5222612Y1547559D01*
X5219120Y1530001D01*
X5222612Y1512443D01*
X5232071Y1498288D01*
X5231223Y1494327D01*
X5227614Y1485588D01*
X5210000D01*
X5201664Y1483929D01*
X5188551Y1484756D01*
X5183025Y1493025D01*
X5122784Y1553267D01*
X5127644Y1565000D01*
X5160000D01*
Y1725000D01*
X5001051D01*
X4983751Y1742300D01*
X4989011Y1755000D01*
X5160000D01*
Y1915000D01*
X5095490D01*
Y1978315D01*
X5508229D01*
X5517984Y1980255D01*
X5526253Y1985780D01*
X5541868Y2001395D01*
X5543600Y2002553D01*
X5618267Y2077219D01*
X5630000Y2072359D01*
Y1949567D01*
X5624891Y1948551D01*
X5616622Y1943025D01*
X5596977Y1923380D01*
X5591452Y1915111D01*
X5589512Y1905357D01*
Y1745001D01*
X5591452Y1735247D01*
X5596977Y1726977D01*
X5610675Y1713280D01*
X5606495Y1699499D01*
X5599237Y1698056D01*
X5585874Y1689126D01*
X5582643Y1684292D01*
X5576705Y1688259D01*
X5565000Y1690587D01*
X5553295Y1688259D01*
X5543371Y1681629D01*
X5536629D01*
X5526705Y1688259D01*
X5515000Y1690587D01*
X5503295Y1688259D01*
X5497357Y1684292D01*
X5494127Y1689126D01*
X5480763Y1698056D01*
X5477701Y1698665D01*
Y1587500D01*
Y1473301D01*
X5486962Y1466974D01*
Y1195278D01*
X5472443Y1192390D01*
X5457558Y1182444D01*
X5447612Y1167559D01*
X5444120Y1150001D01*
X5447612Y1132443D01*
X5457558Y1117558D01*
X5472443Y1107612D01*
X5490001Y1104120D01*
X5507559Y1107612D01*
X5516933Y1113875D01*
X5530434Y1108396D01*
X5532612Y1097443D01*
X5542558Y1082558D01*
X5557443Y1072612D01*
X5575001Y1069120D01*
X5592559Y1072612D01*
X5607444Y1082558D01*
X5617390Y1097443D01*
X5620883Y1115001D01*
X5617390Y1132559D01*
X5607444Y1147444D01*
X5593039Y1157070D01*
Y1466974D01*
X5602297Y1473299D01*
Y1587500D01*
X5627697D01*
Y1476334D01*
X5630763Y1476944D01*
X5644127Y1485873D01*
X5647357Y1490708D01*
X5653295Y1486740D01*
X5665000Y1484412D01*
X5676705Y1486740D01*
X5680731Y1489430D01*
X5690000Y1492320D01*
X5699270Y1489430D01*
X5703295Y1486740D01*
X5715000Y1484412D01*
X5726706Y1486740D01*
X5736629Y1493371D01*
X5743372D01*
X5753295Y1486740D01*
X5765000Y1484412D01*
X5776705Y1486740D01*
X5786629Y1493371D01*
X5793371D01*
X5803295Y1486740D01*
X5808573Y1485690D01*
X5810544Y1482448D01*
X5812340Y1471992D01*
X5765175Y1424828D01*
X5759097Y1415731D01*
X5756963Y1405002D01*
Y1342447D01*
X5750001Y1330883D01*
X5732443Y1327390D01*
X5717558Y1317444D01*
X5707612Y1302559D01*
X5704120Y1285001D01*
X5707612Y1267443D01*
X5717558Y1252558D01*
X5732443Y1242612D01*
X5750001Y1239120D01*
X5767559Y1242612D01*
X5782445Y1252558D01*
X5792390Y1267443D01*
X5795883Y1285001D01*
X5794849Y1290197D01*
X5804828Y1300175D01*
X5810906Y1309271D01*
X5813040Y1320001D01*
Y1375605D01*
X5825740Y1376856D01*
X5827612Y1367443D01*
X5837558Y1352558D01*
X5852443Y1342612D01*
X5870001Y1339120D01*
X5873925Y1339900D01*
X5883218Y1330948D01*
X5877612Y1322559D01*
X5874120Y1305001D01*
X5877612Y1287443D01*
X5887558Y1272558D01*
X5902443Y1262612D01*
X5920001Y1259120D01*
X5937559Y1262612D01*
X5952445Y1272558D01*
X5955387Y1276961D01*
X5976974D01*
X5983301Y1267701D01*
X6097501D01*
Y1242301D01*
X5986335D01*
X5986944Y1239237D01*
X5995873Y1225873D01*
X6000708Y1222643D01*
X5996741Y1216705D01*
X5994412Y1205000D01*
X5996741Y1193295D01*
X5999430Y1189269D01*
X6002320Y1180000D01*
X5999430Y1170730D01*
X5996741Y1166705D01*
X5994412Y1155000D01*
X5996741Y1143294D01*
X6003371Y1133371D01*
Y1126628D01*
X5996741Y1116705D01*
X5994412Y1105000D01*
X5996741Y1093294D01*
X6003371Y1083371D01*
Y1076629D01*
X5996741Y1066705D01*
X5994412Y1055000D01*
X5996741Y1043295D01*
X5999430Y1039269D01*
X6002320Y1030000D01*
X5999430Y1020730D01*
X5996741Y1016705D01*
X5994412Y1005000D01*
X5996741Y993294D01*
X6003371Y983371D01*
Y976628D01*
X5996741Y966705D01*
X5994412Y955000D01*
X5996741Y943295D01*
X5999430Y939269D01*
X6002320Y930000D01*
X5999430Y920730D01*
X5996741Y916705D01*
X5994412Y905000D01*
X5996741Y893294D01*
X6003371Y883371D01*
X6013295Y876740D01*
X6025000Y874412D01*
X6081961D01*
Y770652D01*
X6069261Y765391D01*
X6042326Y792326D01*
X6033230Y798404D01*
X6022500Y800538D01*
X5995588D01*
Y845000D01*
X5993260Y856705D01*
X5986629Y866629D01*
X5976706Y873259D01*
X5965000Y875588D01*
X5953295Y873259D01*
X5947357Y869292D01*
X5944127Y874127D01*
X5930763Y883056D01*
X5927698Y883665D01*
Y772500D01*
Y661334D01*
X5930763Y661944D01*
X5944127Y670873D01*
X5947357Y675708D01*
X5953295Y671741D01*
X5965000Y669412D01*
X5976706Y671741D01*
X5986629Y678371D01*
X5993260Y688295D01*
X5995588Y700000D01*
Y744461D01*
X6010886D01*
X6045000Y710348D01*
Y615000D01*
X6175000D01*
Y657956D01*
X6180730Y659096D01*
X6189826Y665174D01*
X6214806Y690153D01*
X6220001Y689120D01*
X6237559Y692612D01*
X6252444Y702558D01*
X6262390Y717443D01*
X6263838Y724722D01*
X6277301Y727304D01*
X6277994Y726451D01*
Y487693D01*
X6216909Y426608D01*
X6194790D01*
X6185400Y434600D01*
X6185400Y439309D01*
Y502300D01*
X6109996D01*
X6034600D01*
Y439309D01*
X6034600Y434600D01*
X6025210Y426608D01*
X6014790D01*
X6005400Y434600D01*
X6005400Y439309D01*
Y497301D01*
X5925001D01*
X5844600D01*
Y439309D01*
X5844600Y434600D01*
X5835210Y426608D01*
X5731371D01*
X5726927Y432300D01*
X5733124Y445000D01*
X5825000D01*
Y575000D01*
X5793039D01*
Y663319D01*
X5797078Y666636D01*
X5805739Y671254D01*
X5815000Y669412D01*
X5826705Y671741D01*
X5836629Y678371D01*
X5843372D01*
X5853295Y671741D01*
X5865000Y669412D01*
X5876706Y671741D01*
X5882643Y675708D01*
X5885873Y670873D01*
X5899237Y661944D01*
X5902298Y661335D01*
Y772500D01*
Y886700D01*
X5893039Y893026D01*
Y1005002D01*
X5890904Y1015732D01*
X5884826Y1024829D01*
X5749849Y1159806D01*
X5750883Y1165001D01*
X5747390Y1182559D01*
X5737444Y1197444D01*
X5722559Y1207390D01*
X5705001Y1210883D01*
X5687443Y1207390D01*
X5672558Y1197444D01*
X5662612Y1182559D01*
X5659120Y1165001D01*
X5662612Y1147443D01*
X5672558Y1132558D01*
X5687443Y1122612D01*
X5705001Y1119120D01*
X5710197Y1120153D01*
X5836962Y993388D01*
Y952049D01*
X5824262Y946789D01*
X5779251Y991799D01*
X5780883Y1000001D01*
X5777390Y1017559D01*
X5767444Y1032444D01*
X5752559Y1042390D01*
X5735001Y1045883D01*
X5717443Y1042390D01*
X5702558Y1032444D01*
X5692612Y1017559D01*
X5689120Y1000001D01*
X5692612Y982443D01*
X5702558Y967558D01*
X5717443Y957612D01*
X5715001Y945883D01*
X5697443Y942390D01*
X5682558Y932444D01*
X5671117Y938181D01*
X5657560Y947240D01*
X5640002Y950732D01*
X5622444Y947240D01*
X5607559Y937294D01*
X5597613Y922409D01*
X5594120Y904851D01*
X5597613Y887293D01*
X5593291Y874505D01*
X5583802Y869612D01*
X5580731Y870570D01*
X5576705Y873259D01*
X5565000Y875588D01*
X5553295Y873259D01*
X5543371Y866629D01*
X5536629D01*
X5526705Y873259D01*
X5515000Y875588D01*
X5503295Y873259D01*
X5493372Y866629D01*
X5486629D01*
X5476706Y873259D01*
X5465000Y875588D01*
X5453295Y873259D01*
X5449270Y870570D01*
X5440000Y867680D01*
X5430731Y870570D01*
X5426705Y873259D01*
X5415000Y875588D01*
X5403295Y873259D01*
X5393371Y866629D01*
X5386741Y856705D01*
X5384412Y845000D01*
Y808063D01*
X5371712Y801274D01*
X5362559Y807390D01*
X5345001Y810883D01*
X5337883Y809467D01*
X5335732Y810904D01*
X5325002Y813039D01*
X5315000D01*
Y855000D01*
X5298038D01*
Y874412D01*
X5355000D01*
X5366706Y876740D01*
X5376629Y883371D01*
X5383259Y893294D01*
X5385588Y905000D01*
X5383259Y916705D01*
X5379292Y922643D01*
X5384127Y925873D01*
X5393056Y939237D01*
X5393665Y942298D01*
X5282498D01*
X5171335D01*
X5171944Y939237D01*
X5180874Y925873D01*
X5185708Y922643D01*
X5181741Y916705D01*
X5179413Y905000D01*
X5181741Y893294D01*
X5188371Y883371D01*
X5198295Y876740D01*
X5210000Y874412D01*
X5241961D01*
Y855000D01*
X5185000D01*
Y724821D01*
X5177879Y723405D01*
X5168783Y717327D01*
X5065175Y613719D01*
X5059097Y604623D01*
X5056963Y593893D01*
Y526615D01*
X5018387Y488040D01*
X4912144D01*
X4909618Y500740D01*
X4926993Y507937D01*
X4946044Y522555D01*
X4960663Y541606D01*
X4969852Y563792D01*
X4972987Y587600D01*
Y638400D01*
X4969852Y662208D01*
X4960663Y684394D01*
X4946044Y703445D01*
X4926993Y718063D01*
X4904808Y727253D01*
X4881000Y730387D01*
X4857192Y727253D01*
X4835007Y718063D01*
X4815955Y703445D01*
X4801337Y684394D01*
X4792147Y662208D01*
X4789013Y638400D01*
Y587600D01*
X4792147Y563792D01*
X4801337Y541606D01*
X4815955Y522555D01*
X4835007Y507937D01*
X4852382Y500740D01*
X4849856Y488040D01*
X4658144D01*
X4655618Y500740D01*
X4672993Y507937D01*
X4692044Y522555D01*
X4706663Y541606D01*
X4715852Y563792D01*
X4718987Y587600D01*
Y638400D01*
X4715852Y662208D01*
X4706663Y684394D01*
X4692044Y703445D01*
X4672993Y718063D01*
X4650808Y727253D01*
X4627000Y730387D01*
X4603192Y727253D01*
X4581007Y718063D01*
X4561955Y703445D01*
X4547337Y684394D01*
X4538147Y662208D01*
X4535013Y638400D01*
Y587600D01*
X4538147Y563792D01*
X4547337Y541606D01*
X4561955Y522555D01*
X4581007Y507937D01*
X4598382Y500740D01*
X4595856Y488040D01*
X4471615D01*
X4437987Y521669D01*
X4438044Y522556D01*
X4452663Y541606D01*
X4461852Y563792D01*
X4464987Y587600D01*
Y638400D01*
X4461852Y662208D01*
X4452663Y684394D01*
X4438044Y703445D01*
X4418993Y718063D01*
X4396808Y727253D01*
X4373000Y730387D01*
X4349192Y727253D01*
X4327007Y718063D01*
X4307955Y703445D01*
X4293337Y684394D01*
X4284147Y662208D01*
X4281013Y638400D01*
Y587600D01*
X4284147Y563792D01*
X4293337Y541606D01*
X4307955Y522555D01*
X4327007Y507937D01*
X4349192Y498748D01*
X4373000Y495613D01*
X4383371Y496979D01*
X4427008Y453342D01*
X4422148Y441608D01*
X3448093D01*
X3401609Y488093D01*
Y548393D01*
X3435000D01*
Y490000D01*
X3595000D01*
Y670000D01*
X3435000D01*
Y611607D01*
X3401609D01*
Y1075001D01*
X3399203Y1087097D01*
X3392351Y1097351D01*
X3342201Y1147501D01*
X3354015Y1159316D01*
X3355001Y1159120D01*
X3372559Y1162612D01*
X3387445Y1172558D01*
X3397390Y1187443D01*
X3400883Y1205001D01*
X3397390Y1222559D01*
X3387445Y1237445D01*
X3372559Y1247390D01*
X3355001Y1250883D01*
X3337443Y1247390D01*
X3322558Y1237445D01*
X3312612Y1222559D01*
X3309120Y1205002D01*
X3300153Y1196609D01*
X3293093D01*
X3290639Y1199063D01*
X3280385Y1205915D01*
X3268289Y1208321D01*
X3155751D01*
Y1210764D01*
X3011451D01*
Y1208321D01*
X2301381D01*
X2265590Y1244113D01*
X2262012Y1246503D01*
X2265865Y1259203D01*
X2353602D01*
Y1389203D01*
X2213603D01*
Y1349692D01*
X1891358D01*
X1853749Y1387302D01*
X1854229Y1392177D01*
X1863158Y1405540D01*
X1866294Y1421303D01*
Y1548303D01*
X1863158Y1564066D01*
X1854229Y1577430D01*
X1840866Y1586359D01*
X1825102Y1589494D01*
X1809339Y1586359D01*
X1795976Y1577430D01*
X1787046Y1564066D01*
X1783911Y1548303D01*
Y1510293D01*
X1738846D01*
Y1571163D01*
X1737485Y1578007D01*
X1733608Y1583809D01*
X1727806Y1587685D01*
X1720962Y1589047D01*
X1675242D01*
X1668398Y1587685D01*
X1662597Y1583809D01*
X1658720Y1578007D01*
X1657359Y1571163D01*
Y1398443D01*
X1658720Y1391599D01*
X1662597Y1385797D01*
X1668398Y1381921D01*
X1672613Y1381082D01*
Y1368661D01*
X1649443Y1345491D01*
X1475002D01*
X1465247Y1343551D01*
X1456978Y1338025D01*
X1413645Y1294693D01*
X1328602D01*
Y1349203D01*
X1148602D01*
Y1294693D01*
X1118602D01*
Y1349203D01*
X938602D01*
Y1189203D01*
X1118602D01*
Y1243713D01*
X1148602D01*
Y1189203D01*
X1328602D01*
Y1243713D01*
X1424203D01*
X1433958Y1245654D01*
X1442227Y1251179D01*
X1485560Y1294512D01*
X1660001D01*
X1669756Y1296452D01*
X1678025Y1301978D01*
X1716126Y1340079D01*
X1721652Y1348348D01*
X1723592Y1358102D01*
Y1381082D01*
X1727806Y1381921D01*
X1733608Y1385797D01*
X1737485Y1391599D01*
X1738846Y1398443D01*
Y1459313D01*
X1783911D01*
Y1421303D01*
X1787046Y1405540D01*
X1795976Y1392176D01*
X1799613Y1389746D01*
Y1379900D01*
X1801553Y1370146D01*
X1807078Y1361877D01*
X1862776Y1306179D01*
X1871046Y1300653D01*
X1880800Y1298713D01*
X2204622D01*
X2213603Y1289733D01*
X2213602Y1259203D01*
X2203318Y1253370D01*
X2100752D01*
Y1255813D01*
X1956452D01*
Y1136165D01*
X1946052D01*
Y1104415D01*
X2028606D01*
X2111152D01*
Y1125132D01*
X2185172D01*
X2220963Y1089340D01*
X2231218Y1082488D01*
X2243313Y1080082D01*
X3001051D01*
Y1059366D01*
X3166151D01*
Y1080082D01*
X3220221D01*
X3231044Y1069259D01*
X3229581Y1064437D01*
X3225950Y1056392D01*
X3212558Y1047444D01*
X3202612Y1032559D01*
X3199120Y1015001D01*
X3202612Y997443D01*
X3212558Y982558D01*
X3227443Y972612D01*
X3245001Y969120D01*
X3262559Y972612D01*
X3265694Y974707D01*
X3278394Y967918D01*
Y460001D01*
X3280800Y447906D01*
X3287652Y437652D01*
X3398652Y326652D01*
X3408906Y319800D01*
X3421001Y317394D01*
X5280268D01*
X5292364Y319800D01*
X5302618Y326652D01*
X5338351Y362385D01*
X5345203Y372639D01*
X5347609Y384734D01*
Y412909D01*
X5371009Y436310D01*
X5377547Y437610D01*
X5392432Y447556D01*
X5402378Y462441D01*
X5405871Y479999D01*
X5402378Y497557D01*
X5392432Y512442D01*
X5377547Y522388D01*
X5359989Y525881D01*
X5342431Y522388D01*
X5327546Y512442D01*
X5317600Y497557D01*
X5314108Y479999D01*
X5315964Y470664D01*
X5296084Y450783D01*
X5287444Y442444D01*
X5272559Y452390D01*
X5255001Y455883D01*
X5237443Y452390D01*
X5222558Y442444D01*
X5222000Y441608D01*
X5067854D01*
X5062994Y453342D01*
X5104827Y495175D01*
X5110905Y504271D01*
X5113040Y515001D01*
Y582279D01*
X5162867Y632106D01*
X5173502Y627700D01*
X5249997D01*
X5325400D01*
Y669462D01*
X5377501D01*
X5388231Y671596D01*
X5395870Y676701D01*
X5403295Y671741D01*
X5415000Y669412D01*
X5420693Y670545D01*
X5433393Y662097D01*
Y405002D01*
X5435799Y392907D01*
X5442651Y382653D01*
X5622652Y202652D01*
X5632906Y195800D01*
X5645001Y193394D01*
X6320001D01*
X6332097Y195800D01*
X6342351Y202652D01*
X6507351Y367652D01*
X6514203Y377906D01*
X6516609Y390001D01*
Y436909D01*
X6563494Y483794D01*
X6589739D01*
Y449602D01*
X6721339D01*
Y581202D01*
X6589739D01*
Y547009D01*
X6550401D01*
X6538306Y544603D01*
X6528052Y537751D01*
X6474309Y484008D01*
X6461609Y489269D01*
Y606909D01*
X6498494Y643794D01*
X6589739D01*
Y609602D01*
X6721339D01*
Y741201D01*
X6589739D01*
Y707009D01*
X6485402D01*
X6473306Y704603D01*
X6463052Y697751D01*
X6414308Y649008D01*
X6401608Y654268D01*
Y726909D01*
X6478494Y803794D01*
X6589739D01*
Y769601D01*
X6721339D01*
Y901201D01*
X6589739D01*
Y867009D01*
X6465401D01*
X6453306Y864603D01*
X6443052Y857751D01*
X6353909Y768608D01*
X6341209Y773869D01*
Y871509D01*
X6433494Y963794D01*
X6589739D01*
Y929602D01*
X6721339D01*
Y1061202D01*
X6589739D01*
Y1027009D01*
X6420402D01*
X6408306Y1024603D01*
X6398052Y1017751D01*
X6287252Y906951D01*
X6280400Y896697D01*
X6277994Y884601D01*
Y743552D01*
X6277301Y742699D01*
X6267702Y743603D01*
X6263838Y745280D01*
X6262390Y752559D01*
X6252444Y767444D01*
X6237559Y777390D01*
X6220001Y780883D01*
X6202443Y777390D01*
X6187558Y767444D01*
X6184464Y762813D01*
X6175000Y755000D01*
X6138039D01*
Y874412D01*
X6170000D01*
X6181705Y876740D01*
X6191629Y883371D01*
X6198259Y893294D01*
X6200588Y905000D01*
X6198259Y916705D01*
X6195570Y920730D01*
X6192680Y930000D01*
X6195570Y939269D01*
X6198259Y943295D01*
X6200588Y955000D01*
X6198259Y966705D01*
X6191629Y976628D01*
Y983371D01*
X6198259Y993294D01*
X6200588Y1005000D01*
X6198259Y1016705D01*
X6195570Y1020730D01*
X6192680Y1030000D01*
X6195570Y1039269D01*
X6198259Y1043295D01*
X6200588Y1055000D01*
X6198259Y1066705D01*
X6198189Y1066810D01*
X6204978Y1079510D01*
X6310000D01*
X6319754Y1081450D01*
X6328024Y1086976D01*
X6341049Y1100001D01*
X6440001D01*
X6445000Y1089372D01*
Y1075000D01*
X6675000D01*
Y1225000D01*
X6685831Y1229512D01*
X6755001D01*
X6764756Y1231452D01*
X6773025Y1236977D01*
X6841774Y1305726D01*
X6852500Y1295000D01*
X7007500D01*
X7032010Y1319510D01*
X7075000D01*
Y1275000D01*
X7205000D01*
Y1415000D01*
X7075000D01*
Y1370490D01*
X7045000D01*
Y1407500D01*
X7007500Y1445000D01*
X6852500D01*
X6815000Y1407500D01*
Y1351048D01*
X6744443Y1280491D01*
X6696398D01*
X6685400Y1284600D01*
Y1357300D01*
X6560001D01*
Y1370000D01*
X6547301D01*
Y1455400D01*
X6434600D01*
Y1420401D01*
X6387701D01*
Y1340001D01*
X6362301D01*
Y1420401D01*
X6300491D01*
Y1464443D01*
X6413267Y1577219D01*
X6425000Y1572359D01*
Y1555000D01*
X6565000D01*
Y1685000D01*
X6481518D01*
X6475000Y1695000D01*
Y1825000D01*
X6335000D01*
Y1724652D01*
X6200175Y1589827D01*
X6194097Y1580731D01*
X6191963Y1570001D01*
Y1491680D01*
X6187921Y1488362D01*
X6179262Y1483745D01*
X6170000Y1485588D01*
X6025000D01*
X6013295Y1483259D01*
X6003371Y1476629D01*
X5996741Y1466705D01*
X5994412Y1455000D01*
X5996107Y1446480D01*
X5987890Y1437137D01*
X5977352Y1437303D01*
X5943668Y1470987D01*
X5942932Y1483932D01*
X5944070Y1487267D01*
X5947591Y1489953D01*
X5949270Y1489430D01*
X5953295Y1486740D01*
X5965000Y1484412D01*
X5976706Y1486740D01*
X5986629Y1493371D01*
X5993260Y1503294D01*
X5995588Y1515000D01*
Y1660000D01*
X5993260Y1671705D01*
X5990490Y1675850D01*
Y1719442D01*
X6328024Y2056976D01*
X6333549Y2065246D01*
X6335490Y2075000D01*
Y2190000D01*
X6357500D01*
Y2290000D01*
X6192501D01*
Y2290000D01*
X6187499D01*
Y2290000D01*
X6170046D01*
X6168024Y2293027D01*
X6133025Y2328025D01*
X6124756Y2333551D01*
X6115001Y2335491D01*
X6017200D01*
X6007446Y2333551D01*
X5999176Y2328025D01*
X5966977Y2295826D01*
X5961452Y2287557D01*
X5959512Y2277802D01*
Y1970559D01*
X5939443Y1950491D01*
X5810000D01*
Y2105000D01*
X5709093D01*
Y2234602D01*
X5732303D01*
Y2305002D01*
X5757703D01*
Y2234602D01*
X5794600D01*
Y2217700D01*
X5857297D01*
Y2285400D01*
X5805401D01*
Y2305000D01*
X5935000D01*
Y2401675D01*
X5946733Y2406535D01*
X5971292Y2381976D01*
X5979561Y2376451D01*
X5989316Y2374510D01*
X6022500D01*
Y2350000D01*
X6187499D01*
X6187500Y2350000D01*
X6192501D01*
Y2350000D01*
X6200200Y2350000D01*
X6357500D01*
Y2450000D01*
X6330046D01*
X6328024Y2453027D01*
X6238749Y2542301D01*
X6244009Y2555001D01*
X6258953D01*
X6336977Y2476978D01*
X6345247Y2471452D01*
X6355001Y2469512D01*
X6600001D01*
X6609756Y2471452D01*
X6618025Y2476978D01*
X6658025Y2516978D01*
X6663551Y2525247D01*
X6665491Y2535002D01*
Y2980001D01*
X6663551Y2989756D01*
X6658025Y2998025D01*
X6618025Y3038025D01*
X6609756Y3043551D01*
X6600001Y3045491D01*
X6225001D01*
Y3085001D01*
X6103503D01*
X6098763Y3096095D01*
X6106109Y3105002D01*
X6225001D01*
Y3235001D01*
X6179092D01*
Y3249203D01*
X6228602D01*
Y3379203D01*
X6088602D01*
Y3249203D01*
X6128112D01*
Y3235001D01*
X6085002D01*
Y3156910D01*
X6077014Y3150417D01*
X6065401Y3155455D01*
Y3157302D01*
X5985002D01*
X5904602D01*
Y3094602D01*
X5907518D01*
X5915001Y3085001D01*
Y2995491D01*
X5853852D01*
X5853232Y2995906D01*
X5842502Y2998040D01*
X5802501D01*
X5791771Y2995906D01*
X5782675Y2989828D01*
X5776597Y2980731D01*
X5774463Y2970001D01*
X5776597Y2959271D01*
X5780399Y2953581D01*
X5781819Y2945001D01*
X5780399Y2936422D01*
X5776597Y2930731D01*
X5774463Y2920001D01*
X5776597Y2909271D01*
X5780399Y2903581D01*
X5781819Y2895001D01*
X5780399Y2886421D01*
X5776597Y2880731D01*
X5774463Y2870001D01*
X5776597Y2859271D01*
X5782675Y2850175D01*
Y2839827D01*
X5776597Y2830731D01*
X5774463Y2820001D01*
X5776597Y2809271D01*
X5782675Y2800175D01*
X5780399Y2786421D01*
X5776597Y2780731D01*
X5774463Y2770001D01*
X5776597Y2759271D01*
X5780399Y2753581D01*
X5781819Y2745001D01*
X5780399Y2736422D01*
X5776597Y2730731D01*
X5774463Y2720001D01*
X5776597Y2709271D01*
X5782675Y2700175D01*
Y2689827D01*
X5776597Y2680731D01*
X5774463Y2670001D01*
X5776597Y2659271D01*
X5782675Y2650175D01*
X5791771Y2644097D01*
X5797012Y2643055D01*
Y2566815D01*
X5798952Y2557060D01*
X5804478Y2548791D01*
X5896535Y2456733D01*
X5891675Y2445000D01*
X5805000D01*
X5795001Y2451521D01*
Y2495002D01*
X5770491D01*
Y2561151D01*
X5770906Y2561771D01*
X5773040Y2572501D01*
Y2612502D01*
X5770906Y2623231D01*
X5764828Y2632328D01*
X5755731Y2638406D01*
X5745001Y2640540D01*
X5734271Y2638406D01*
X5725175Y2632328D01*
X5719097Y2623231D01*
X5716963Y2612502D01*
Y2572501D01*
X5719097Y2561771D01*
X5719512Y2561151D01*
Y2527636D01*
X5707764Y2524282D01*
X5706812Y2524469D01*
X5701627Y2532228D01*
X5671101Y2562754D01*
X5673040Y2572501D01*
Y2612502D01*
X5670906Y2623231D01*
X5664828Y2632328D01*
X5655731Y2638406D01*
X5645001Y2640540D01*
X5634271Y2638406D01*
X5628581Y2634604D01*
X5620001Y2633184D01*
X5611422Y2634604D01*
X5605731Y2638406D01*
X5595002Y2640540D01*
X5584272Y2638406D01*
X5578581Y2634604D01*
X5570001Y2633184D01*
X5561422Y2634604D01*
X5555731Y2638406D01*
X5545001Y2640540D01*
X5534271Y2638406D01*
X5525175Y2632328D01*
X5519097Y2623231D01*
X5516963Y2612502D01*
Y2572501D01*
X5519097Y2561771D01*
X5519512Y2561151D01*
Y2532806D01*
X5521452Y2523052D01*
X5526978Y2514783D01*
X5543112Y2498648D01*
Y2484203D01*
X5518602D01*
Y2463214D01*
X5505902Y2457953D01*
X5470491Y2493364D01*
Y2561151D01*
X5470905Y2561771D01*
X5473040Y2572501D01*
Y2612502D01*
X5470905Y2623231D01*
X5464828Y2632328D01*
X5455731Y2638406D01*
X5445001Y2640540D01*
X5434271Y2638406D01*
X5425175Y2632328D01*
X5414827D01*
X5405731Y2638406D01*
X5395001Y2640540D01*
X5384271Y2638406D01*
X5375175Y2632328D01*
X5369097Y2623231D01*
X5366963Y2612502D01*
Y2572501D01*
X5369097Y2561771D01*
X5375175Y2552675D01*
X5384271Y2546597D01*
X5395001Y2544463D01*
X5405731Y2546597D01*
X5406812Y2547319D01*
X5419512Y2540530D01*
Y2482806D01*
X5421452Y2473052D01*
X5426977Y2464782D01*
X5485581Y2406179D01*
X5488468Y2404250D01*
X5489867Y2390272D01*
X5483928Y2384203D01*
X5385001D01*
Y2500001D01*
X5348040D01*
Y2644059D01*
X5348232Y2644097D01*
X5357328Y2650175D01*
X5363406Y2659271D01*
X5365540Y2670001D01*
X5363406Y2680731D01*
X5357328Y2689827D01*
Y2700175D01*
X5363406Y2709271D01*
X5365540Y2720001D01*
X5363406Y2730731D01*
X5357328Y2739828D01*
X5359604Y2753581D01*
X5363406Y2759271D01*
X5365540Y2770001D01*
X5363406Y2780731D01*
X5357328Y2789828D01*
X5348232Y2795906D01*
X5337502Y2798040D01*
X5297501D01*
X5286771Y2795906D01*
X5286151Y2795491D01*
X5269400D01*
X5259646Y2793551D01*
X5251377Y2788025D01*
X5243679Y2780328D01*
X5231975Y2786584D01*
X5234485Y2799204D01*
X5230993Y2816762D01*
X5221047Y2831647D01*
X5220801Y2831812D01*
X5224654Y2844512D01*
X5286151D01*
X5286771Y2844097D01*
X5297501Y2841963D01*
X5337502D01*
X5348232Y2844097D01*
X5357328Y2850175D01*
X5363406Y2859271D01*
X5365540Y2870001D01*
X5363406Y2880731D01*
X5359604Y2886421D01*
X5358184Y2895001D01*
X5359604Y2903581D01*
X5363406Y2909271D01*
X5365540Y2920001D01*
X5363406Y2930731D01*
X5357328Y2939827D01*
X5348232Y2945905D01*
X5337502Y2948040D01*
X5321610D01*
X5313300Y2949693D01*
X5203602D01*
Y2964708D01*
X5208357Y2965654D01*
X5216626Y2971179D01*
X5239959Y2994512D01*
X5286151D01*
X5286771Y2994097D01*
X5297501Y2991963D01*
X5337502D01*
X5348232Y2994097D01*
X5357328Y3000175D01*
X5363406Y3009271D01*
X5365540Y3020001D01*
X5363406Y3030731D01*
X5357328Y3039828D01*
X5348232Y3045906D01*
X5337502Y3048040D01*
X5297501D01*
X5286771Y3045906D01*
X5286151Y3045491D01*
X5264093D01*
Y3058646D01*
X5277459Y3072012D01*
X5368055D01*
X5369097Y3066771D01*
X5375175Y3057675D01*
X5384271Y3051597D01*
X5395001Y3049463D01*
X5405731Y3051597D01*
X5414827Y3057675D01*
X5425175D01*
X5434271Y3051597D01*
X5445001Y3049463D01*
X5455731Y3051597D01*
X5464827Y3057675D01*
X5475175D01*
X5484271Y3051597D01*
X5487582Y3050938D01*
X5499942Y3032441D01*
X5520615Y3018627D01*
X5545001Y3013777D01*
X5569388Y3018627D01*
X5570002Y3019038D01*
X5570615Y3018627D01*
X5595002Y3013777D01*
X5619388Y3018627D01*
X5640061Y3032441D01*
X5653875Y3053115D01*
X5656370Y3065657D01*
X5667152Y3066601D01*
X5669439Y3066260D01*
X5675175Y3057675D01*
X5684271Y3051597D01*
X5695001Y3049463D01*
X5705731Y3051597D01*
X5714828Y3057675D01*
X5720905Y3066771D01*
X5723040Y3077501D01*
Y3117502D01*
X5721465Y3125417D01*
X5750251Y3154203D01*
X5873602D01*
Y3200583D01*
X5873958Y3200653D01*
X5882227Y3206179D01*
X5892868Y3216821D01*
X5904602Y3211960D01*
Y3182702D01*
X5985002D01*
X6065401D01*
Y3245401D01*
X6058602Y3249203D01*
Y3379203D01*
X6022790D01*
X6015597Y3389603D01*
X6016044Y3391903D01*
X6019485Y3409204D01*
X6015993Y3426762D01*
X6006047Y3441647D01*
X5991161Y3451593D01*
X5973603Y3455086D01*
X5956045Y3451593D01*
X5941160Y3441647D01*
X5931214Y3426762D01*
X5927722Y3409204D01*
X5929865Y3398432D01*
X5921519Y3387184D01*
X5919723Y3386305D01*
X5915561Y3386506D01*
X5914092Y3390035D01*
Y3500000D01*
X5985000D01*
Y3600000D01*
X5865400D01*
Y3610400D01*
X5807701D01*
Y3549999D01*
Y3489600D01*
X5863112D01*
Y3474603D01*
X5821302D01*
Y3394203D01*
Y3313803D01*
X5835959D01*
X5842721Y3305563D01*
X5843028Y3304020D01*
X5834971Y3294203D01*
X5743602D01*
Y3219650D01*
X5691208Y3167256D01*
X5679180Y3173188D01*
X5680735Y3185001D01*
Y3272388D01*
X5681041Y3284944D01*
X5681041Y3284944D01*
X5681041Y3284944D01*
X5676673Y3329291D01*
X5663522Y3372646D01*
X5642164Y3412602D01*
X5613423Y3447624D01*
X5578401Y3476366D01*
X5538444Y3497723D01*
X5495089Y3510875D01*
X5453602Y3514961D01*
Y3589203D01*
X5421641D01*
Y3615000D01*
X5475000D01*
Y3745000D01*
X5421641D01*
Y3772021D01*
X5422445Y3772558D01*
X5432390Y3787443D01*
X5435883Y3805001D01*
X5432390Y3822559D01*
X5422445Y3837444D01*
X5407559Y3847390D01*
X5390001Y3850883D01*
D02*
G37*
G36*
X5825400Y4217299D02*
X5750001D01*
X5674600D01*
Y4190000D01*
X5650000D01*
Y4045400D01*
X5550196D01*
Y4002700D01*
X5650400D01*
Y4030000D01*
X5674600D01*
Y4002700D01*
X5750001D01*
X5825400D01*
Y4030000D01*
X5850000D01*
Y4034353D01*
X5985000D01*
Y3960572D01*
X5984267Y3955000D01*
X5985000Y3949428D01*
Y3870000D01*
X6064428D01*
X6070000Y3869267D01*
X6095000D01*
Y3852500D01*
X6285000D01*
Y3877100D01*
X6327300D01*
Y3967500D01*
Y4057900D01*
X6285000D01*
Y4082500D01*
X6155000D01*
Y4190000D01*
X5985000D01*
Y4185647D01*
X5850000D01*
Y4190000D01*
X5825400D01*
Y4217299D01*
D02*
G37*
G36*
X5737301Y3977300D02*
X5674600D01*
Y3934600D01*
X5737301D01*
Y3977300D01*
D02*
G37*
G36*
X5825400D02*
X5762701D01*
Y3934600D01*
X5825400D01*
Y3977300D01*
D02*
G37*
G36*
X4880400Y3832300D02*
X4792700D01*
Y3754600D01*
X4880400D01*
Y3832300D01*
D02*
G37*
G36*
X5562301Y3755400D02*
X5494600D01*
Y3692701D01*
X5562301D01*
Y3755400D01*
D02*
G37*
G36*
X5655400D02*
X5587701D01*
Y3692701D01*
X5655400D01*
Y3755400D01*
D02*
G37*
G36*
X4767300Y3832300D02*
X4679600D01*
Y3754600D01*
X4767300D01*
Y3832300D01*
D02*
G37*
G36*
X1887297Y5155400D02*
X1784600D01*
Y5095400D01*
X1732700D01*
Y5015000D01*
Y4934600D01*
X1795400D01*
Y4944600D01*
X1887297D01*
Y5050000D01*
Y5155400D01*
D02*
G37*
G36*
X3555902Y5206503D02*
X3468202D01*
Y5128803D01*
X3555902D01*
Y5206503D01*
D02*
G37*
G36*
X3669002D02*
X3581302D01*
Y5128803D01*
X3669002D01*
Y5206503D01*
D02*
G37*
G36*
X3125001Y5255883D02*
X3107443Y5252390D01*
X3092558Y5242444D01*
X3082612Y5227560D01*
X3079120Y5210001D01*
X3082612Y5192443D01*
X3084119Y5190189D01*
Y5115000D01*
X3025000D01*
Y5065881D01*
X2967110D01*
Y5081070D01*
X2736450D01*
Y4901210D01*
X2967110D01*
Y4974118D01*
X3025000D01*
Y4925000D01*
X3235000D01*
Y5115000D01*
X3175882D01*
Y5205003D01*
X3172389Y5222561D01*
X3162443Y5237446D01*
X3157445Y5242444D01*
X3142560Y5252390D01*
X3125001Y5255883D01*
D02*
G37*
G36*
X2015400Y5155400D02*
X1912697D01*
Y5062700D01*
X2015400D01*
Y5155400D01*
D02*
G37*
G36*
X3669002Y5309603D02*
X3581302D01*
Y5231903D01*
X3669002D01*
Y5309603D01*
D02*
G37*
G36*
X3555902D02*
X3468202D01*
Y5231903D01*
X3555902D01*
Y5309603D01*
D02*
G37*
G36*
X1182301Y5207300D02*
X1114600D01*
Y5144600D01*
X1182301D01*
Y5207300D01*
D02*
G37*
G36*
X3928602Y5479584D02*
X3813602D01*
X3796044Y5476092D01*
X3781159Y5466146D01*
X3771213Y5451261D01*
X3767720Y5433703D01*
X3771213Y5416145D01*
X3781159Y5401260D01*
X3796044Y5391314D01*
X3813602Y5387821D01*
X3866516D01*
X3907916Y5346421D01*
Y5289203D01*
X3873602D01*
Y5159203D01*
X4013602D01*
Y5289203D01*
X3979288D01*
Y5361203D01*
X3976571Y5374859D01*
X3968836Y5386436D01*
X3960415Y5394857D01*
X3961045Y5401260D01*
X3970991Y5416145D01*
X3974484Y5433703D01*
X3970991Y5451261D01*
X3961045Y5466146D01*
X3946160Y5476092D01*
X3928602Y5479584D01*
D02*
G37*
G36*
X2643602Y5894203D02*
X2483602D01*
Y5714203D01*
X2643602D01*
Y5768517D01*
X2693602D01*
Y5739203D01*
X2820502D01*
X2823602Y5739203D01*
X2833202Y5731719D01*
Y5716687D01*
X2823602Y5709203D01*
X2820502Y5709203D01*
X2693602D01*
Y5569203D01*
X2722917D01*
Y5497400D01*
X2608800D01*
Y5162600D01*
X2791200D01*
Y5374390D01*
X2791572Y5374946D01*
X2794288Y5388602D01*
Y5569203D01*
X2823602D01*
Y5581319D01*
X2833202Y5588803D01*
X2836302Y5588803D01*
X2900901D01*
Y5664201D01*
X2913601D01*
Y5676901D01*
X2994002D01*
Y5739603D01*
X2981085D01*
X2973602Y5749203D01*
X2973602Y5752303D01*
Y5879203D01*
X2833603D01*
Y5879203D01*
X2823602D01*
Y5879203D01*
X2693602D01*
Y5839888D01*
X2643602D01*
Y5894203D01*
D02*
G37*
G36*
X1767900Y5244800D02*
X1700201D01*
Y5182100D01*
X1767900D01*
Y5244800D01*
D02*
G37*
G36*
X3403602Y5479584D02*
X3288602D01*
X3271044Y5476092D01*
X3256159Y5466146D01*
X3246213Y5451261D01*
X3242720Y5433703D01*
X3246213Y5416145D01*
X3256159Y5401260D01*
X3271044Y5391314D01*
X3288602Y5387821D01*
X3310416D01*
Y5299203D01*
X3293602D01*
Y5159203D01*
X3423602D01*
Y5299203D01*
X3381788D01*
Y5387821D01*
X3403602D01*
X3421160Y5391314D01*
X3436045Y5401260D01*
X3445991Y5416145D01*
X3449484Y5433703D01*
X3445991Y5451261D01*
X3436045Y5466146D01*
X3421160Y5476092D01*
X3403602Y5479584D01*
D02*
G37*
G36*
X1275400Y5207300D02*
X1207701D01*
Y5144600D01*
X1275400D01*
Y5207300D01*
D02*
G37*
G36*
X3760904Y5211501D02*
X3693202D01*
Y5148803D01*
X3760904D01*
Y5211501D01*
D02*
G37*
G36*
X3854002D02*
X3786304D01*
Y5148803D01*
X3854002D01*
Y5211501D01*
D02*
G37*
G36*
X3423602Y5129203D02*
X3293602D01*
Y4989203D01*
X3423602D01*
Y5023517D01*
X3478602D01*
Y4949203D01*
X3658602D01*
Y5023517D01*
X3713602D01*
Y4969203D01*
X3853602D01*
Y5099203D01*
X3713602D01*
Y5094888D01*
X3658602D01*
Y5109203D01*
X3478602D01*
Y5094888D01*
X3423602D01*
Y5129203D01*
D02*
G37*
G36*
X3245400Y4727300D02*
X3142700D01*
Y4634600D01*
X3245400D01*
Y4727300D01*
D02*
G37*
G36*
X1365001Y5395883D02*
X1347443Y5392390D01*
X1332558Y5382444D01*
X1322612Y5367559D01*
X1319120Y5350001D01*
X1322612Y5332443D01*
X1324217Y5330042D01*
Y5285000D01*
X1295000D01*
Y5155000D01*
X1435000D01*
Y5191814D01*
X1457500D01*
Y5032500D01*
X1631900D01*
X1637500Y5032500D01*
X1644600Y5022741D01*
Y5012259D01*
X1637500Y5002500D01*
X1631900Y5002500D01*
X1457500D01*
Y4842500D01*
X1617035D01*
X1639769Y4819766D01*
X1651346Y4812031D01*
X1655000Y4811304D01*
Y4775000D01*
X1732323D01*
X1766162Y4741162D01*
X1779393Y4732321D01*
X1795000Y4729216D01*
X1795000Y4729216D01*
Y4675000D01*
X2005000D01*
Y4719216D01*
X2106530D01*
Y4554500D01*
X2337190D01*
Y4694439D01*
X2736450D01*
Y4670070D01*
X2967110D01*
Y4849930D01*
X2736450D01*
Y4825561D01*
X2337190D01*
Y4965500D01*
X2106530D01*
Y4800783D01*
X2005000D01*
Y4865000D01*
X1795000D01*
X1785000Y4871518D01*
Y4915000D01*
X1655000D01*
Y4915000D01*
X1648261Y4912209D01*
X1637500Y4922970D01*
Y4924841D01*
X1644600Y4934600D01*
X1650200Y4934600D01*
X1707300D01*
Y5015000D01*
Y5095400D01*
X1650200D01*
X1644600Y5095400D01*
X1637500Y5105159D01*
Y5182100D01*
X1674801D01*
Y5244800D01*
X1607100D01*
Y5202342D01*
X1600200Y5196995D01*
X1587500Y5203220D01*
Y5322500D01*
X1447500D01*
Y5285483D01*
X1435000Y5285000D01*
Y5285000D01*
X1405784D01*
Y5330038D01*
X1407390Y5332443D01*
X1410883Y5350001D01*
X1407390Y5367559D01*
X1397444Y5382444D01*
X1382559Y5392390D01*
X1365001Y5395883D01*
D02*
G37*
G36*
X3117300Y4845400D02*
X3014600D01*
Y4752700D01*
X3117300D01*
Y4845400D01*
D02*
G37*
G36*
Y4727300D02*
X3014600D01*
Y4634600D01*
X3117300D01*
Y4727300D01*
D02*
G37*
G36*
X7955001Y4769179D02*
X7934509Y4766481D01*
X7915413Y4758571D01*
X7899014Y4745988D01*
X7886432Y4729590D01*
X7878522Y4710494D01*
X7875824Y4690001D01*
X7878522Y4669509D01*
X7886432Y4650413D01*
X7899014Y4634014D01*
X7915413Y4621432D01*
X7934509Y4613522D01*
X7955001Y4610824D01*
X7974163Y4613347D01*
X8030000Y4557510D01*
Y4460000D01*
X8160000D01*
Y4600000D01*
X8062490D01*
X8018581Y4643909D01*
X8023571Y4650413D01*
X8031481Y4669509D01*
X8034179Y4690001D01*
X8031481Y4710494D01*
X8023571Y4729590D01*
X8010988Y4745988D01*
X7994590Y4758571D01*
X7975494Y4766481D01*
X7955001Y4769179D01*
D02*
G37*
G36*
X2839080Y4629190D02*
X2726050D01*
Y4541561D01*
X2839080D01*
Y4629190D01*
D02*
G37*
G36*
X2977510D02*
X2864480D01*
Y4541561D01*
X2977510D01*
Y4629190D01*
D02*
G37*
G36*
X3245400Y4845400D02*
X3142700D01*
Y4752700D01*
X3245400D01*
Y4845400D01*
D02*
G37*
G36*
X573602Y4967059D02*
X538904Y4963642D01*
X505540Y4953521D01*
X474791Y4937085D01*
X447839Y4914967D01*
X425720Y4888015D01*
X409284Y4857266D01*
X399163Y4823901D01*
X395746Y4789203D01*
X399163Y4754505D01*
X409284Y4721140D01*
X425720Y4690391D01*
X447839Y4663439D01*
X474791Y4641321D01*
X505540Y4624885D01*
X538904Y4614764D01*
X573602Y4611347D01*
X608300Y4614764D01*
X641665Y4624885D01*
X672414Y4641321D01*
X699366Y4663439D01*
X721484Y4690391D01*
X728475Y4703470D01*
X1220800D01*
X1227618Y4703250D01*
X1236500Y4703500D01*
Y4703766D01*
X1248736Y4705245D01*
X1299567Y4700238D01*
X1348863Y4685284D01*
X1394296Y4661000D01*
X1434118Y4628319D01*
X1466798Y4588498D01*
X1473656Y4575667D01*
X1485851Y4546226D01*
X1519667Y4485042D01*
X1560120Y4428028D01*
X1606702Y4375903D01*
X1658828Y4329320D01*
X1715842Y4288867D01*
X1777026Y4255051D01*
X1841612Y4228299D01*
X1908787Y4208946D01*
X1977706Y4197236D01*
X2047503Y4193317D01*
X2064418Y4194267D01*
X3655000D01*
X3660572Y4195000D01*
X3779428D01*
X3785000Y4194267D01*
X3873977D01*
X3877503Y4181717D01*
X3871977Y4178025D01*
X3829442Y4135490D01*
X3725000D01*
Y4175000D01*
X3585000D01*
Y4045001D01*
X3585000D01*
Y4044999D01*
X3585000D01*
Y3915000D01*
X3725000D01*
Y3954510D01*
X3849445D01*
X3946978Y3856977D01*
X3955247Y3851452D01*
X3965002Y3849511D01*
X4205001D01*
X4214756Y3851452D01*
X4223025Y3856977D01*
X4251048Y3885000D01*
X4335000D01*
Y3954510D01*
X4369874D01*
X4375000Y3953491D01*
X4439999D01*
X4440000Y3953490D01*
X4450145Y3955508D01*
X4458745Y3961255D01*
X4483267Y3985777D01*
X4495000Y3980917D01*
Y3880000D01*
Y3750000D01*
X4497958D01*
Y3635000D01*
X4460000D01*
Y3610400D01*
X4437699D01*
Y3550002D01*
Y3489600D01*
X4460000D01*
Y3465000D01*
X4508045D01*
Y3429204D01*
X4510279Y3412235D01*
X4516828Y3396423D01*
X4527247Y3382845D01*
X4540825Y3372427D01*
X4556637Y3365877D01*
X4573605Y3363643D01*
X4590574Y3365877D01*
X4606386Y3372427D01*
X4619964Y3382845D01*
X4630382Y3396423D01*
X4636932Y3412235D01*
X4639166Y3429204D01*
Y3465000D01*
X4650000D01*
Y3635000D01*
X4649252D01*
Y3750000D01*
X4665000D01*
Y3880000D01*
Y3920000D01*
X4679600D01*
Y3857700D01*
X4880400D01*
Y3920000D01*
X4905000D01*
Y3974267D01*
X4985000D01*
X4990572Y3975000D01*
X5080000D01*
Y4010000D01*
X5110075D01*
X5115000Y4009020D01*
X5283003D01*
X5302512Y4012901D01*
X5319051Y4023952D01*
X5330102Y4040491D01*
X5330530Y4042640D01*
X5357107Y4069218D01*
X5435000D01*
Y4065000D01*
X5565000D01*
Y4155000D01*
X5435000D01*
Y4150785D01*
X5352966D01*
X5350563Y4152390D01*
X5333005Y4155883D01*
X5315446Y4152390D01*
X5300561Y4142444D01*
X5269097Y4110980D01*
X5115000D01*
X5110075Y4110000D01*
X5080000D01*
Y4145000D01*
X4990572D01*
X4985000Y4145733D01*
X4905000D01*
Y4150000D01*
X4665450D01*
X4660190Y4162700D01*
X5010982Y4513492D01*
X6744021D01*
X7176256Y4081257D01*
X7176256Y4081256D01*
X7184857Y4075510D01*
X7195001Y4073492D01*
X7195003Y4073492D01*
X7358781D01*
X7366505Y4060792D01*
X7363885Y4055733D01*
X7275000D01*
X7269428Y4055000D01*
X7150572D01*
X7145000Y4055733D01*
X7075000D01*
Y4090000D01*
X6825000D01*
Y4053233D01*
X6585000D01*
Y4082500D01*
X6395000D01*
Y4057900D01*
X6352700D01*
Y3967500D01*
Y3877100D01*
X6395000D01*
Y3852500D01*
X6585000D01*
Y3881767D01*
X6825000D01*
Y3860000D01*
X6860000D01*
Y3705000D01*
X7040000D01*
Y3734020D01*
X7070000D01*
Y3715400D01*
X7059600D01*
Y3657700D01*
X7120000D01*
Y3645000D01*
X7132700D01*
Y3574600D01*
X7169600D01*
Y3569600D01*
X7217300D01*
Y3640000D01*
X7242700D01*
Y3569600D01*
X7284600D01*
Y3544600D01*
X7347298D01*
Y3625000D01*
X7359998D01*
Y3637700D01*
X7435400D01*
Y3640330D01*
X7447133Y3645190D01*
X7709217Y3383106D01*
Y3224963D01*
X7707611Y3222560D01*
X7704119Y3205002D01*
X7707611Y3187444D01*
X7717557Y3172559D01*
X7732442Y3162613D01*
X7750001Y3159121D01*
X7767559Y3162613D01*
X7782444Y3172559D01*
X7792390Y3187444D01*
X7795882Y3205002D01*
X7792390Y3222560D01*
X7790784Y3224963D01*
Y3399998D01*
X7790784Y3400000D01*
X7787680Y3415607D01*
X7778839Y3428838D01*
X7498229Y3709447D01*
X7505423Y3720214D01*
X7509509Y3718522D01*
X7530001Y3715824D01*
X7550494Y3718522D01*
X7569590Y3726432D01*
X7585988Y3739014D01*
X7598571Y3755413D01*
X7606481Y3774509D01*
X7609179Y3795001D01*
X7606481Y3815494D01*
X7598571Y3834590D01*
X7585988Y3850988D01*
X7569590Y3863571D01*
X7550494Y3871481D01*
X7530001Y3874179D01*
X7509509Y3871481D01*
X7490413Y3863571D01*
X7474015Y3850988D01*
X7470172Y3845981D01*
X7425000D01*
Y3865000D01*
X7295000D01*
Y3845981D01*
X7256768D01*
X7237259Y3842100D01*
X7228099Y3835980D01*
X7040000D01*
Y3860000D01*
X7075000D01*
Y3884267D01*
X7145000D01*
X7150572Y3885000D01*
X7269428D01*
X7275000Y3884267D01*
X7375000D01*
X7397189Y3887188D01*
X7417867Y3895753D01*
X7435623Y3909377D01*
X7449247Y3927133D01*
X7457812Y3947810D01*
X7460396Y3967439D01*
X7478518Y3985561D01*
X7486969Y3986673D01*
X7502781Y3993223D01*
X7516358Y4003642D01*
X7526777Y4017220D01*
X7533327Y4033032D01*
X7535561Y4050000D01*
X7533327Y4066968D01*
X7526777Y4082780D01*
X7516358Y4096358D01*
X7502781Y4106777D01*
X7498922Y4108376D01*
X7498259Y4111705D01*
X7495570Y4115730D01*
X7492680Y4125000D01*
X7495570Y4134270D01*
X7498259Y4138295D01*
X7500588Y4150000D01*
X7498259Y4161705D01*
X7491629Y4171629D01*
Y4178371D01*
X7498259Y4188295D01*
X7498922Y4191625D01*
X7502781Y4193223D01*
X7516358Y4203642D01*
X7526777Y4217220D01*
X7533327Y4233032D01*
X7535561Y4250000D01*
X7533327Y4266969D01*
X7526777Y4282780D01*
X7516358Y4296358D01*
X7502781Y4306777D01*
X7486969Y4313327D01*
X7478518Y4314439D01*
X7473977Y4318980D01*
X7453800Y4332462D01*
X7447015Y4333812D01*
X7445624Y4335624D01*
X6990624Y4790624D01*
X6972868Y4804248D01*
X6957071Y4810792D01*
X6959597Y4823492D01*
X7191014D01*
X7196432Y4810413D01*
X7209014Y4794014D01*
X7225413Y4781432D01*
X7244508Y4773522D01*
X7265001Y4770824D01*
X7285494Y4773522D01*
X7304590Y4781432D01*
X7320988Y4794014D01*
X7333571Y4810413D01*
X7341481Y4829509D01*
X7344179Y4850001D01*
X7341481Y4870494D01*
X7333571Y4889590D01*
X7320988Y4905988D01*
X7304590Y4918571D01*
X7285494Y4926481D01*
X7265001Y4929179D01*
X7244508Y4926481D01*
X7225413Y4918571D01*
X7209014Y4905988D01*
X7196432Y4889590D01*
X7191014Y4876510D01*
X4921409D01*
X4917444Y4882444D01*
X4902559Y4892390D01*
X4885001Y4895883D01*
X4867443Y4892390D01*
X4852558Y4882444D01*
X4842612Y4867559D01*
X4839120Y4850001D01*
X4842612Y4832443D01*
X4852558Y4817558D01*
X4867443Y4807612D01*
X4885001Y4804120D01*
X4902559Y4807612D01*
X4917444Y4817558D01*
X4921409Y4823492D01*
X4948080D01*
X4950606Y4810792D01*
X4934809Y4804248D01*
X4917053Y4790624D01*
X4492162Y4365733D01*
X3785000D01*
X3779428Y4365000D01*
X3660572D01*
X3655000Y4365733D01*
X2070590D01*
X2070571Y4366111D01*
X2064812Y4365733D01*
X2035001D01*
X2033404Y4365523D01*
X1988492Y4368467D01*
X1930490Y4380004D01*
X1874491Y4399014D01*
X1821451Y4425170D01*
X1772280Y4458025D01*
X1727817Y4497017D01*
X1688825Y4541480D01*
X1655970Y4590651D01*
X1648667Y4605460D01*
X1648468Y4606970D01*
X1643249Y4619568D01*
X1643483Y4619673D01*
X1623911Y4659361D01*
X1592392Y4706533D01*
X1554985Y4749187D01*
X1512331Y4786594D01*
X1465159Y4818113D01*
X1414277Y4843205D01*
X1360554Y4861442D01*
X1304911Y4872510D01*
X1248300Y4876220D01*
X1223429Y4874590D01*
X1220800Y4874936D01*
X728475D01*
X721484Y4888015D01*
X699366Y4914967D01*
X672414Y4937085D01*
X641665Y4953521D01*
X608300Y4963642D01*
X573602Y4967059D01*
D02*
G37*
G36*
X2015400Y5037300D02*
X1912697D01*
Y4944600D01*
X2015400D01*
Y5037300D01*
D02*
G37*
%LPD*%
G36*
X3875000Y3160000D02*
X3874999Y3160000D01*
X3874998Y3154988D01*
X3873176Y3155036D01*
X3869572Y3154541D01*
X3866159Y3153282D01*
X3863097Y3151317D01*
X3861743Y3150097D01*
X3856769Y3144493D01*
X3856000Y3141682D01*
X3856000Y3141682D01*
X3856000Y3140925D01*
X3855705Y3139441D01*
X3855126Y3138043D01*
X3855010Y3137870D01*
X3855012Y3135003D01*
X3845003Y3135005D01*
Y3135005D01*
X3845001Y3135001D01*
X3845001D01*
X3605000Y3135000D01*
Y3405000D01*
X3875000D01*
Y3160000D01*
D02*
G37*
G36*
X7729556Y2164399D02*
X7724652Y2151342D01*
X7707207Y2144116D01*
X7689482Y2130516D01*
X7675882Y2112791D01*
X7667332Y2092150D01*
X7664416Y2070000D01*
X7666494Y2054211D01*
X7657443Y2041511D01*
X7579317D01*
X7551377Y2142096D01*
X7550644Y2143549D01*
X7550326Y2145146D01*
X7548333Y2148129D01*
X7546717Y2151331D01*
X7545484Y2152393D01*
X7544580Y2153746D01*
X7541598Y2155739D01*
X7538879Y2158080D01*
X7537332Y2158589D01*
X7535979Y2159493D01*
X7532462Y2160192D01*
X7529054Y2161314D01*
X7527431Y2161193D01*
X7525835Y2161511D01*
X7380557D01*
X7378737Y2161149D01*
X7376883Y2161255D01*
X7373708Y2160148D01*
X7370412Y2159493D01*
X7368869Y2158462D01*
X7367116Y2157851D01*
X7364607Y2155614D01*
X7361812Y2153746D01*
X7360781Y2152203D01*
X7359395Y2150968D01*
X7357933Y2147941D01*
X7356066Y2145146D01*
X7355703Y2143326D01*
X7354896Y2141654D01*
X7309489Y1966510D01*
X7247949D01*
X7178615Y2139847D01*
X7178525Y2139984D01*
X7178493Y2140146D01*
X7175702Y2144323D01*
X7172973Y2148516D01*
X7172838Y2148609D01*
X7172746Y2148746D01*
X7168576Y2151533D01*
X7164444Y2154367D01*
X7164283Y2154401D01*
X7164146Y2154493D01*
X7159238Y2155469D01*
X7154325Y2156509D01*
X7154162Y2156479D01*
X7154001Y2156511D01*
X7073160D01*
X7072070Y2157110D01*
X7063822Y2167926D01*
X7063659Y2168890D01*
X7065868Y2179996D01*
X7062376Y2197554D01*
X7052430Y2212439D01*
X7037545Y2222385D01*
X7019987Y2225877D01*
X7002429Y2222385D01*
X7000026Y2220779D01*
X6945028D01*
X6945001Y2220785D01*
X6827501D01*
X6823557Y2220000D01*
X6777500D01*
Y2210588D01*
X6765001D01*
X6765000Y2210588D01*
X6753295Y2208259D01*
X6743371Y2201629D01*
X6722312Y2180570D01*
X6705962Y2182180D01*
X6702445Y2187444D01*
X6695491Y2192091D01*
Y2209443D01*
X6735558Y2249511D01*
X6777500D01*
Y2235000D01*
X6877500D01*
Y2249511D01*
X6955863D01*
X6955868Y2249512D01*
X7644443D01*
X7729556Y2164399D01*
D02*
G37*
G36*
X6777501Y2140000D02*
Y2140000D01*
X6823567D01*
X6827501Y2139218D01*
X6944980D01*
X6945007Y2139212D01*
X7000026D01*
X7002429Y2137607D01*
X7019987Y2134114D01*
X7025349Y2135181D01*
X7034412Y2124035D01*
X6978089Y1991511D01*
X6910982D01*
X6889491Y2013002D01*
X6890883Y2020001D01*
X6887390Y2037559D01*
X6877500Y2052361D01*
Y2125000D01*
X6777500D01*
Y2051992D01*
X6770252Y2045129D01*
X6765006Y2043036D01*
X6760589Y2044650D01*
Y2132331D01*
X6770965Y2142707D01*
X6777501Y2140000D01*
D02*
G37*
G36*
X4755614Y2050149D02*
Y2010001D01*
Y1755704D01*
X4726480D01*
X4719691Y1768404D01*
X4722390Y1772443D01*
X4725883Y1790001D01*
X4722390Y1807559D01*
X4712444Y1822444D01*
X4697559Y1832390D01*
X4680001Y1835883D01*
X4662443Y1832390D01*
X4647558Y1822444D01*
X4642944Y1815539D01*
X4631753Y1819680D01*
X4630830Y1820268D01*
X4627390Y1837559D01*
X4617444Y1852444D01*
X4602559Y1862390D01*
X4585001Y1865883D01*
X4576799Y1864251D01*
X4550492Y1890558D01*
Y1985000D01*
X4548552Y1994755D01*
X4543026Y2003024D01*
X4508027Y2038024D01*
X4499757Y2043549D01*
X4495000Y2044496D01*
X4495000Y2085000D01*
X4507610Y2085216D01*
X4720547D01*
X4755614Y2050149D01*
D02*
G37*
G36*
X5044510Y1915000D02*
X4980000D01*
Y1764011D01*
X4967300Y1758750D01*
X4944251Y1781799D01*
X4945883Y1790001D01*
X4942390Y1807559D01*
X4932445Y1822444D01*
X4917559Y1832390D01*
X4900001Y1835883D01*
X4882443Y1832390D01*
X4867558Y1822444D01*
X4857612Y1807559D01*
X4854120Y1790001D01*
X4857612Y1772443D01*
X4860311Y1768404D01*
X4853523Y1755704D01*
X4852429Y1755704D01*
X4806593D01*
Y1978315D01*
X5044510D01*
Y1915000D01*
D02*
G37*
G36*
X6614512Y2969443D02*
Y2545560D01*
X6589443Y2520491D01*
X6365559D01*
X6300001Y2586049D01*
Y2674512D01*
X6354441D01*
X6375000Y2653952D01*
Y2555000D01*
X6505000D01*
Y2695000D01*
X6406908D01*
X6400415Y2702987D01*
X6405453Y2714600D01*
X6427300D01*
Y2782300D01*
X6364600D01*
Y2725491D01*
X6324002D01*
Y2766503D01*
X6243602D01*
Y2779203D01*
X6230902D01*
Y2854603D01*
X6180401D01*
Y2882302D01*
X6110002D01*
Y2907702D01*
X6180401D01*
Y2955002D01*
X6225001D01*
Y2994512D01*
X6589443D01*
X6614512Y2969443D01*
D02*
G37*
%LPC*%
G36*
X6324002Y2854603D02*
X6256302D01*
Y2791903D01*
X6324002D01*
Y2854603D01*
D02*
G37*
G36*
X6515400Y2782300D02*
X6452700D01*
Y2714600D01*
X6515400D01*
Y2782300D01*
D02*
G37*
G36*
Y2875400D02*
X6452700D01*
Y2807700D01*
X6515400D01*
Y2875400D01*
D02*
G37*
G36*
X6427300D02*
X6364600D01*
Y2807700D01*
X6427300D01*
Y2875400D01*
D02*
G37*
%LPD*%
G36*
X4195000Y4015001D02*
X4195000D01*
Y4014999D01*
X4195000D01*
Y3901048D01*
X4194443Y3900491D01*
X3975560D01*
X3878027Y3998024D01*
X3869758Y4003549D01*
X3860003Y4005490D01*
X3725000D01*
Y4032300D01*
X3725000Y4044999D01*
X3725000D01*
Y4045001D01*
X3725000D01*
Y4084510D01*
X3840000D01*
X3849755Y4086451D01*
X3858024Y4091976D01*
X3900560Y4134512D01*
X4195000D01*
Y4015001D01*
D02*
G37*
G36*
X7192256Y4181255D02*
X7200857Y4175509D01*
X7211001Y4173491D01*
X7211003Y4173491D01*
X7404341D01*
X7411485Y4162113D01*
X7411559Y4160791D01*
X7409412Y4150000D01*
X7411559Y4139210D01*
X7411484Y4137886D01*
X7404341Y4126510D01*
X7205982D01*
X6773746Y4558746D01*
X6765146Y4564493D01*
X6755001Y4566511D01*
X6755000Y4566511D01*
X5000001D01*
X4989857Y4564493D01*
X4981256Y4558746D01*
X4429019Y4006509D01*
X4375000D01*
X4369874Y4005490D01*
X4342700D01*
X4335000Y4015000D01*
Y4084510D01*
X4389874D01*
X4395000Y4083491D01*
X4464999D01*
X4465000Y4083490D01*
X4475145Y4085508D01*
X4483745Y4091255D01*
X4985982Y4593492D01*
X6780019D01*
X7192256Y4181255D01*
D02*
G37*
G36*
X7300515Y4238242D02*
X7295654Y4226509D01*
X7221982D01*
X6816923Y4631568D01*
X6822184Y4644268D01*
X6894489D01*
X7300515Y4238242D01*
D02*
G37*
D10*
X3874500Y3155134D02*
G03*
X3854753Y3135500I250J-19998D01*
G01*
D11*
X5495001Y3255004D02*
G03*
X5415005Y3329203I-77101J-2902D01*
G01*
X1550276Y4612816D02*
G03*
X2074979Y4280000I497228J203887D01*
G01*
X1565656Y4584781D02*
G03*
X1220800Y4789203I-317356J-142279D01*
G01*
X5450001Y3429203D02*
G03*
X5449537Y3429202I0J-145000D01*
G01*
X5595000Y3284668D02*
G03*
X5450001Y3429203I-144999J-465D01*
G01*
X7256768Y3795001D02*
X7530001D01*
X6950000Y3785000D02*
X7230000D01*
X2688602Y3270000D02*
Y3454203D01*
X4977675Y4730001D02*
X6930001D01*
X4527674Y4280000D02*
X4977675Y4730001D01*
X3785000Y4280000D02*
X4527674D01*
X2072500Y3267500D02*
X2210000D01*
X1940000Y3269201D02*
X1968601D01*
X1820525D02*
X1940000D01*
X2855000D02*
X2988601D01*
X2070000Y3175000D02*
Y3265000D01*
X5495001Y3200001D02*
Y3255004D01*
X5233602Y3329203D02*
X5415005D01*
X6070000Y3955000D02*
X6177500D01*
X5103602Y3429203D02*
Y3653953D01*
X4835403Y4060000D02*
X4985000D01*
X7275000Y3970000D02*
X7375000D01*
X6955000D02*
X7145000D01*
X5115000Y4060000D02*
X5283003D01*
X6930001Y4730001D02*
X7385001Y4275001D01*
X6490000Y3967500D02*
X6929997D01*
X8035001Y4160000D02*
X8840001D01*
X8850001Y4150000D01*
X7545001Y4369999D02*
Y4800001D01*
X7310287Y5034716D02*
X7545001Y4800001D01*
X5102804Y3330001D02*
X5103602Y3329203D01*
X4775001Y3330001D02*
X5102804D01*
X5098602Y3658953D02*
X5103602Y3653953D01*
X5595002Y3185001D02*
Y3284203D01*
X3055001Y3175001D02*
X3253602D01*
X3055001Y3364203D02*
X3258602D01*
X2988601Y3269201D02*
X2988601Y3269202D01*
X1545000Y2860001D02*
Y3145601D01*
X583600Y2724201D02*
X597600Y2738201D01*
X1525000Y3412802D02*
X1546401Y3391401D01*
X1525000Y3412802D02*
Y3655001D01*
X583601Y3769202D02*
X587599Y3773199D01*
X1415001D01*
X597600Y2738201D02*
X1404599D01*
X573602Y4789203D02*
X1220800D01*
X2035001Y4280000D02*
X2074979D01*
X3655000D01*
X5233602Y3429203D02*
X5450001D01*
X3953602Y5034203D02*
X7310287D01*
X3600000Y3625000D02*
X3730000D01*
X4225000Y3299204D02*
X4385001D01*
X3390000Y3172500D02*
X3550000D01*
X3391899Y3367500D02*
X3550000D01*
X2730000Y3845000D02*
X2930000D01*
X2990000Y3785000D02*
X3230000D01*
X2930000Y3845000D02*
X2990000Y3785000D01*
X2700000Y3625000D02*
Y3835000D01*
D12*
X3243604Y1902204D02*
D03*
Y1789204D02*
D03*
X3408604D02*
D03*
Y1902204D02*
D03*
D13*
X6097500Y905000D02*
D03*
Y955000D02*
D03*
Y1005000D02*
D03*
Y1055000D02*
D03*
Y1105000D02*
D03*
Y1155000D02*
D03*
Y1205000D02*
D03*
Y1255000D02*
D03*
Y1305000D02*
D03*
Y1355000D02*
D03*
Y1405000D02*
D03*
Y1455000D02*
D03*
X5282500D02*
D03*
Y1405000D02*
D03*
Y1355000D02*
D03*
Y1305000D02*
D03*
Y1255000D02*
D03*
Y1205000D02*
D03*
Y1155000D02*
D03*
Y1105000D02*
D03*
Y1055000D02*
D03*
Y1005000D02*
D03*
Y955000D02*
D03*
Y905000D02*
D03*
D14*
X5965000Y1587500D02*
D03*
X5915000D02*
D03*
X5865000D02*
D03*
X5815000D02*
D03*
X5765000D02*
D03*
X5715000D02*
D03*
X5665000D02*
D03*
X5615000D02*
D03*
X5565000D02*
D03*
X5515000D02*
D03*
X5465000D02*
D03*
X5415000D02*
D03*
Y772500D02*
D03*
X5465000D02*
D03*
X5515000D02*
D03*
X5565000D02*
D03*
X5615000D02*
D03*
X5665000D02*
D03*
X5715000D02*
D03*
X5765000D02*
D03*
X5815000D02*
D03*
X5865000D02*
D03*
X5915000D02*
D03*
X5965000D02*
D03*
D15*
X3350000Y2282500D02*
D03*
Y2347500D02*
D03*
Y2412500D02*
D03*
Y2477500D02*
D03*
Y2542500D02*
D03*
Y2607500D02*
D03*
Y2672500D02*
D03*
Y2737500D02*
D03*
X2770000Y2282500D02*
D03*
Y2347500D02*
D03*
Y2412500D02*
D03*
Y2477500D02*
D03*
Y2542500D02*
D03*
Y2607500D02*
D03*
Y2672500D02*
D03*
Y2737500D02*
D03*
D16*
X1295000Y6165000D02*
D03*
X1105000D02*
D03*
X1200000Y5975000D02*
D03*
D17*
X2851780Y4991140D02*
D03*
Y4760000D02*
D03*
Y4528860D02*
D03*
D18*
X2221860Y4760000D02*
D03*
D19*
X3871102Y5433703D02*
D03*
Y5560703D02*
D03*
Y5687703D02*
D03*
Y5814703D02*
D03*
X3346102Y5433703D02*
D03*
Y5560703D02*
D03*
Y5687703D02*
D03*
Y5814703D02*
D03*
D20*
X2806104Y1945704D02*
D03*
Y1755704D02*
D03*
X2566104D02*
D03*
Y1850704D02*
D03*
Y1945704D02*
D03*
D21*
X4436104Y1575954D02*
D03*
X5100000Y3679750D02*
D03*
D22*
X4583604Y1425704D02*
D03*
X4288604D02*
D03*
X4952500Y3830000D02*
D03*
X5247500D02*
D03*
D23*
X6827500Y2275000D02*
D03*
Y2180000D02*
D03*
Y2085000D02*
D03*
X6562500D02*
D03*
Y2180000D02*
D03*
Y2275000D02*
D03*
D24*
X4570362Y6027683D02*
D03*
Y6220723D02*
D03*
X4346842Y6121663D02*
D03*
D25*
X1698102Y2043603D02*
D03*
X1825102D02*
D03*
X1952102D02*
D03*
X2079102D02*
D03*
Y1484803D02*
D03*
X1952102D02*
D03*
X1825102D02*
D03*
D26*
X1698102D02*
D03*
D27*
X4233104Y1749204D02*
D03*
Y1685704D02*
D03*
Y1622204D02*
D03*
X3979104D02*
D03*
Y1685704D02*
D03*
Y1749204D02*
D03*
D28*
X6070000Y2240000D02*
D03*
Y2400000D02*
D03*
X6310000Y2240000D02*
D03*
Y2400000D02*
D03*
D29*
X6150000Y2240000D02*
D03*
Y2400000D02*
D03*
X6230000Y2240000D02*
D03*
Y2400000D02*
D03*
D30*
X3083601Y1176714D02*
D03*
Y1111690D02*
D03*
Y1046666D02*
D03*
Y981642D02*
D03*
X3523601Y981689D02*
D03*
Y1046713D02*
D03*
Y1111737D02*
D03*
Y1176761D02*
D03*
X2028602Y1026691D02*
D03*
Y1091715D02*
D03*
Y1156739D02*
D03*
Y1221763D02*
D03*
X1588602Y1221715D02*
D03*
Y1156691D02*
D03*
Y1091667D02*
D03*
Y1026643D02*
D03*
D31*
X6930000Y1150000D02*
D03*
X6560000D02*
D03*
Y1370000D02*
D03*
D32*
X6930000D02*
D03*
D33*
X1900000Y4770000D02*
D03*
Y5050000D02*
D03*
X3130000Y5020000D02*
D03*
Y4740000D02*
D03*
D34*
X688602Y1489203D02*
D03*
Y1299203D02*
D03*
X1468602Y1669203D02*
D03*
Y1479203D02*
D03*
X4780000Y4035000D02*
D03*
Y3845000D02*
D03*
X1028602Y1459203D02*
D03*
Y1269203D02*
D03*
X1238602Y1459203D02*
D03*
Y1269203D02*
D03*
X1547500Y4922500D02*
D03*
Y5112500D02*
D03*
X3568602Y5219203D02*
D03*
Y5029203D02*
D03*
X4508602Y5569203D02*
D03*
Y5759203D02*
D03*
X5070000Y1645000D02*
D03*
Y1835000D02*
D03*
X5720000Y2025000D02*
D03*
Y1835000D02*
D03*
X2996103Y1945704D02*
D03*
Y1755704D02*
D03*
X2460000Y2585000D02*
D03*
Y2775000D02*
D03*
X6950000Y3975000D02*
D03*
Y3785000D02*
D03*
D35*
X3515000Y580000D02*
D03*
X3705000D02*
D03*
X2633602Y1324203D02*
D03*
X2823602D02*
D03*
X3233602Y1524203D02*
D03*
X3423602D02*
D03*
X2633602D02*
D03*
X2823602D02*
D03*
X3983602Y6124203D02*
D03*
X4173602D02*
D03*
X1493602Y5804203D02*
D03*
X1303602D02*
D03*
X2033602Y5794203D02*
D03*
X1843602D02*
D03*
X2563602Y5804203D02*
D03*
X2373602D02*
D03*
X4591103Y1665704D02*
D03*
X4781103D02*
D03*
X3705000Y790000D02*
D03*
X3515000D02*
D03*
D36*
X7360000Y3795000D02*
D03*
Y3625000D02*
D03*
X2700000Y3455000D02*
D03*
Y3625000D02*
D03*
X3730000Y3795000D02*
D03*
Y3625000D02*
D03*
X3600000Y3795000D02*
D03*
Y3625000D02*
D03*
X5870000Y2375000D02*
D03*
Y2205000D02*
D03*
X5448602Y2314203D02*
D03*
Y2144203D02*
D03*
X5808602Y3224203D02*
D03*
Y3394203D02*
D03*
X4938602Y2844203D02*
D03*
Y2674203D02*
D03*
X5320001Y2430001D02*
D03*
Y2260002D02*
D03*
X5088602Y2844203D02*
D03*
Y2674203D02*
D03*
X2396103Y1750704D02*
D03*
Y1920704D02*
D03*
X3680000Y1165000D02*
D03*
Y1335000D02*
D03*
X5310000Y1635000D02*
D03*
Y1805000D02*
D03*
X5250000Y785000D02*
D03*
Y615000D02*
D03*
X6110000Y685000D02*
D03*
Y515000D02*
D03*
X6375001Y1170001D02*
D03*
Y1340001D02*
D03*
X7140000Y1345000D02*
D03*
Y1175000D02*
D03*
X1720000Y4845000D02*
D03*
Y5015000D02*
D03*
X2930000Y3845000D02*
D03*
Y4015000D02*
D03*
X2270000Y2585000D02*
D03*
Y2755000D02*
D03*
X7855000Y4350000D02*
D03*
Y4520000D02*
D03*
X3358602Y5059203D02*
D03*
Y5229203D02*
D03*
X1678602Y5649203D02*
D03*
Y5819203D02*
D03*
X2218602Y5649203D02*
D03*
Y5819203D02*
D03*
X508602Y1479203D02*
D03*
Y1309203D02*
D03*
X8095000Y4360000D02*
D03*
Y4530000D02*
D03*
X2758602Y5809203D02*
D03*
Y5639203D02*
D03*
X1108602Y5809203D02*
D03*
Y5639203D02*
D03*
X6440000Y2625000D02*
D03*
Y2795000D02*
D03*
D37*
X3655000Y3980000D02*
D03*
X3485000D02*
D03*
X3735000Y2720000D02*
D03*
X3905000D02*
D03*
X3735000Y2860000D02*
D03*
X3905000D02*
D03*
X5143602Y3109203D02*
D03*
X4973602D02*
D03*
X6073602Y2779203D02*
D03*
X6243602D02*
D03*
X5155001Y2345001D02*
D03*
X4985001D02*
D03*
X6155001Y3170002D02*
D03*
X5985001D02*
D03*
X5985001Y3020002D02*
D03*
X6155001D02*
D03*
X1965000Y2330000D02*
D03*
X2135000D02*
D03*
X3631103Y1755704D02*
D03*
X3801103D02*
D03*
X4425000Y2020000D02*
D03*
X4255000D02*
D03*
X4245000Y1880000D02*
D03*
X4415000D02*
D03*
X3811104Y1895704D02*
D03*
X3641104D02*
D03*
X3191103Y2105704D02*
D03*
X3361103D02*
D03*
X6495000Y1620000D02*
D03*
X6665000D02*
D03*
X1517500Y5257500D02*
D03*
X1687500D02*
D03*
X1365000Y5220000D02*
D03*
X1195000D02*
D03*
X4623607Y2884205D02*
D03*
X4453607D02*
D03*
X1355000Y3350000D02*
D03*
X1185000D02*
D03*
X1355000Y3220000D02*
D03*
X1185000D02*
D03*
X6405000Y1760000D02*
D03*
X6575000D02*
D03*
X4265000Y3950000D02*
D03*
X4095000D02*
D03*
X4265000Y4080000D02*
D03*
X4095000D02*
D03*
X3603602Y5994203D02*
D03*
X3773602D02*
D03*
Y6124203D02*
D03*
X3603602D02*
D03*
X3073602Y5814203D02*
D03*
X2903602D02*
D03*
X3953602Y5034203D02*
D03*
X3783602D02*
D03*
X3083602Y5664203D02*
D03*
X2913602D02*
D03*
X4123602Y5564203D02*
D03*
X4293602D02*
D03*
X3943602Y5224203D02*
D03*
X3773602D02*
D03*
X5643602Y5754203D02*
D03*
X5473602D02*
D03*
X4723602D02*
D03*
X4893602D02*
D03*
X5155001Y2495002D02*
D03*
X4985001D02*
D03*
X5988602Y3314203D02*
D03*
X6158602D02*
D03*
X6230001Y2620001D02*
D03*
X6060001D02*
D03*
X2453602Y1324203D02*
D03*
X2283602D02*
D03*
X853602Y1674203D02*
D03*
X683602D02*
D03*
X1223602D02*
D03*
X1053602D02*
D03*
X4151104Y1495704D02*
D03*
X3981104D02*
D03*
X7209599Y515402D02*
D03*
X7039599D02*
D03*
X7209599Y675401D02*
D03*
X7039599D02*
D03*
X7209599Y835401D02*
D03*
X7039599D02*
D03*
X7209599Y995402D02*
D03*
X7039599D02*
D03*
X5755000Y510000D02*
D03*
X5925000D02*
D03*
X4815000Y1430000D02*
D03*
X4985000D02*
D03*
X4815000Y1300000D02*
D03*
X4985000D02*
D03*
X4815000Y1170000D02*
D03*
X4985000D02*
D03*
X3655000Y4110000D02*
D03*
X3485000D02*
D03*
X4803602Y6024203D02*
D03*
X4973602D02*
D03*
X5263602Y5754203D02*
D03*
X5093602D02*
D03*
X5263602Y5574203D02*
D03*
X5093602D02*
D03*
X4893602D02*
D03*
X4723602D02*
D03*
X1305000Y3480000D02*
D03*
X1135000D02*
D03*
X1135000Y3090000D02*
D03*
X1305000D02*
D03*
X5405000Y3680000D02*
D03*
X5575000D02*
D03*
D38*
X3230000Y3655000D02*
D03*
Y3785000D02*
D03*
X2700000Y3965000D02*
D03*
Y3835000D02*
D03*
X5745001Y2435002D02*
D03*
Y2305002D02*
D03*
X4580000Y3975000D02*
D03*
Y3845000D02*
D03*
X2070000Y3135000D02*
D03*
Y3005000D02*
D03*
X4360000Y3285000D02*
D03*
Y3155000D02*
D03*
X5568602Y2424203D02*
D03*
Y2294203D02*
D03*
X6070000Y3965000D02*
D03*
Y4095000D02*
D03*
X7120000Y3645000D02*
D03*
Y3775000D02*
D03*
X7230000Y3640000D02*
D03*
Y3770000D02*
D03*
D39*
X5537500Y3990000D02*
D03*
D40*
X5500000Y4110000D02*
D03*
Y4230000D02*
D03*
X5750000D02*
D03*
Y4110000D02*
D03*
Y3990000D02*
D03*
D41*
X7560000Y4150000D02*
D03*
X1658601Y3269201D02*
D03*
D42*
X7665000Y4250000D02*
D03*
Y4200000D02*
D03*
Y4150000D02*
D03*
Y4100000D02*
D03*
Y4050000D02*
D03*
X7455000D02*
D03*
Y4100000D02*
D03*
Y4150000D02*
D03*
Y4200000D02*
D03*
Y4250000D02*
D03*
X4468605Y3339204D02*
D03*
Y3289204D02*
D03*
Y3239204D02*
D03*
X4678605D02*
D03*
Y3289204D02*
D03*
Y3339204D02*
D03*
X1763601Y3369202D02*
D03*
Y3319201D02*
D03*
Y3269201D02*
D03*
Y3219201D02*
D03*
Y3169201D02*
D03*
X1553601D02*
D03*
Y3219201D02*
D03*
Y3269201D02*
D03*
Y3319201D02*
D03*
Y3369202D02*
D03*
D43*
X3927500Y3172500D02*
D03*
Y3237500D02*
D03*
X3930000Y3302500D02*
D03*
X3930000Y3367500D02*
D03*
X3550000D02*
D03*
Y3302500D02*
D03*
Y3237500D02*
D03*
Y3172500D02*
D03*
D44*
X3837500Y3457500D02*
D03*
X3772500D02*
D03*
X3707500D02*
D03*
X3642500D02*
D03*
Y3082500D02*
D03*
X3707500D02*
D03*
X3772500D02*
D03*
X3837500D02*
D03*
D45*
X5570001Y2845001D02*
D03*
D46*
X5745001Y2592501D02*
D03*
X5695001D02*
D03*
X5645001D02*
D03*
X5595002D02*
D03*
X5545001D02*
D03*
X5495001D02*
D03*
X5445001D02*
D03*
X5395001D02*
D03*
Y3097501D02*
D03*
X5445001D02*
D03*
X5495001D02*
D03*
X5545001D02*
D03*
X5595002D02*
D03*
X5645001D02*
D03*
X5695001D02*
D03*
X5745001D02*
D03*
D47*
X5317501Y2670001D02*
D03*
Y2720001D02*
D03*
Y2770001D02*
D03*
Y2820001D02*
D03*
Y2870001D02*
D03*
Y2920001D02*
D03*
Y2970001D02*
D03*
Y3020001D02*
D03*
X5822501D02*
D03*
Y2970001D02*
D03*
Y2920001D02*
D03*
Y2870001D02*
D03*
Y2820001D02*
D03*
Y2770001D02*
D03*
Y2720001D02*
D03*
Y2670001D02*
D03*
D48*
X4623605Y3444204D02*
D03*
X4573605D02*
D03*
X4523605D02*
D03*
Y3134204D02*
D03*
X4573605D02*
D03*
X4623605D02*
D03*
D49*
X4593605Y3289204D02*
D03*
D50*
X2230000Y3237500D02*
D03*
X2530000D02*
D03*
X2380000D02*
D03*
X6340000Y3967500D02*
D03*
X6490000D02*
D03*
X6190000D02*
D03*
D51*
X6655539Y675401D02*
D03*
X6853659D02*
D03*
X6655539Y515402D02*
D03*
X6853659D02*
D03*
X6655539Y835401D02*
D03*
X6853659D02*
D03*
X6655539Y995402D02*
D03*
X6853659D02*
D03*
D52*
X1207500Y2667500D02*
D03*
X1127500D02*
D03*
Y2717500D02*
D03*
X1207500D02*
D03*
X1167500Y4717500D02*
D03*
X1087500D02*
D03*
Y4767500D02*
D03*
X1167500D02*
D03*
X8300000Y4090000D02*
D03*
X8220000D02*
D03*
Y4140000D02*
D03*
X8300000D02*
D03*
X1202500Y3702500D02*
D03*
X1122500D02*
D03*
Y3752500D02*
D03*
X1202500D02*
D03*
D53*
X3033601Y3186702D02*
D03*
Y3351702D02*
D03*
D54*
X2988601Y3269202D02*
D03*
X3078601D02*
D03*
D55*
X5980001Y2895002D02*
D03*
X6110001D02*
D03*
X5143602Y2989203D02*
D03*
X5013602D02*
D03*
X5925000Y3550000D02*
D03*
X5795000D02*
D03*
X5103602Y3329203D02*
D03*
X5233602D02*
D03*
X5103602Y3429203D02*
D03*
X5233602D02*
D03*
X1965000Y2210000D02*
D03*
X2095000D02*
D03*
X4623606Y3009205D02*
D03*
X4753606D02*
D03*
X3388602Y3364203D02*
D03*
X3258602D02*
D03*
X2070000Y3269201D02*
D03*
X1940000D02*
D03*
X2855000Y3270000D02*
D03*
X2725000D02*
D03*
X3387500Y3175000D02*
D03*
X3257500D02*
D03*
X4225000Y3300000D02*
D03*
X4095000D02*
D03*
X3785000Y4280000D02*
D03*
X3655000D02*
D03*
X8015000Y4160000D02*
D03*
X7885000D02*
D03*
X5233602Y3229203D02*
D03*
X5103602D02*
D03*
X5263602Y3539203D02*
D03*
X5393602D02*
D03*
X4973602D02*
D03*
X5103602D02*
D03*
X1755000Y900000D02*
D03*
X1885000D02*
D03*
X7275000Y3970000D02*
D03*
X7145000D02*
D03*
X5115000Y4060000D02*
D03*
X4985000D02*
D03*
X4555000Y3550000D02*
D03*
X4425000D02*
D03*
D56*
X1431538Y2749038D02*
D03*
X1523462Y2840962D02*
D03*
D57*
X1424038Y3763462D02*
D03*
X1515962Y3671539D02*
D03*
D58*
X7308334Y3775000D02*
X7343333Y3740000D01*
X7154001Y2130001D02*
X7230001Y1940001D01*
X7065751Y2130001D02*
X7154001D01*
X6995626Y1965001D02*
X7065751Y2130001D01*
X6900001Y1965001D02*
X6995626D01*
X6845001Y2020001D02*
X6900001Y1965001D01*
X7720385Y2015001D02*
X7749998Y2070000D01*
X7559168Y2015001D02*
X7720385D01*
X7525835Y2135001D02*
X7559168Y2015001D01*
X7380557Y2135001D02*
X7525835D01*
X7330001Y1940001D02*
X7380557Y2135001D01*
X7230001Y1940001D02*
X7330001D01*
X6945001Y2180001D02*
X6945007Y2179996D01*
X2070000Y3265000D02*
X2072500Y3267500D01*
X2738012Y3286988D02*
X2755000Y3270000D01*
X4975001Y4620001D02*
X6791000D01*
X4465000Y4110000D02*
X4975001Y4620001D01*
X4395000Y4110000D02*
X4465000D01*
X7343333Y3740000D02*
X7360000Y3795000D01*
X3229999Y3785001D02*
X3230000Y3785000D01*
X2071701Y3267500D02*
X2072500D01*
X2070000Y3269201D02*
X2071701Y3267500D01*
X2725000Y3270000D02*
X2755000D01*
X2688602D02*
X2725000D01*
X3930000Y3367500D02*
Y3435003D01*
X4082500Y3302500D02*
X4095000Y3290000D01*
X4835403Y4029734D02*
Y4060000D01*
X4810334Y4004666D02*
X4835403Y4029734D01*
X4715000Y4035000D02*
X4780000D01*
X6755001Y4540001D02*
X7195001Y4100001D01*
X5000001Y4540001D02*
X6755001D01*
X4440000Y3980000D02*
X5000001Y4540001D01*
X6791000Y4620001D02*
X7211001Y4200000D01*
X7375000Y3970000D02*
X7455000Y4050000D01*
X6950000Y3975000D02*
X6955000Y3970000D01*
X7454999Y4100001D02*
X7455000Y4100000D01*
X7195001Y4100001D02*
X7454999D01*
X7211001Y4200000D02*
X7455000D01*
X6177500Y3955000D02*
X6190000Y3967500D01*
X4375000Y3980000D02*
X4440000D01*
X7429999Y4275001D02*
X7455000Y4250000D01*
X7385001Y4275001D02*
X7429999D01*
X8840001Y4160000D02*
X8885000D01*
X7875000Y4150000D02*
X7885000Y4160000D01*
X7665000Y4150000D02*
X7875000D01*
X7780000Y4100000D02*
X7795001Y4084999D01*
X7665000Y4100000D02*
X7780000D01*
X7560000Y4150000D02*
X7610000Y4100000D01*
X7665000D01*
X7955001Y4669998D02*
X8095000Y4530000D01*
X7955001Y4669998D02*
Y4690001D01*
X4885001Y4850001D02*
X7265001D01*
X7705000Y4200000D02*
X7855000Y4350000D01*
X7665000Y4200000D02*
X7705000D01*
X7545001Y4369999D02*
X7665000Y4250000D01*
X7865000Y4360000D02*
X8095000D01*
X3600000Y3620000D02*
Y3625000D01*
X7360000Y3790000D02*
Y3795000D01*
X3905000Y2720000D02*
Y2860000D01*
Y2968733D01*
X4065838Y3129571D01*
X4016268Y3237500D02*
X4065838Y3187931D01*
X3927500Y3237500D02*
X4016268D01*
X4065838Y3129571D02*
Y3187931D01*
X3927500Y3172500D02*
X3995001D01*
X3730000Y3625000D02*
X3770003D01*
X3517499Y3270001D02*
X3517500Y3242500D01*
X3517499Y3270001D02*
X3517501D01*
X3517501Y3295001D02*
X3517501Y3270001D01*
X3387500Y3175000D02*
X3390000Y3172500D01*
X3388602Y3364203D02*
X3391899Y3367500D01*
D59*
X3220001Y3675001D02*
X3305001D01*
X3360003Y3620000D02*
X3600000D01*
X6827501Y2180001D02*
X6945001D01*
X6945007Y2179996D02*
X7019987D01*
X7750001Y3205002D02*
Y3400000D01*
X7360000Y3790000D02*
X7750001Y3400000D01*
X2535000Y3270000D02*
X2688602D01*
X3315001Y3665001D02*
X3360003Y3620000D01*
X3305001Y3675001D02*
X3315001Y3665001D01*
X5103602Y3229203D02*
X5125001Y3207804D01*
Y3127804D02*
Y3207804D01*
Y3127804D02*
X5143602Y3109203D01*
X6045000Y4110000D02*
X6070000Y4085000D01*
X4573605Y3506397D02*
Y3825001D01*
X4640000Y4035000D02*
X4715000D01*
X4580000Y3975000D02*
X4640000Y4035000D01*
X5750000Y4110000D02*
X6045000D01*
X5333005Y4110001D02*
X5460001D01*
X7209599Y395404D02*
Y515402D01*
X1365000Y5350000D02*
X1365001Y5350001D01*
X1365000Y5220000D02*
Y5350000D01*
X5005800Y3229203D02*
X5103602D01*
X1720000Y4845000D02*
X1795000Y4770000D01*
X1900000D01*
X1910000Y4760000D01*
X2221860D01*
X3930000Y3302500D02*
X4082500D01*
X3770003Y3625000D02*
X3830001Y3565001D01*
X4000001D01*
D60*
X7854999Y2165001D02*
X7950000Y2070000D01*
X7765001Y2165001D02*
X7854999D01*
X6955864Y2275001D02*
X7655001D01*
X7765001Y2165001D01*
X6955863Y2275000D02*
X6955864Y2275001D01*
X4421104Y1880000D02*
Y2005704D01*
Y1735704D02*
Y1880000D01*
X3673601Y1164202D02*
X3705000Y1132802D01*
X2566104Y1750704D02*
X2991103D01*
X4552501Y2757501D02*
X4623607Y2828607D01*
X6420000Y1620000D02*
X6495000D01*
X6275001Y1475001D02*
X6420000Y1620000D01*
X4265000Y4110000D02*
X4395000D01*
X4265000Y3980000D02*
X4375000D01*
X7430003Y4100000D02*
X7455000D01*
X3782383Y1165000D02*
X3832008Y1115375D01*
X3680000Y1165000D02*
X3782383D01*
X3705000Y580000D02*
X3705000Y580000D01*
Y790000D01*
Y1132802D01*
X5784203Y3224203D02*
X5808602D01*
X5695001Y3135001D02*
X5784203Y3224203D01*
X5695001Y3097501D02*
Y3135001D01*
X5888602Y3305564D02*
Y3513602D01*
X4734204Y3289204D02*
X4775001Y3330001D01*
X4678605Y3289204D02*
X4734204D01*
X5233602Y3229203D02*
Y3329203D01*
Y3429203D02*
Y3509203D01*
X5263602Y3539203D01*
X4240001Y4160001D02*
X4265000Y4135003D01*
X3890001Y4160001D02*
X4240001D01*
X3840000Y4110000D02*
X3890001Y4160001D01*
X3230001Y4100001D02*
X3240000Y4110000D01*
X3485000D01*
X3205001Y3920001D02*
X3265000Y3980000D01*
X3485000D01*
X4265000Y4110000D02*
Y4135003D01*
X3655000Y4110000D02*
X3840000D01*
X4265000Y3979203D02*
Y3980000D01*
X4205001Y3875001D02*
X4265000Y3935000D01*
X3965002Y3875001D02*
X4205001D01*
X3860003Y3980000D02*
X3965002Y3875001D01*
X3655000Y3980000D02*
X3860003D01*
X5525001Y5600001D02*
X5643602Y5718602D01*
X4900001Y1790001D02*
X5045003Y1645000D01*
X5070000D01*
X4973602Y6024203D02*
Y6153602D01*
X5195001Y6375001D01*
X5735001Y1000001D02*
X5815000Y920002D01*
Y772500D02*
Y920002D01*
X4372500Y2282500D02*
X4515001Y2425001D01*
X3350000Y2282500D02*
X4372500D01*
X2922500Y2347500D02*
X3075001Y2500001D01*
X2770000Y2347500D02*
X2922500D01*
X2887500Y2412500D02*
X2980001Y2505001D01*
X2770000Y2412500D02*
X2887500D01*
X4425000Y2020000D02*
X4490003D01*
X4525002Y1985000D01*
Y1880000D02*
Y1985000D01*
X3350000Y2347500D02*
X3842500D01*
X3350000Y2412500D02*
X3812500D01*
X3750001Y2540001D02*
Y2704999D01*
X3687500Y2477500D02*
X3750001Y2540001D01*
X3350000Y2477500D02*
X3687500D01*
X6827500Y2275000D02*
X6955863D01*
X6827500Y2037502D02*
X6845001Y2020001D01*
X6827500Y2037502D02*
Y2085000D01*
X6725000Y2275000D02*
X6827500D01*
X6670001Y2220001D02*
X6725000Y2275000D01*
X6670001Y2155001D02*
Y2220001D01*
X4695001Y1460001D02*
X4725003Y1430000D01*
X4815000D01*
X4623607Y2828607D02*
Y2884205D01*
X5000001Y3235001D02*
X5005800Y3229203D01*
X5868602Y2376398D02*
X5870000Y2375000D01*
X5973603Y3329201D02*
X5988602Y3314203D01*
X5973603Y3329201D02*
Y3409204D01*
X5888602Y3305564D02*
X5890001Y3304164D01*
Y3250001D02*
Y3304164D01*
X5864203Y3224203D02*
X5890001Y3250001D01*
X5808602Y3224203D02*
X5864203D01*
X4455000Y1005000D02*
X5282500D01*
X4373000Y923000D02*
X4455000Y1005000D01*
X4373000Y867000D02*
Y923000D01*
X5145000Y1055000D02*
X5282500D01*
X5030000Y1170000D02*
X5145000Y1055000D01*
X5170003Y1105000D02*
X5282500D01*
X5085001Y1190001D02*
X5170003Y1105000D01*
X5185003Y1155000D02*
X5282500D01*
X5120001Y1220001D02*
X5185003Y1155000D01*
X5070001Y2003804D02*
X5508229D01*
X4787300D02*
X5070000D01*
Y1835000D02*
Y2003804D01*
Y1570003D02*
Y1645000D01*
Y1570003D02*
X5165001Y1475001D01*
Y1275001D02*
Y1475001D01*
Y1275001D02*
X5185003Y1255000D01*
X5282500D01*
X5100003Y1430000D02*
X5120001Y1410001D01*
Y1220001D02*
Y1410001D01*
X5070003Y1300000D02*
X5085001Y1285001D01*
Y1190001D02*
Y1285001D01*
X4415000Y1880000D02*
X4421104D01*
X4525002D02*
X4585001Y1820001D01*
X3109299Y1755704D02*
X3120001Y1745001D01*
X2996103Y1755704D02*
X3109299D01*
X2755001Y2050001D02*
X2805001Y2000001D01*
Y1946806D02*
Y2000001D01*
Y1946806D02*
X2806104Y1945704D01*
X1698336Y1091667D02*
X1725001Y1065001D01*
X1588602Y1091667D02*
X1698336D01*
X2396103Y1750704D02*
X2401103Y1755704D01*
X2566104D01*
X2453602Y1324203D02*
X2453603Y1324203D01*
X2633602D01*
Y1524203D01*
X1660001Y1320001D02*
X1698102Y1358102D01*
X1475002Y1320001D02*
X1660001D01*
X1424203Y1269203D02*
X1475002Y1320001D01*
X1238602Y1269203D02*
X1424203D01*
X1698102Y1358102D02*
Y1484803D01*
X1825102Y1379900D02*
Y1484803D01*
Y1379900D02*
X1880800Y1324203D01*
X2283602D01*
X2688602Y3624203D02*
X2694399Y3630000D01*
X6275001Y1295001D02*
Y1475001D01*
X6185000Y1205000D02*
X6275001Y1295001D01*
X6097500Y1205000D02*
X6185000D01*
X6930000Y1370000D02*
X6955000Y1345000D01*
X7140000D01*
X6205000Y1155000D02*
X6305001Y1255001D01*
X6097500Y1155000D02*
X6205000D01*
X6305001Y1255001D02*
X6755001D01*
X6310000Y1105000D02*
X6355000Y1150000D01*
X6097500Y1105000D02*
X6310000D01*
X6755001Y1255001D02*
X6870000Y1370000D01*
X5965000Y1587500D02*
Y1730000D01*
X6310000Y2075000D01*
Y2240000D01*
X5915000Y1587500D02*
Y1755000D01*
X6230000Y2070000D01*
Y2240000D01*
X6070000Y1985000D02*
Y2240000D01*
X5865000Y1780000D02*
X6070000Y1985000D01*
X5865000Y1587500D02*
Y1780000D01*
X6150000Y2240000D02*
Y2275003D01*
X6115001Y2310001D02*
X6150000Y2275003D01*
X6017200Y2310001D02*
X6115001D01*
X5985001Y2277802D02*
X6017200Y2310001D01*
X5985001Y1960001D02*
Y2277802D01*
X5950001Y1925001D02*
X5985001Y1960001D01*
X5634646Y1925001D02*
X5950001D01*
X5615001Y1905357D02*
X5634646Y1925001D01*
X5615001Y1745001D02*
Y1905357D01*
Y1745001D02*
X5635001Y1725001D01*
X5730001D01*
X5765000Y1690002D01*
Y1587500D02*
Y1690002D01*
X6060001Y2636404D02*
Y2652806D01*
Y2620001D02*
Y2636404D01*
X6123599Y2700001D01*
X6364999D01*
X6440000Y2625000D01*
X6230001Y2620001D02*
X6355001Y2495001D01*
X6600001D01*
X6640001Y2535002D01*
Y2980001D01*
X6600001Y3020002D02*
X6640001Y2980001D01*
X6155001Y3020002D02*
X6600001D01*
X5822501Y2566815D02*
X5989316Y2400000D01*
X6070000D01*
X5883604Y2555210D02*
X5974609Y2464204D01*
X6108651D01*
X6150000Y2422855D01*
Y2400000D02*
Y2422855D01*
X5918604Y2569707D02*
X5989106Y2499204D01*
X6175798D01*
X6230000Y2445003D01*
Y2400000D02*
Y2445003D01*
X6310000Y2400000D02*
Y2435002D01*
X6210798Y2534204D02*
X6310000Y2435002D01*
X6003603Y2534204D02*
X6210798D01*
X4815000Y1430000D02*
X4825355D01*
X4895000Y1360355D01*
Y1239645D02*
Y1360355D01*
X4825355Y1170000D02*
X4895000Y1239645D01*
X4815000Y1170000D02*
X4825355D01*
X4985000D02*
X5030000D01*
X4985000Y1300000D02*
X5070003D01*
X4985000Y1430000D02*
X5100003D01*
X5645001Y2552806D02*
Y2592501D01*
Y2552806D02*
X5683604Y2514204D01*
X5595002Y2542806D02*
Y2592501D01*
Y2542806D02*
X5638603Y2499204D01*
X5822501Y2920001D02*
X5955002D01*
X5980001Y2895002D01*
X6073602Y2779203D02*
Y2801401D01*
X5980001Y2895002D02*
X6073602Y2801401D01*
X5990442Y2722008D02*
X6008247Y2704203D01*
X6008605D01*
X6060001Y2652806D01*
X5953604Y2584204D02*
X6003603Y2534204D01*
X5822501Y2720001D02*
X5867807D01*
X5883604Y2704204D01*
Y2555210D02*
Y2704204D01*
X5822501Y2566815D02*
Y2670001D01*
Y2870001D02*
X5889646D01*
X5822501Y2770001D02*
X5887806D01*
X5918604Y2739204D01*
Y2569707D02*
Y2739204D01*
X5822501Y2820001D02*
X5890149D01*
X5953604Y2756547D01*
Y2584204D02*
Y2756547D01*
X5889646Y2870001D02*
X5990442Y2769206D01*
Y2722008D02*
Y2769206D01*
X5745001Y2435002D02*
Y2592501D01*
X5745001Y2435002D02*
X5745001Y2435002D01*
X5568602Y2424203D02*
Y2509206D01*
X5545001Y2532806D02*
X5568602Y2509206D01*
X5545001Y2532806D02*
Y2592501D01*
X5274401Y2720001D02*
X5317501D01*
X5243603Y2689204D02*
X5274401Y2720001D01*
X5243603Y2379204D02*
Y2689204D01*
X5209401Y2345001D02*
X5243603Y2379204D01*
X5155001Y2345001D02*
X5209401D01*
X5269400Y2770001D02*
X5317501D01*
X5198604Y2699204D02*
X5269400Y2770001D01*
X5198604Y2538604D02*
Y2699204D01*
X5155001Y2495002D02*
X5198604Y2538604D01*
X5095001Y2855002D02*
X5110001Y2870001D01*
X5313300Y2924203D02*
X5317501Y2920001D01*
X4958602Y2924203D02*
X5313300D01*
X4938602Y2904203D02*
X4958602Y2924203D01*
X4938602Y2844203D02*
Y2904203D01*
X5266900Y3097501D02*
X5395001D01*
X5238603Y3069204D02*
X5266900Y3097501D01*
X5238603Y3029204D02*
Y3069204D01*
X5229401Y3020001D02*
X5317501D01*
X5198602Y2989203D02*
X5229401Y3020001D01*
X5238603Y3029204D01*
X5143602Y2989203D02*
X5198602D01*
X5143602D02*
Y3109203D01*
X5143602Y3109203D02*
X5143602Y3109203D01*
X5822501Y2970001D02*
X5935001D01*
X5985001Y3020002D01*
X6135001Y3170002D01*
X6155001D01*
X5745001Y2435002D02*
X5767806D01*
X5818605Y2384203D01*
X5445001Y2482806D02*
Y2592501D01*
Y2482806D02*
X5503604Y2424203D01*
X5568602D01*
X5458602Y2314203D02*
X5568602Y2424203D01*
X5448602Y2314203D02*
X5458602D01*
X5110001Y2870001D02*
X5317501D01*
X5133601Y2799204D02*
X5188604D01*
X5088602Y2844203D02*
X5133601Y2799204D01*
X6153602Y3171401D02*
X6155001Y3170002D01*
X4623605Y3009206D02*
Y3134204D01*
Y3009206D02*
X4623606Y3009205D01*
Y2884205D02*
Y3009205D01*
Y2884205D02*
X4623607Y2884205D01*
X4573605Y3079206D02*
Y3134204D01*
X4493604Y2999204D02*
X4573605Y3079206D01*
X4199204Y2999204D02*
X4493604D01*
X4523605Y3084206D02*
Y3134204D01*
X4473603Y3034204D02*
X4523605Y3084206D01*
X4169204Y3034204D02*
X4473603D01*
X4139603Y1749204D02*
X4233104D01*
X4111105Y1720705D02*
X4139603Y1749204D01*
X4111105Y1655705D02*
Y1720705D01*
X4077603Y1622204D02*
X4111105Y1655705D01*
X3979104Y1622204D02*
X4077603D01*
X4151104Y1495704D02*
Y1548704D01*
X4077603Y1622204D02*
X4151104Y1548704D01*
X3924371Y1495704D02*
X3981104D01*
X3801103Y1618971D02*
X3924371Y1495704D01*
X3801103Y1618971D02*
Y1755704D01*
X3807604Y1749204D02*
X3979104D01*
X3801103Y1755704D02*
X3807604Y1749204D01*
X4233104Y1685704D02*
X4371104D01*
X4421104Y1735704D01*
X4731105Y2110705D02*
X4781103Y2060707D01*
X4121105Y2110705D02*
X4731105D01*
X4056105Y2045705D02*
X4121105Y2110705D01*
X4056105Y1960706D02*
Y2045705D01*
X3991104Y1895704D02*
X4056105Y1960706D01*
X3811104Y1895704D02*
X3991104D01*
X2991103Y1750704D02*
X2996103Y1755704D01*
X2806104Y1945704D02*
X2996103D01*
X3243604Y1902204D02*
Y2033204D01*
X2996103Y1945704D02*
X3091603D01*
X3171104Y2025204D01*
X1698102Y1484803D02*
X1825102D01*
X1468602Y1669203D02*
X1888605D01*
X1952102Y1605706D01*
Y1484803D02*
Y1605706D01*
X1028602Y1269203D02*
X1238602D01*
X5508229Y2003804D02*
X5525001Y2020576D01*
X4781103Y2010001D02*
X4787300Y2003804D01*
X4781103Y1665704D02*
Y2010001D01*
Y2060707D01*
X5525001Y2020576D02*
X5525576D01*
X5638603Y2133604D01*
Y2499204D01*
X5815000Y1587500D02*
Y1740000D01*
X5720000Y1835000D02*
X5815000Y1740000D01*
X5683604Y2061396D02*
Y2514204D01*
Y2061396D02*
X5720000Y2025000D01*
X4265000Y3935000D02*
Y3950000D01*
Y3979203D01*
X6153602Y3171401D02*
Y3319203D01*
X6355000Y1150000D02*
X6560000D01*
X3171104Y2025204D02*
Y2105704D01*
X3243604Y2033204D01*
X3842500Y2347500D02*
X4115001Y2620001D01*
X3812500Y2412500D02*
X4070001Y2670001D01*
X4115001Y2620001D02*
Y2915001D01*
X4199204Y2999204D01*
X4070001Y2670001D02*
Y2935001D01*
X4169204Y3034204D01*
X3735000Y2720000D02*
X3750001Y2704999D01*
D61*
X5393602Y3539203D02*
Y3805001D01*
X6390001Y1740001D02*
X6405000D01*
X5270000Y785000D02*
Y892499D01*
X1952102Y2210000D02*
Y2317102D01*
Y2043603D02*
Y2210000D01*
X6220001Y1570001D02*
X6390001Y1740001D01*
X6220001Y1335001D02*
Y1570001D01*
X3078601Y3269202D02*
X3517499D01*
X4240001Y3979203D02*
X4265000D01*
X1658601Y3269201D02*
X1708601Y3319201D01*
X1763601D01*
X1708601Y3219201D02*
X1763601D01*
X4468605Y3339204D02*
X4678605D01*
X4468605Y3239204D02*
X4678605D01*
X4468605Y3211397D02*
Y3239204D01*
Y3339204D02*
Y3360001D01*
X4734204Y3158082D02*
Y3220799D01*
X2270000Y2755000D02*
X2290000Y2775000D01*
X2460000D01*
X2235001Y2895001D02*
X2270000Y2860003D01*
Y2755000D02*
Y2860003D01*
X5265001Y1530001D02*
X5310000Y1575000D01*
Y1635000D01*
X5595002Y3117501D02*
Y3185001D01*
X2497500Y2737500D02*
X2770000D01*
X3350000D01*
X1025000Y3480000D02*
X1135000D01*
X1015001Y3470001D02*
X1025000Y3480000D01*
X2050001Y2425001D02*
Y2445001D01*
X1095003Y3090000D02*
X1135000D01*
X1045001Y3140001D02*
X1095003Y3090000D01*
X1865001Y2530001D02*
X1870001D01*
X1912501Y2487501D01*
X2067502D01*
X2070001Y2485001D01*
X2581570Y2445001D02*
X2614068Y2477500D01*
X2770000D01*
X2070001Y2485001D02*
X2565001D01*
X2622500Y2542500D01*
X2770000D01*
X4695001Y1340001D02*
Y1370001D01*
Y1340001D02*
X4735003Y1300000D01*
X4815000D01*
X1755000Y765003D02*
X1755001Y765001D01*
X1755000Y765003D02*
Y900000D01*
X1790001Y935001D01*
Y1105001D01*
X1738311Y1156691D02*
X1790001Y1105001D01*
X1588602Y1156691D02*
X1738311D01*
X5865000Y772500D02*
Y1005002D01*
X5705001Y1165001D02*
X5865000Y1005002D01*
X5970003Y1405000D02*
X6097500D01*
X5920001Y1455001D02*
X5970003Y1405000D01*
X5835001Y1455001D02*
X5920001D01*
X5785001Y1405002D02*
X5835001Y1455001D01*
X5785001Y1320001D02*
Y1405002D01*
X5750001Y1285001D02*
X5785001Y1320001D01*
X5565000Y1125003D02*
X5575001Y1115001D01*
X5565000Y1125003D02*
Y1587500D01*
X5515000Y1175000D02*
Y1587500D01*
X5490001Y1150001D02*
X5515000Y1175000D01*
X4373000Y547003D02*
Y613000D01*
Y547003D02*
X4460001Y460001D01*
X5030001D01*
X5085001Y515001D01*
Y593893D01*
X5188609Y697501D01*
X5377501D01*
X5415000Y735000D01*
Y772500D01*
X5870001Y1385001D02*
X5892501Y1362501D01*
X5943818D01*
X5951320Y1355000D01*
X6097500D01*
X4591103Y1701103D02*
X4680001Y1790001D01*
X4591103Y1665704D02*
Y1701103D01*
X7314601Y835401D02*
X7315001Y835001D01*
X7209599Y835401D02*
X7314601D01*
X7209599D02*
Y995402D01*
Y675401D02*
Y835401D01*
X5920001Y1305001D02*
X5920003Y1305000D01*
X6097500D01*
X6170000Y685000D02*
X6220001Y735001D01*
X6110000Y685000D02*
X6170000D01*
X5270000Y785000D02*
X5325002D01*
X5250000D02*
X5270000D01*
X5325002D02*
X5345001Y765001D01*
X1960001Y2430001D02*
X1965000Y2425003D01*
Y2330000D02*
Y2425003D01*
X4389854Y1622204D02*
X4421029Y1591029D01*
X4495704Y1665704D02*
X4591103D01*
X4233104Y1622204D02*
X4389854D01*
X3631103Y1895704D02*
X3641104D01*
X3408604Y1902204D02*
X3634604D01*
X3631103Y1755704D02*
Y1885704D01*
X3661041Y1176761D02*
X3673601Y1164202D01*
X3523601Y1176761D02*
X3661041D01*
X1952102Y2010001D02*
Y2043603D01*
Y2210000D02*
X1965000D01*
X1765000D02*
X1952102D01*
X1698102Y2043603D02*
Y2143102D01*
X1765000Y2210000D01*
X1952102Y2317102D02*
X1965000Y2330000D01*
X1952102Y2010001D02*
X1965000Y2022899D01*
X5755000Y510000D02*
X5765000Y520000D01*
Y772500D01*
X1355000Y3135000D02*
Y3220000D01*
X1310000Y3090000D02*
X1355000Y3135000D01*
X1305000Y3480000D02*
X1355000Y3430000D01*
Y3350000D02*
Y3430000D01*
Y3350000D02*
X1385799Y3319201D01*
X1553601D01*
X1552802Y3220000D02*
X1553601Y3219201D01*
X1355000Y3220000D02*
X1552802D01*
X6097500Y1305000D02*
X6190000D01*
X6220001Y1335001D01*
X6022500Y772500D02*
X6110000Y685000D01*
X5965000Y772500D02*
X6022500D01*
X6097500Y905000D02*
X6110000Y892500D01*
Y685000D02*
Y892500D01*
X5367500Y1635000D02*
X5415000Y1587500D01*
X5310000Y1635000D02*
X5367500D01*
X5320001Y2430001D02*
Y2667501D01*
X5317501Y2670001D02*
X5320001Y2667501D01*
X5645001Y3097501D02*
Y3140001D01*
X5695001Y3190001D01*
X1285000Y3090000D02*
X1305000D01*
X1310000D01*
X2050001Y2445001D02*
X2581570D01*
X4421029Y1591029D02*
X4495704Y1665704D01*
D62*
X1372500Y5227500D02*
X1547500D01*
X568602Y5804203D02*
X1103602D01*
X1108602Y5809203D02*
Y5883603D01*
X1200000Y5975000D01*
X1303602Y5871398D01*
Y5804203D02*
Y5871398D01*
X1665003Y4845000D02*
X1720000D01*
X1587502Y4922500D02*
X1665003Y4845000D01*
X1547500Y4922500D02*
X1587502D01*
X1365000Y5220000D02*
X1372500Y5227500D01*
X1547500Y5112500D02*
Y5227500D01*
X4570362Y6027683D02*
X4573842Y6024203D01*
X4803602D01*
X4173602Y6124203D02*
X4176142Y6121663D01*
X4346842D01*
X3773602Y6124203D02*
X3983602D01*
X3773602Y5994203D02*
X3871102Y5896703D01*
Y5814703D02*
Y5896703D01*
X3773602Y5994203D02*
Y6124203D01*
X5263602Y5754203D02*
X5473602D01*
X5093602Y5574203D02*
Y5754203D01*
X4893602D02*
X5093602D01*
X4718602Y5759203D02*
X4723602Y5754203D01*
X4508602Y5759203D02*
X4718602D01*
Y5569203D02*
X4723602Y5574203D01*
X4508602Y5569203D02*
X4718602D01*
X4503602Y5564203D02*
X4508602Y5569203D01*
X4293602Y5564203D02*
X4503602D01*
X4120102Y5560703D02*
X4123602Y5564203D01*
X3871102Y5560703D02*
X4120102D01*
X3871102Y5433703D02*
X3943602Y5361203D01*
Y5224203D02*
Y5361203D01*
X3758602Y5059203D02*
X3783602Y5034203D01*
X3346102Y5241703D02*
X3358602Y5229203D01*
X3346102Y5241703D02*
Y5433703D01*
X3083602Y5664203D02*
X3107102Y5687703D01*
X3346102D01*
X3345602Y5814203D02*
X3346102Y5814703D01*
X3073602Y5814203D02*
X3345602D01*
X2700000Y5330000D02*
X2758602Y5388602D01*
Y5639203D01*
X2893602Y5804203D02*
X2903602Y5814203D01*
X2363602Y5794203D02*
X2373602Y5804203D01*
X1833602D02*
X1843602Y5794203D01*
X3358602Y5059203D02*
X3758602D01*
X1493602Y5804203D02*
X1833602D01*
X2033602Y5794203D02*
X2363602D01*
X2563602Y5804203D02*
X2893602D01*
X3517500Y3250001D02*
X3517501Y3295001D01*
D63*
X7410001Y615001D02*
Y1395001D01*
X6845001Y1960001D02*
X7410001Y1395001D01*
X6775149Y2005001D02*
X6820149Y1960001D01*
X6730001Y2005001D02*
X6775149D01*
X6820149Y1960001D02*
X6845001D01*
X4573605Y3444204D02*
Y3506397D01*
X5495001Y3193077D02*
Y3200001D01*
Y3193077D02*
X5545001Y3143078D01*
Y3097501D02*
Y3143078D01*
X4385001Y3299204D02*
X4468605Y3289204D01*
X1763601Y3269201D02*
X1820525D01*
X2460000Y2585000D02*
X2482500Y2607500D01*
X2770000D01*
X6730001Y2005001D02*
Y2145001D01*
X6650001Y2005001D02*
Y2019981D01*
X6649987Y2019996D02*
X6650001Y2019981D01*
Y2005001D02*
X6730001D01*
X7310402Y515402D02*
X7410001Y615001D01*
X7209599Y515402D02*
X7310402D01*
X6730001Y2145001D02*
X6765000Y2180000D01*
X6827500D01*
D64*
X2380000Y3120000D02*
Y3237500D01*
D65*
X5283003Y4060000D02*
X5333005Y4110001D01*
X678602Y1479203D02*
X683602Y1484203D01*
X508602Y1479203D02*
X678602D01*
X4570362Y6220723D02*
X4629641Y6280001D01*
X4745001D01*
X3125001Y5210001D02*
X3130000Y5205003D01*
Y5020000D02*
Y5205003D01*
X2851780Y4991140D02*
X2880640Y5020000D01*
X3130000D01*
X683602Y1484203D02*
Y1674203D01*
D66*
X3495001Y910001D02*
X3515000Y890003D01*
Y790000D02*
Y890003D01*
X3370001Y475001D02*
Y579999D01*
Y580001D02*
Y1075001D01*
Y580001D02*
X3370003Y580000D01*
X3515000D01*
X3280001Y1065001D02*
X3310001Y1035001D01*
X3233313Y1111690D02*
X3280001Y1065001D01*
X3245001Y1015001D02*
X3280001Y1050001D01*
Y1065001D01*
X3280001Y1165001D02*
X3370001Y1075001D01*
X3268289Y1176714D02*
X3280001Y1165001D01*
X3315001D02*
X3355001Y1205001D01*
X3280001Y1165001D02*
X3315001D01*
X3636268Y2560001D02*
X3675001D01*
X3635268Y2559001D02*
X3636268Y2560001D01*
X3584735Y2559001D02*
X3635268D01*
X3536236Y2607500D02*
X3584735Y2559001D01*
X3350000Y2607500D02*
X3536236D01*
X3557503Y2672500D02*
X3610001Y2620001D01*
X3350000Y2672500D02*
X3557503D01*
X6853659Y995402D02*
X7039599D01*
X6853659Y835401D02*
X7039599D01*
X6853659Y675401D02*
X7039599D01*
X6853659Y515402D02*
X7039599D01*
X6550401D02*
X6655539D01*
X6485001Y450001D02*
X6550401Y515402D01*
X6485001Y390001D02*
Y450001D01*
X6320001Y225001D02*
X6485001Y390001D01*
X5645001Y225001D02*
X6320001D01*
X5465000Y405002D02*
X5645001Y225001D01*
X5465000Y405002D02*
Y772500D01*
X5515000Y430003D02*
Y772500D01*
Y430003D02*
X5655002Y290001D01*
X6285001D01*
X6430001Y435001D01*
Y620001D01*
X6485402Y675401D01*
X6655539D01*
X6465401Y835401D02*
X6655539D01*
X6370001Y740001D02*
X6465401Y835401D01*
X6370001Y450001D02*
Y740001D01*
X6265001Y345001D02*
X6370001Y450001D01*
X5680001Y345001D02*
X6265001D01*
X5565000Y460003D02*
X5680001Y345001D01*
X5565000Y460003D02*
Y772500D01*
X5615000Y495003D02*
Y772500D01*
Y495003D02*
X5715002Y395001D01*
X6230001D01*
X6309601Y474601D01*
Y884601D01*
X6420402Y995402D01*
X6655539D01*
X5640002Y888734D02*
X5665000Y863736D01*
X5640002Y888734D02*
Y904851D01*
X5665000Y772500D02*
Y863736D01*
X5359989Y469989D02*
Y479999D01*
X5316001Y426001D02*
X5359989Y469989D01*
X5316001Y384734D02*
Y426001D01*
X5280268Y349001D02*
X5316001Y384734D01*
X3421001Y349001D02*
X5280268D01*
X3310001Y460001D02*
X3421001Y349001D01*
X3310001Y460001D02*
Y1035001D01*
X3083601Y1111690D02*
X3233313D01*
X2243313D02*
X3083601D01*
X5715000Y772500D02*
Y879852D01*
X3435001Y410001D02*
X5255001D01*
X3370001Y475001D02*
X3435001Y410001D01*
X3083601Y1176714D02*
X3268289D01*
X2198264Y1156739D02*
X2243313Y1111690D01*
X2028602Y1156739D02*
X2198264D01*
X2028602Y1221763D02*
X2243240D01*
X2288289Y1176714D01*
X3083601D01*
X3233602Y1524203D02*
X3243604Y1534204D01*
Y1789204D01*
X2823602Y1524203D02*
X3233602D01*
X508602Y1231400D02*
Y1309203D01*
Y1231400D02*
X713360Y1026643D01*
X1588602D01*
X1463602Y1674203D02*
X1468602Y1669203D01*
X1223602Y1674203D02*
X1463602D01*
X1028602Y1459203D02*
X1238602D01*
X1028602D02*
X1053602Y1484203D01*
Y1674203D01*
X853602D02*
X1053602D01*
D67*
X6430000Y2180000D02*
X6562500D01*
X6515002D02*
X6562500D01*
X6480001Y2215001D02*
X6515002Y2180000D01*
D68*
X2221860Y4760000D02*
X2851780D01*
D69*
X2378750Y3547500D02*
D03*
X6338750Y4277500D02*
D03*
D70*
X2380000Y3317500D02*
D03*
X6340000Y4047500D02*
D03*
D71*
X4624814Y3415745D02*
D03*
X4520092Y3417979D02*
D03*
D72*
X4596615Y3228780D02*
D03*
D73*
X4571628Y3339883D02*
D03*
D74*
X7560699Y4142900D02*
D03*
D75*
X8265001Y4040001D02*
D03*
X1175001Y2625001D02*
D03*
X1165001Y3660001D02*
D03*
X1135001Y4675001D02*
D03*
D76*
X7775001Y4070001D02*
D03*
D77*
X4575740Y3193381D02*
D03*
D78*
X4355000Y3141337D02*
D03*
D79*
X4932501Y3520001D02*
D03*
D80*
X7950000Y2319999D02*
D03*
X7750001D02*
D03*
X7749998Y2070000D02*
D03*
X7950000D02*
D03*
D81*
X8221000Y1593001D02*
D03*
Y2797001D02*
D03*
D82*
X8800001Y6500001D02*
D03*
X500000Y6500000D02*
D03*
X8800001Y500001D02*
D03*
X500000Y500000D02*
D03*
D83*
X4119000Y867000D02*
D03*
D84*
Y613000D02*
D03*
X4373000Y867000D02*
D03*
Y613000D02*
D03*
X4627000Y867000D02*
D03*
Y613000D02*
D03*
X4881000Y867000D02*
D03*
Y613000D02*
D03*
D85*
X2700000Y5330000D02*
D03*
D86*
X2446000D02*
D03*
D87*
X568602Y5804203D02*
D03*
X314602Y6058203D02*
D03*
Y5550203D02*
D03*
X822602D02*
D03*
Y6058203D02*
D03*
X583600Y2724201D02*
D03*
X329600Y2978201D02*
D03*
Y2470201D02*
D03*
X837600D02*
D03*
Y2978201D02*
D03*
X573602Y4789203D02*
D03*
X319602Y5043203D02*
D03*
Y4535203D02*
D03*
X827602D02*
D03*
Y5043203D02*
D03*
X583601Y3769202D02*
D03*
X329601Y4023202D02*
D03*
Y3515202D02*
D03*
X837601D02*
D03*
Y4023202D02*
D03*
X8885000Y4160000D02*
D03*
X8631000Y4414000D02*
D03*
Y3906000D02*
D03*
X9139000D02*
D03*
Y4414000D02*
D03*
D88*
X7560000Y4090000D02*
D03*
Y4210000D02*
D03*
X5450002Y2965001D02*
D03*
X5570001D02*
D03*
X5690001D02*
D03*
X5450002Y2845001D02*
D03*
X5570001D02*
D03*
X5690001D02*
D03*
X5450002Y2725001D02*
D03*
X5570001D02*
D03*
X5690001D02*
D03*
X1658601Y3209201D02*
D03*
Y3329201D02*
D03*
D89*
X9154988Y6214999D02*
D03*
Y5614999D02*
D03*
Y5014999D02*
D03*
Y3215000D02*
D03*
Y2615000D02*
D03*
Y2015000D02*
D03*
Y1415000D02*
D03*
Y815001D02*
D03*
X8854988Y6814999D02*
D03*
Y6214999D02*
D03*
X9004988Y5914999D02*
D03*
X8854988Y5614999D02*
D03*
X9004988Y5314999D02*
D03*
X8854988Y5014999D02*
D03*
X9004988Y4714999D02*
D03*
X8854988Y4415000D02*
D03*
Y3815000D02*
D03*
Y3215000D02*
D03*
Y2615000D02*
D03*
Y2015000D02*
D03*
X9004988Y1115001D02*
D03*
X8854988Y815001D02*
D03*
Y215001D02*
D03*
X8554988Y6814999D02*
D03*
Y6214999D02*
D03*
X8704988Y5914999D02*
D03*
X8554988Y5614999D02*
D03*
X8704988Y5314999D02*
D03*
X8554988Y5014999D02*
D03*
X8704988Y4714999D02*
D03*
Y3515000D02*
D03*
X8554988Y3215000D02*
D03*
X8704988Y2915000D02*
D03*
X8554988Y2615000D02*
D03*
X8704988Y2315000D02*
D03*
X8554988Y2015000D02*
D03*
X8704988Y1715000D02*
D03*
X8554988Y1415000D02*
D03*
Y815001D02*
D03*
Y215001D02*
D03*
X8254988Y6814999D02*
D03*
X8404988Y6514999D02*
D03*
X8254988Y6214999D02*
D03*
X8404988Y5914999D02*
D03*
X8254988Y5614999D02*
D03*
X8404988Y5314999D02*
D03*
X8254988Y5014999D02*
D03*
X8404988Y4714999D02*
D03*
X8254988Y4415000D02*
D03*
Y3815000D02*
D03*
X8404988Y3515000D02*
D03*
X8254988Y3215000D02*
D03*
X8404988Y2315000D02*
D03*
X8254988Y2015000D02*
D03*
X8404988Y1115001D02*
D03*
Y515001D02*
D03*
X8254988Y215001D02*
D03*
X7954988Y6814999D02*
D03*
X8104988Y6514999D02*
D03*
X7954988Y6214999D02*
D03*
X8104988Y5914999D02*
D03*
X7954988Y5614999D02*
D03*
X8104988Y5314999D02*
D03*
X7954988Y5014999D02*
D03*
X8104988Y4714999D02*
D03*
X7954988Y3815000D02*
D03*
X8104988Y3515000D02*
D03*
X7954988Y3215000D02*
D03*
Y2615000D02*
D03*
X8104988Y2315000D02*
D03*
X7954988Y1415000D02*
D03*
X8104988Y1115001D02*
D03*
X7954988Y815001D02*
D03*
Y215001D02*
D03*
X7654988Y6814999D02*
D03*
X7804988Y6514999D02*
D03*
X7654988Y6214999D02*
D03*
X7804988Y5914999D02*
D03*
X7654988Y5614999D02*
D03*
X7804988Y5314999D02*
D03*
X7654988Y5014999D02*
D03*
Y4415000D02*
D03*
Y3815000D02*
D03*
X7804988Y3515000D02*
D03*
X7654988Y3215000D02*
D03*
Y2615000D02*
D03*
X7804988Y1715000D02*
D03*
X7654988Y1415000D02*
D03*
X7804988Y1115001D02*
D03*
X7654988Y815001D02*
D03*
X7804988Y515001D02*
D03*
X7654988Y215001D02*
D03*
X7354988Y6814999D02*
D03*
X7504988Y6514999D02*
D03*
X7354988Y6214999D02*
D03*
X7504988Y5914999D02*
D03*
X7354988Y5614999D02*
D03*
X7504988Y5314999D02*
D03*
Y3515000D02*
D03*
X7354988Y3215000D02*
D03*
X7504988Y2915000D02*
D03*
X7354988Y2615000D02*
D03*
X7504988Y1715000D02*
D03*
Y1115001D02*
D03*
Y515001D02*
D03*
X7354988Y215001D02*
D03*
X7054988Y6814999D02*
D03*
X7204988Y6514999D02*
D03*
X7054988Y6214999D02*
D03*
X7204988Y5914999D02*
D03*
X7054988Y5614999D02*
D03*
X7204988Y5314999D02*
D03*
Y4714999D02*
D03*
Y3515000D02*
D03*
X7054988Y3215000D02*
D03*
X7204988Y2915000D02*
D03*
X7054988Y2615000D02*
D03*
X7204988Y1715000D02*
D03*
X6754988Y6814999D02*
D03*
X6904988Y6514999D02*
D03*
X6754988Y6214999D02*
D03*
X6904988Y5914999D02*
D03*
Y1715000D02*
D03*
X6754988Y1415000D02*
D03*
X6454988Y6814999D02*
D03*
X6604988Y6514999D02*
D03*
X6454988Y5614999D02*
D03*
X6604988Y5314999D02*
D03*
Y4115000D02*
D03*
X6454988Y3815000D02*
D03*
X6604988Y3515000D02*
D03*
X6454988Y3215000D02*
D03*
X6154988Y6814999D02*
D03*
X6304988Y6514999D02*
D03*
Y5914999D02*
D03*
X6154988Y5614999D02*
D03*
X6304988Y5314999D02*
D03*
X6154988Y3815000D02*
D03*
X6304988Y3515000D02*
D03*
Y2915000D02*
D03*
X5854989Y6814999D02*
D03*
X6004988Y6514999D02*
D03*
Y5914999D02*
D03*
X5854989Y5614999D02*
D03*
X6004988Y5314999D02*
D03*
X5854989Y4415000D02*
D03*
Y3815000D02*
D03*
X5554989Y6814999D02*
D03*
X5704989Y6514999D02*
D03*
Y5914999D02*
D03*
Y5314999D02*
D03*
X5554989Y4415000D02*
D03*
Y3815000D02*
D03*
X5254989Y6814999D02*
D03*
X5404989Y6514999D02*
D03*
Y5914999D02*
D03*
Y5314999D02*
D03*
X5254989Y4415000D02*
D03*
X4954989Y6814999D02*
D03*
X5104989Y6514999D02*
D03*
Y5914999D02*
D03*
Y5314999D02*
D03*
X4654989Y6814999D02*
D03*
X4804989Y6514999D02*
D03*
Y5914999D02*
D03*
Y5314999D02*
D03*
Y3515000D02*
D03*
Y2915000D02*
D03*
X4654989Y2015000D02*
D03*
X4354989Y6814999D02*
D03*
X4504989Y6514999D02*
D03*
Y5314999D02*
D03*
Y4714999D02*
D03*
X4354989Y4415000D02*
D03*
Y3815000D02*
D03*
Y2615000D02*
D03*
X4504989Y2315000D02*
D03*
Y1115001D02*
D03*
X4054989Y6814999D02*
D03*
X4204989Y6514999D02*
D03*
Y5914999D02*
D03*
Y4714999D02*
D03*
X4054989Y4415000D02*
D03*
X4204989Y3515000D02*
D03*
Y2915000D02*
D03*
Y1115001D02*
D03*
X4054989Y215001D02*
D03*
X3754989Y6814999D02*
D03*
X3904989Y6514999D02*
D03*
Y4714999D02*
D03*
X3754989Y4415000D02*
D03*
Y2015000D02*
D03*
X3904989Y515001D02*
D03*
X3754989Y215001D02*
D03*
X3454989Y6814999D02*
D03*
X3604989Y6514999D02*
D03*
X3454989Y6214999D02*
D03*
X3604989Y4714999D02*
D03*
X3454989Y4415000D02*
D03*
Y3815000D02*
D03*
X3604989Y2915000D02*
D03*
X3454989Y215001D02*
D03*
X3154989Y6814999D02*
D03*
X3304989Y6514999D02*
D03*
X3154989Y6214999D02*
D03*
X3304989Y5914999D02*
D03*
X3154989Y4415000D02*
D03*
X3304989Y3515000D02*
D03*
Y2915000D02*
D03*
X3154989Y2615000D02*
D03*
Y815001D02*
D03*
Y215001D02*
D03*
X2854989Y6814999D02*
D03*
X3004989Y6514999D02*
D03*
X2854989Y6214999D02*
D03*
X3004989Y5914999D02*
D03*
Y5314999D02*
D03*
Y4115000D02*
D03*
Y2315000D02*
D03*
X2854989Y815001D02*
D03*
X3004989Y515001D02*
D03*
X2854989Y215001D02*
D03*
X2554990Y6814999D02*
D03*
X2704990Y6514999D02*
D03*
X2554990Y6214999D02*
D03*
X2704990Y5914999D02*
D03*
X2554990Y5614999D02*
D03*
Y5014999D02*
D03*
Y4415000D02*
D03*
X2704990Y4115000D02*
D03*
X2554990Y3815000D02*
D03*
X2704990Y2915000D02*
D03*
X2554990Y815001D02*
D03*
X2704990Y515001D02*
D03*
X2554990Y215001D02*
D03*
X2254990Y6814999D02*
D03*
X2404990Y6514999D02*
D03*
X2254990Y6214999D02*
D03*
Y5014999D02*
D03*
Y4415000D02*
D03*
X2404990Y4115000D02*
D03*
X2254990Y3815000D02*
D03*
X2404990Y3515000D02*
D03*
Y2915000D02*
D03*
Y2315000D02*
D03*
X2254990Y815001D02*
D03*
X2404990Y515001D02*
D03*
X2254990Y215001D02*
D03*
X1954990Y6814999D02*
D03*
X2104990Y6514999D02*
D03*
X1954990Y6214999D02*
D03*
Y5614999D02*
D03*
X2104990Y5314999D02*
D03*
X1954990Y4415000D02*
D03*
X2104990Y4115000D02*
D03*
X1954990Y3815000D02*
D03*
X2104990Y3515000D02*
D03*
X1954990Y2615000D02*
D03*
X2104990Y1715000D02*
D03*
Y515001D02*
D03*
X1954990Y215001D02*
D03*
X1654990Y6814999D02*
D03*
X1804990Y6514999D02*
D03*
X1654990Y6214999D02*
D03*
X1804990Y5314999D02*
D03*
Y4115000D02*
D03*
X1654990Y3815000D02*
D03*
X1804990Y3515000D02*
D03*
Y2915000D02*
D03*
Y2315000D02*
D03*
X1654990Y815001D02*
D03*
X1804990Y515001D02*
D03*
X1654990Y215001D02*
D03*
X1354990Y6814999D02*
D03*
X1504990Y6514999D02*
D03*
X1354990Y5614999D02*
D03*
Y5014999D02*
D03*
Y4415000D02*
D03*
X1504990Y4115000D02*
D03*
Y2315000D02*
D03*
X1354990Y2015000D02*
D03*
Y815001D02*
D03*
X1504990Y515001D02*
D03*
X1354990Y215001D02*
D03*
X1054990Y6814999D02*
D03*
X1204990Y6514999D02*
D03*
X1054990Y5014999D02*
D03*
Y4415000D02*
D03*
X1204990Y4115000D02*
D03*
Y2915000D02*
D03*
X1054990Y2615000D02*
D03*
X1204990Y2315000D02*
D03*
X1054990Y2015000D02*
D03*
X1204990Y1115001D02*
D03*
X1054990Y815001D02*
D03*
X1204990Y515001D02*
D03*
X1054990Y215001D02*
D03*
X754990Y6814999D02*
D03*
X904990Y6514999D02*
D03*
Y5314999D02*
D03*
X754990Y3215000D02*
D03*
Y2015000D02*
D03*
X904990Y1115001D02*
D03*
X754990Y815001D02*
D03*
X904990Y515001D02*
D03*
X754990Y215001D02*
D03*
X454990Y6814999D02*
D03*
Y6214999D02*
D03*
X604990Y5314999D02*
D03*
X454990Y4415000D02*
D03*
X604990Y4115000D02*
D03*
Y3515000D02*
D03*
X454990Y3215000D02*
D03*
X604990Y2315000D02*
D03*
X454990Y2015000D02*
D03*
Y815001D02*
D03*
Y215001D02*
D03*
X154990Y6214999D02*
D03*
X304990Y5314999D02*
D03*
Y4714999D02*
D03*
X154990Y4415000D02*
D03*
Y3815000D02*
D03*
Y3215000D02*
D03*
Y2615000D02*
D03*
Y2015000D02*
D03*
X304990Y1715000D02*
D03*
X154990Y1415000D02*
D03*
X304990Y1115001D02*
D03*
X154990Y815001D02*
D03*
X3817612Y3192443D02*
D03*
X3657612Y3189942D02*
D03*
X3745001Y3280001D02*
D03*
X3825001Y3355001D02*
D03*
X3660001Y3350001D02*
D03*
X6500001Y4135001D02*
D03*
Y4230001D02*
D03*
Y4420001D02*
D03*
Y4325002D02*
D03*
X6395001Y4135001D02*
D03*
Y4230001D02*
D03*
Y4420001D02*
D03*
Y4325002D02*
D03*
X6280001Y4135001D02*
D03*
Y4230001D02*
D03*
Y4420001D02*
D03*
Y4325002D02*
D03*
X6175001D02*
D03*
Y4420001D02*
D03*
Y4230001D02*
D03*
Y4135001D02*
D03*
X4000001Y3565001D02*
D03*
X3995001Y3172500D02*
D03*
D90*
X7019987Y2179996D02*
D03*
X7750001Y3205002D02*
D03*
X2555001Y3530001D02*
D03*
X4550001Y2750001D02*
D03*
X4780001Y3700001D02*
D03*
X4780003Y3575001D02*
D03*
X4885001Y4850001D02*
D03*
X3832008Y1115375D02*
D03*
X3495001Y910001D02*
D03*
X3615001Y915001D02*
D03*
X2235001Y2895001D02*
D03*
X5390001Y3805001D02*
D03*
X5265001Y1530001D02*
D03*
X3315001Y3665001D02*
D03*
X3965001Y4025001D02*
D03*
X3230001Y4100001D02*
D03*
X3205001Y3920001D02*
D03*
X7210001Y380001D02*
D03*
X5525001Y5600001D02*
D03*
X4900001Y1790001D02*
D03*
X5195001Y6375001D02*
D03*
X5735001Y1000001D02*
D03*
X4593605Y3289204D02*
D03*
X4515001Y2425001D02*
D03*
X3075001Y2500001D02*
D03*
X2980001Y2505001D02*
D03*
X1365001Y5350001D02*
D03*
X1015001Y3470001D02*
D03*
X2050001Y2425001D02*
D03*
X1045001Y3140001D02*
D03*
X1865001Y2530001D02*
D03*
X3245001Y1015001D02*
D03*
X3355001Y1205001D02*
D03*
X3675001Y2560001D02*
D03*
X3610001Y2620001D02*
D03*
X6649987Y2019996D02*
D03*
X6845001Y2020001D02*
D03*
X6430000Y2180000D02*
D03*
X6480001Y2215001D02*
D03*
X6670001Y2155001D02*
D03*
X4695001Y1460001D02*
D03*
Y1370001D02*
D03*
X1755001Y765001D02*
D03*
X5000001Y3235001D02*
D03*
X5868602Y2376398D02*
D03*
X5448602Y2314203D02*
D03*
X6073602Y2779203D02*
D03*
X5973603Y3409204D02*
D03*
X5888602Y3305564D02*
D03*
X5705001Y1165001D02*
D03*
X5750001Y1285001D02*
D03*
X5575001Y1115001D02*
D03*
X5490001Y1150001D02*
D03*
X5870001Y1385001D02*
D03*
X4680001Y1790001D02*
D03*
X7315001Y835001D02*
D03*
X5640002Y904851D02*
D03*
X5359989Y479999D02*
D03*
X5715001Y900001D02*
D03*
X5255001Y410001D02*
D03*
X5920001Y1305001D02*
D03*
X6220001Y735001D02*
D03*
X5345001Y765001D02*
D03*
X4585001Y1820001D02*
D03*
X1960001Y2430001D02*
D03*
X3120001Y1745001D02*
D03*
X2755001Y2050001D02*
D03*
X1725001Y1065001D02*
D03*
X4745001Y6280001D02*
D03*
X3125001Y5210001D02*
D03*
X6430001Y2930001D02*
D03*
X5188604Y2799204D02*
D03*
X5822501Y3095001D02*
D03*
X5550001Y975001D02*
D03*
X2220001Y3685001D02*
D03*
X2325001Y3690001D02*
D03*
X2435001D02*
D03*
X2545001D02*
D03*
Y3615001D02*
D03*
X2435001D02*
D03*
X2325001D02*
D03*
X2220001Y3610001D02*
D03*
Y3530001D02*
D03*
X2545001Y3450001D02*
D03*
X2460001Y3425001D02*
D03*
X2325001Y3450001D02*
D03*
X2220001Y3445001D02*
D03*
X2375001Y3375001D02*
D03*
D91*
X7530001Y3795001D02*
D03*
X7955001Y4690001D02*
D03*
X7265001Y4850001D02*
D03*
%TF.MD5,7f64fd888fd0d5bb5c084115da6e9fb8*%
M02*
