G04 Layer_Color=255*
%FSLAX45Y45*%
%MOMM*%
%TF.FileFunction,Pads,Bot*%
%TF.Part,Single*%
G01*
G75*
%TA.AperFunction,ComponentPad*%
%ADD80C,1.39700*%
%ADD81C,3.81000*%
%ADD82C,3.80000*%
%ADD83R,1.52400X2.03200*%
%ADD84O,1.52400X2.03200*%
%ADD85R,1.52400X3.04800*%
%ADD86O,1.52400X3.04800*%
%ADD87C,2.54000*%
D80*
X7950000Y2319999D02*
D03*
X7750001D02*
D03*
X7749998Y2070000D02*
D03*
X7950000D02*
D03*
D81*
X8221000Y1593001D02*
D03*
Y2797001D02*
D03*
D82*
X8800001Y6500001D02*
D03*
X500000Y6500000D02*
D03*
X8800001Y500001D02*
D03*
X500000Y500000D02*
D03*
D83*
X4119000Y867000D02*
D03*
D84*
Y613000D02*
D03*
X4373000Y867000D02*
D03*
Y613000D02*
D03*
X4627000Y867000D02*
D03*
Y613000D02*
D03*
X4881000Y867000D02*
D03*
Y613000D02*
D03*
D85*
X2700000Y5330000D02*
D03*
D86*
X2446000D02*
D03*
D87*
X568602Y5804203D02*
D03*
X314602Y6058203D02*
D03*
Y5550203D02*
D03*
X822602D02*
D03*
Y6058203D02*
D03*
X583600Y2724201D02*
D03*
X329600Y2978201D02*
D03*
Y2470201D02*
D03*
X837600D02*
D03*
Y2978201D02*
D03*
X573602Y4789203D02*
D03*
X319602Y5043203D02*
D03*
Y4535203D02*
D03*
X827602D02*
D03*
Y5043203D02*
D03*
X583601Y3769202D02*
D03*
X329601Y4023202D02*
D03*
Y3515202D02*
D03*
X837601D02*
D03*
Y4023202D02*
D03*
X8885000Y4160000D02*
D03*
X8631000Y4414000D02*
D03*
Y3906000D02*
D03*
X9139000D02*
D03*
Y4414000D02*
D03*
%TF.MD5,668574cd53af2cb86de92899e359c86c*%
M02*
