G04 Layer_Physical_Order=4*
G04 Layer_Color=16711680*
%FSLAX45Y45*%
%MOMM*%
%TF.FileFunction,Copper,L4,Bot,Signal*%
%TF.Part,Single*%
G01*
G75*
%TA.AperFunction,Conductor*%
%ADD11C,0.70000*%
%ADD58C,0.22000*%
%ADD59C,0.50000*%
%ADD60C,0.20000*%
%ADD61C,0.25000*%
%ADD63C,0.30000*%
%ADD65C,0.60000*%
%ADD66C,0.32000*%
%TA.AperFunction,ComponentPad*%
%ADD80C,1.39700*%
%ADD81C,3.81000*%
%ADD82C,3.80000*%
%ADD83R,1.52400X2.03200*%
%ADD84O,1.52400X2.03200*%
%ADD85R,1.52400X3.04800*%
%ADD86O,1.52400X3.04800*%
%ADD87C,2.54000*%
%TA.AperFunction,ViaPad*%
%ADD88C,0.66000*%
%ADD89C,0.70000*%
%ADD90C,0.60000*%
%ADD91C,1.27000*%
G36*
X9550002Y-9999D02*
X1D01*
Y7000001D01*
X9550002D01*
Y-9999D01*
D02*
G37*
%LPC*%
G36*
X5448602Y2360085D02*
X5431044Y2356592D01*
X5416159Y2346646D01*
X5406213Y2331761D01*
X5402721Y2314203D01*
X5406213Y2296645D01*
X5416159Y2281760D01*
X5431044Y2271814D01*
X5448602Y2268322D01*
X5466160Y2271814D01*
X5481045Y2281760D01*
X5490991Y2296645D01*
X5494484Y2314203D01*
X5490991Y2331761D01*
X5481045Y2346646D01*
X5466160Y2356592D01*
X5448602Y2360085D01*
D02*
G37*
G36*
X7750001Y3250884D02*
X7732442Y3247391D01*
X7717557Y3237445D01*
X7707611Y3222560D01*
X7704119Y3205002D01*
X7707611Y3187444D01*
X7709217Y3185041D01*
Y2394947D01*
X7707209Y2394116D01*
X7689485Y2380515D01*
X7675884Y2362791D01*
X7667334Y2342150D01*
X7664418Y2319999D01*
X7666826Y2301711D01*
X7590998Y2225883D01*
X7019987D01*
X7002429Y2222390D01*
X6987544Y2212444D01*
X6977598Y2197559D01*
X6974105Y2180001D01*
X6974106Y2179999D01*
X6974105Y2179996D01*
X6977598Y2162438D01*
X6987544Y2147553D01*
X7002429Y2137607D01*
X7019987Y2134114D01*
X7020014Y2134120D01*
X7610002D01*
X7627561Y2137612D01*
X7642445Y2147558D01*
X7731712Y2236825D01*
X7750001Y2234417D01*
X7772151Y2237333D01*
X7792792Y2245883D01*
X7810516Y2259484D01*
X7824117Y2277208D01*
X7832667Y2297849D01*
X7835583Y2319999D01*
X7832667Y2342150D01*
X7824117Y2362791D01*
X7810516Y2380515D01*
X7792792Y2394116D01*
X7790784Y2394947D01*
Y3185041D01*
X7792390Y3187444D01*
X7795882Y3205002D01*
X7792390Y3222560D01*
X7782444Y3237445D01*
X7767559Y3247391D01*
X7750001Y3250884D01*
D02*
G37*
G36*
X7937298Y2414399D02*
X7925135Y2412798D01*
X7901964Y2403200D01*
X7882067Y2387932D01*
X7866799Y2368035D01*
X7857202Y2344865D01*
X7855600Y2332701D01*
X7937298D01*
Y2414399D01*
D02*
G37*
G36*
X5868602Y2422279D02*
X5851044Y2418787D01*
X5836159Y2408841D01*
X5826213Y2393956D01*
X5822721Y2376398D01*
X5826213Y2358840D01*
X5836159Y2343955D01*
X5851044Y2334009D01*
X5868602Y2330516D01*
X5886160Y2334009D01*
X5901045Y2343955D01*
X5910991Y2358840D01*
X5914484Y2376398D01*
X5910991Y2393956D01*
X5901045Y2408841D01*
X5886160Y2418787D01*
X5868602Y2422279D01*
D02*
G37*
G36*
X2755001Y2095883D02*
X2737443Y2092390D01*
X2722558Y2082444D01*
X2717912Y2075491D01*
X1975001D01*
X1965247Y2073551D01*
X1956977Y2068025D01*
X1706978Y1818025D01*
X1701452Y1809756D01*
X1699512Y1800001D01*
Y1102091D01*
X1692558Y1097445D01*
X1682612Y1082559D01*
X1679120Y1065001D01*
X1682612Y1047443D01*
X1692558Y1032558D01*
X1707443Y1022612D01*
X1725001Y1019120D01*
X1742559Y1022612D01*
X1757445Y1032558D01*
X1767390Y1047443D01*
X1770883Y1065001D01*
X1767390Y1082559D01*
X1757445Y1097445D01*
X1750491Y1102091D01*
Y1789443D01*
X1985559Y2024512D01*
X2717912D01*
X2722558Y2017558D01*
X2737443Y2007612D01*
X2755001Y2004120D01*
X2772559Y2007612D01*
X2787445Y2017558D01*
X2797390Y2032443D01*
X2800883Y2050001D01*
X2797390Y2067559D01*
X2787445Y2082444D01*
X2772559Y2092390D01*
X2755001Y2095883D01*
D02*
G37*
G36*
X7950000Y2155582D02*
X7927850Y2152666D01*
X7907209Y2144116D01*
X7889484Y2130516D01*
X7875884Y2112791D01*
X7867334Y2092150D01*
X7864418Y2070000D01*
X7867334Y2047850D01*
X7875884Y2027209D01*
X7889484Y2009484D01*
X7907209Y1995883D01*
X7927850Y1987334D01*
X7950000Y1984418D01*
X7972150Y1987334D01*
X7992791Y1995883D01*
X8010516Y2009484D01*
X8024117Y2027209D01*
X8032666Y2047850D01*
X8035582Y2070000D01*
X8032666Y2092150D01*
X8024117Y2112791D01*
X8010516Y2130516D01*
X7992791Y2144116D01*
X7972150Y2152666D01*
X7950000Y2155582D01*
D02*
G37*
G36*
X7937298Y2307301D02*
X7855600D01*
X7857202Y2295134D01*
X7866799Y2271963D01*
X7882067Y2252066D01*
X7901964Y2236799D01*
X7925135Y2227201D01*
X7937298Y2225600D01*
Y2307301D01*
D02*
G37*
G36*
X8044400D02*
X7962698D01*
Y2225599D01*
X7974865Y2227201D01*
X7998036Y2236799D01*
X8017933Y2252066D01*
X8033201Y2271963D01*
X8042798Y2295134D01*
X8044400Y2307301D01*
D02*
G37*
G36*
X4550001Y2795883D02*
X4532443Y2792390D01*
X4517558Y2782445D01*
X4507612Y2767559D01*
X4504120Y2750001D01*
X4507612Y2732443D01*
X4517558Y2717558D01*
X4532443Y2707612D01*
X4550001Y2704120D01*
X4567559Y2707612D01*
X4582444Y2717558D01*
X4592390Y2732443D01*
X4595883Y2750001D01*
X4592390Y2767559D01*
X4582444Y2782445D01*
X4567559Y2792390D01*
X4550001Y2795883D01*
D02*
G37*
G36*
X8436694Y2784299D02*
X8233702D01*
Y2581308D01*
X8263324Y2584225D01*
X8304021Y2596570D01*
X8341528Y2616618D01*
X8374403Y2643598D01*
X8401383Y2676473D01*
X8421431Y2713980D01*
X8433776Y2754677D01*
X8436694Y2784299D01*
D02*
G37*
G36*
X8208302Y3012695D02*
X8178677Y3009777D01*
X8137979Y2997432D01*
X8100472Y2977384D01*
X8067597Y2950404D01*
X8040617Y2917529D01*
X8020569Y2880022D01*
X8008224Y2839325D01*
X8005306Y2809699D01*
X8208302D01*
Y3012695D01*
D02*
G37*
G36*
X6073602Y2825085D02*
X6056044Y2821592D01*
X6041159Y2811646D01*
X6031213Y2796761D01*
X6027720Y2779203D01*
X6031213Y2761645D01*
X6041159Y2746760D01*
X6056044Y2736814D01*
X6073602Y2733321D01*
X6091160Y2736814D01*
X6106045Y2746760D01*
X6115991Y2761645D01*
X6119484Y2779203D01*
X6115991Y2796761D01*
X6106045Y2811646D01*
X6091160Y2821592D01*
X6073602Y2825085D01*
D02*
G37*
G36*
X3610001Y2665883D02*
X3592443Y2662390D01*
X3577558Y2652445D01*
X3567612Y2637559D01*
X3564120Y2620001D01*
X3564316Y2619015D01*
X3332652Y2387351D01*
X3325800Y2377097D01*
X3323394Y2365001D01*
Y1238003D01*
X3322558Y1237445D01*
X3312612Y1222559D01*
X3309120Y1205001D01*
X3312612Y1187443D01*
X3322558Y1172558D01*
X3336709Y1163103D01*
X3338623Y1161041D01*
X3341878Y1150310D01*
X3251214Y1059647D01*
X3245001Y1060883D01*
X3227443Y1057390D01*
X3212558Y1047444D01*
X3202612Y1032559D01*
X3199120Y1015001D01*
X3202612Y997443D01*
X3212558Y982558D01*
X3227443Y972612D01*
X3245001Y969120D01*
X3262559Y972612D01*
X3277445Y982558D01*
X3278003Y983394D01*
X3376909D01*
X3449316Y910987D01*
X3449120Y910001D01*
X3452612Y892443D01*
X3462558Y877558D01*
X3477443Y867612D01*
X3495001Y864120D01*
X3512559Y867612D01*
X3527445Y877558D01*
X3537390Y892443D01*
X3540883Y910001D01*
X3537390Y927559D01*
X3527445Y942444D01*
X3512559Y952390D01*
X3495001Y955883D01*
X3494015Y955687D01*
X3412351Y1037351D01*
X3402097Y1044203D01*
X3390001Y1046609D01*
X3344168D01*
X3339308Y1058342D01*
X3442351Y1161385D01*
X3449203Y1171639D01*
X3451609Y1183734D01*
Y2316909D01*
X3654367Y2519668D01*
X3657443Y2517612D01*
X3675001Y2514120D01*
X3692559Y2517612D01*
X3707444Y2527558D01*
X3717390Y2542443D01*
X3720883Y2560001D01*
X3717390Y2577559D01*
X3707444Y2592444D01*
X3692559Y2602390D01*
X3675001Y2605883D01*
X3665654Y2604023D01*
X3654841Y2614763D01*
X3655883Y2620001D01*
X3652390Y2637559D01*
X3642445Y2652445D01*
X3627559Y2662390D01*
X3610001Y2665883D01*
D02*
G37*
G36*
X7962698Y2414400D02*
Y2332701D01*
X8044400D01*
X8042798Y2344865D01*
X8033201Y2368035D01*
X8017933Y2387932D01*
X7998036Y2403200D01*
X7974865Y2412798D01*
X7962698Y2414400D01*
D02*
G37*
G36*
X8208302Y2784299D02*
X8005307D01*
X8008224Y2754677D01*
X8020569Y2713980D01*
X8040617Y2676473D01*
X8067597Y2643598D01*
X8100472Y2616618D01*
X8137979Y2596570D01*
X8178677Y2584225D01*
X8208302Y2581307D01*
Y2784299D01*
D02*
G37*
G36*
X583600Y2902057D02*
X548901Y2898639D01*
X515537Y2888518D01*
X484788Y2872083D01*
X457836Y2849964D01*
X435717Y2823012D01*
X419282Y2792263D01*
X409161Y2758899D01*
X405743Y2724201D01*
X409161Y2689502D01*
X419282Y2656138D01*
X435717Y2625389D01*
X457836Y2598437D01*
X484788Y2576318D01*
X515537Y2559883D01*
X548901Y2549762D01*
X583600Y2546344D01*
X618298Y2549762D01*
X651662Y2559883D01*
X682411Y2576318D01*
X709363Y2598437D01*
X731482Y2625389D01*
X747917Y2656138D01*
X758038Y2689502D01*
X761456Y2724201D01*
X758038Y2758899D01*
X747917Y2792263D01*
X731482Y2823012D01*
X709363Y2849964D01*
X682411Y2872083D01*
X651662Y2888518D01*
X618298Y2898639D01*
X583600Y2902057D01*
D02*
G37*
G36*
X7749998Y2155582D02*
X7727848Y2152666D01*
X7707207Y2144116D01*
X7689482Y2130516D01*
X7675882Y2112791D01*
X7667332Y2092150D01*
X7664416Y2070000D01*
X7667332Y2047850D01*
X7675882Y2027209D01*
X7689482Y2009484D01*
X7707207Y1995883D01*
X7727848Y1987334D01*
X7749998Y1984418D01*
X7772148Y1987334D01*
X7792789Y1995883D01*
X7810514Y2009484D01*
X7824114Y2027209D01*
X7832664Y2047850D01*
X7835580Y2070000D01*
X7832664Y2092150D01*
X7824114Y2112791D01*
X7810514Y2130516D01*
X7792789Y2144116D01*
X7772148Y2152666D01*
X7749998Y2155582D01*
D02*
G37*
G36*
X1755001Y810883D02*
X1737443Y807390D01*
X1722558Y797444D01*
X1712612Y782559D01*
X1709120Y765001D01*
X1712612Y747443D01*
X1722558Y732558D01*
X1737443Y722612D01*
X1755001Y719120D01*
X1772559Y722612D01*
X1787444Y732558D01*
X1797390Y747443D01*
X1800883Y765001D01*
X1797390Y782559D01*
X1787444Y797444D01*
X1772559Y807390D01*
X1755001Y810883D01*
D02*
G37*
G36*
X6220001Y780883D02*
X6202443Y777390D01*
X6187558Y767444D01*
X6177612Y752559D01*
X6174120Y735001D01*
X6177612Y717443D01*
X6187558Y702558D01*
X6202443Y692612D01*
X6220001Y689120D01*
X6237559Y692612D01*
X6252444Y702558D01*
X6262390Y717443D01*
X6265883Y735001D01*
X6262390Y752559D01*
X6252444Y767444D01*
X6237559Y777390D01*
X6220001Y780883D01*
D02*
G37*
G36*
X7315001Y880883D02*
X7297443Y877390D01*
X7282558Y867445D01*
X7272612Y852559D01*
X7269120Y835001D01*
X7272612Y817443D01*
X7282558Y802558D01*
X7297443Y792612D01*
X7315001Y789120D01*
X7332559Y792612D01*
X7347445Y802558D01*
X7357390Y817443D01*
X7360883Y835001D01*
X7357390Y852559D01*
X7347445Y867445D01*
X7332559Y877390D01*
X7315001Y880883D01*
D02*
G37*
G36*
X4373000Y984387D02*
X4349192Y981253D01*
X4327007Y972063D01*
X4307955Y957445D01*
X4293337Y938394D01*
X4284147Y916208D01*
X4281013Y892400D01*
Y841600D01*
X4284147Y817792D01*
X4293337Y795606D01*
X4307955Y776555D01*
X4327007Y761937D01*
X4349192Y752748D01*
X4373000Y749613D01*
X4396808Y752748D01*
X4418993Y761937D01*
X4438044Y776555D01*
X4452663Y795606D01*
X4461852Y817792D01*
X4464987Y841600D01*
Y892400D01*
X4461852Y916208D01*
X4452663Y938394D01*
X4438044Y957445D01*
X4418993Y972063D01*
X4396808Y981253D01*
X4373000Y984387D01*
D02*
G37*
G36*
X500000Y705992D02*
X459813Y702034D01*
X421170Y690312D01*
X385557Y671276D01*
X354342Y645658D01*
X328724Y614443D01*
X309688Y578830D01*
X297966Y540187D01*
X294008Y500000D01*
X297966Y459813D01*
X309688Y421170D01*
X328724Y385557D01*
X354342Y354342D01*
X385557Y328724D01*
X421170Y309688D01*
X459813Y297966D01*
X500000Y294008D01*
X540187Y297966D01*
X578830Y309688D01*
X614443Y328724D01*
X645658Y354342D01*
X671276Y385557D01*
X690312Y421170D01*
X702034Y459813D01*
X705992Y500000D01*
X702034Y540187D01*
X690312Y578830D01*
X671276Y614443D01*
X645658Y645658D01*
X614443Y671276D01*
X578830Y690312D01*
X540187Y702034D01*
X500000Y705992D01*
D02*
G37*
G36*
X7530001Y3874179D02*
X7509509Y3871481D01*
X7490413Y3863571D01*
X7474015Y3850988D01*
X7461432Y3834590D01*
X7453522Y3815494D01*
X7450824Y3795001D01*
X7453522Y3774509D01*
X7461432Y3755413D01*
X7474015Y3739014D01*
X7490413Y3726432D01*
X7509509Y3718522D01*
X7530001Y3715824D01*
X7536259Y3716648D01*
X7588953Y3663953D01*
X7605492Y3652902D01*
X7625002Y3649022D01*
X8924022D01*
Y1436118D01*
X7918885Y430981D01*
X7210001D01*
X7190492Y427100D01*
X7173953Y416049D01*
X7162902Y399510D01*
X7159443Y382120D01*
X7058108Y280785D01*
X4321895D01*
X4159783Y442896D01*
Y505779D01*
X4164993Y507937D01*
X4184044Y522555D01*
X4198663Y541606D01*
X4207852Y563792D01*
X4210987Y587600D01*
Y638400D01*
X4207852Y662208D01*
X4198663Y684394D01*
X4184044Y703445D01*
X4164993Y718063D01*
X4142808Y727253D01*
X4119000Y730387D01*
X4095192Y727253D01*
X4073007Y718063D01*
X4053955Y703445D01*
X4039337Y684394D01*
X4030147Y662208D01*
X4027013Y638400D01*
Y587600D01*
X4030147Y563792D01*
X4039337Y541606D01*
X4053955Y522555D01*
X4073007Y507937D01*
X4078216Y505779D01*
Y426004D01*
X4078216Y426003D01*
X4081321Y410395D01*
X4090161Y397164D01*
X4276163Y211163D01*
X4289394Y202322D01*
X4305001Y199218D01*
X4305003Y199218D01*
X7075000D01*
X7075001Y199218D01*
X7090609Y202322D01*
X7103840Y211163D01*
X7221698Y329022D01*
X7940001D01*
X7959510Y332902D01*
X7976049Y343953D01*
X9011050Y1378953D01*
X9022100Y1395492D01*
X9025981Y1415001D01*
Y3675001D01*
X9022100Y3694510D01*
X9011049Y3711049D01*
X8996063Y3721063D01*
X8986049Y3736049D01*
X8969510Y3747100D01*
X8950001Y3750981D01*
X7646118D01*
X7608355Y3788744D01*
X7609179Y3795001D01*
X7606481Y3815494D01*
X7598571Y3834590D01*
X7585988Y3850988D01*
X7569590Y3863571D01*
X7550494Y3871481D01*
X7530001Y3874179D01*
D02*
G37*
G36*
X4373000Y730387D02*
X4349192Y727253D01*
X4327007Y718063D01*
X4307955Y703445D01*
X4293337Y684394D01*
X4284147Y662208D01*
X4281013Y638400D01*
Y587600D01*
X4284147Y563792D01*
X4293337Y541606D01*
X4307955Y522555D01*
X4327007Y507937D01*
X4349192Y498748D01*
X4373000Y495613D01*
X4396808Y498748D01*
X4418993Y507937D01*
X4438044Y522555D01*
X4452663Y541606D01*
X4461852Y563792D01*
X4464987Y587600D01*
Y638400D01*
X4461852Y662208D01*
X4452663Y684394D01*
X4438044Y703445D01*
X4418993Y718063D01*
X4396808Y727253D01*
X4373000Y730387D01*
D02*
G37*
G36*
X8800001Y705993D02*
X8759815Y702035D01*
X8721172Y690313D01*
X8685559Y671277D01*
X8654343Y645659D01*
X8628726Y614444D01*
X8609690Y578831D01*
X8597968Y540188D01*
X8594010Y500001D01*
X8597968Y459814D01*
X8609690Y421172D01*
X8628726Y385559D01*
X8654343Y354343D01*
X8685559Y328726D01*
X8721172Y309690D01*
X8759815Y297968D01*
X8800001Y294010D01*
X8840188Y297968D01*
X8878831Y309690D01*
X8914444Y328726D01*
X8945660Y354343D01*
X8971277Y385559D01*
X8990313Y421172D01*
X9002035Y459814D01*
X9005993Y500001D01*
X9002035Y540188D01*
X8990313Y578831D01*
X8971277Y614444D01*
X8945660Y645659D01*
X8914444Y671277D01*
X8878831Y690313D01*
X8840188Y702035D01*
X8800001Y705993D01*
D02*
G37*
G36*
X8208302Y1808695D02*
X8178677Y1805777D01*
X8137979Y1793432D01*
X8100472Y1773384D01*
X8067597Y1746404D01*
X8040617Y1713529D01*
X8020569Y1676022D01*
X8008224Y1635324D01*
X8005306Y1605699D01*
X8208302D01*
Y1808695D01*
D02*
G37*
G36*
X5265001Y1575883D02*
X5247443Y1572390D01*
X5232558Y1562444D01*
X5222612Y1547559D01*
X5219120Y1530001D01*
X5222612Y1512443D01*
X5232558Y1497558D01*
X5247443Y1487612D01*
X5265001Y1484120D01*
X5282559Y1487612D01*
X5297445Y1497558D01*
X5307390Y1512443D01*
X5310883Y1530001D01*
X5307390Y1547559D01*
X5297445Y1562444D01*
X5282559Y1572390D01*
X5265001Y1575883D01*
D02*
G37*
G36*
X3120001Y1790883D02*
X3102443Y1787390D01*
X3087558Y1777445D01*
X3077612Y1762559D01*
X3074120Y1745001D01*
X3077612Y1727443D01*
X3087558Y1712558D01*
X3102443Y1702612D01*
X3120001Y1699120D01*
X3137559Y1702612D01*
X3152445Y1712558D01*
X3162390Y1727443D01*
X3165883Y1745001D01*
X3162390Y1762559D01*
X3152445Y1777445D01*
X3137559Y1787390D01*
X3120001Y1790883D01*
D02*
G37*
G36*
X8233702Y1808694D02*
Y1605699D01*
X8436694D01*
X8433776Y1635324D01*
X8421431Y1676022D01*
X8401383Y1713529D01*
X8374403Y1746404D01*
X8341528Y1773384D01*
X8304021Y1793432D01*
X8263324Y1805777D01*
X8233702Y1808694D01*
D02*
G37*
G36*
X5750001Y1330883D02*
X5732443Y1327390D01*
X5717558Y1317444D01*
X5707612Y1302559D01*
X5704724Y1288040D01*
X4955001D01*
X4944271Y1285905D01*
X4935175Y1279828D01*
X4638253Y982905D01*
X4627000Y984387D01*
X4603192Y981253D01*
X4581007Y972063D01*
X4561955Y957445D01*
X4547337Y938394D01*
X4538147Y916208D01*
X4535013Y892400D01*
Y841600D01*
X4538147Y817792D01*
X4547337Y795606D01*
X4561955Y776555D01*
X4581007Y761937D01*
X4603192Y752748D01*
X4627000Y749613D01*
X4650808Y752748D01*
X4672993Y761937D01*
X4692044Y776555D01*
X4706663Y795606D01*
X4715852Y817792D01*
X4718987Y841600D01*
Y892400D01*
X4715852Y916208D01*
X4706663Y938394D01*
X4692067Y957415D01*
X4966615Y1231963D01*
X5394350D01*
X5399610Y1219263D01*
X5075386Y895039D01*
X4972639D01*
X4969852Y916208D01*
X4960663Y938394D01*
X4946044Y957445D01*
X4926993Y972063D01*
X4904808Y981253D01*
X4881000Y984387D01*
X4857192Y981253D01*
X4835007Y972063D01*
X4815955Y957445D01*
X4801337Y938394D01*
X4792147Y916208D01*
X4789013Y892400D01*
Y841600D01*
X4792147Y817792D01*
X4801337Y795606D01*
X4815955Y776555D01*
X4835007Y761937D01*
X4857192Y752748D01*
X4881000Y749613D01*
X4904808Y752748D01*
X4926993Y761937D01*
X4946044Y776555D01*
X4960663Y795606D01*
X4969852Y817792D01*
X4972639Y838961D01*
X5087000D01*
X5097730Y841096D01*
X5106826Y847174D01*
X5433632Y1173980D01*
X5436832Y1173505D01*
X5437630Y1173065D01*
X5445971Y1159310D01*
X5444120Y1150001D01*
X5447612Y1132443D01*
X5457558Y1117558D01*
X5458037Y1112690D01*
X4986386Y641039D01*
X4972639D01*
X4969852Y662208D01*
X4960663Y684394D01*
X4946044Y703445D01*
X4926993Y718063D01*
X4904808Y727253D01*
X4881000Y730387D01*
X4857192Y727253D01*
X4835007Y718063D01*
X4815955Y703445D01*
X4801337Y684394D01*
X4792147Y662208D01*
X4789013Y638400D01*
Y587600D01*
X4792147Y563792D01*
X4801337Y541606D01*
X4814357Y524639D01*
X4810878Y511939D01*
X4737716D01*
X4707069Y542586D01*
X4715852Y563792D01*
X4718987Y587600D01*
Y638400D01*
X4715852Y662208D01*
X4706663Y684394D01*
X4692044Y703445D01*
X4672993Y718063D01*
X4650808Y727253D01*
X4627000Y730387D01*
X4603192Y727253D01*
X4581007Y718063D01*
X4561955Y703445D01*
X4547337Y684394D01*
X4538147Y662208D01*
X4535013Y638400D01*
Y587600D01*
X4538147Y563792D01*
X4547337Y541606D01*
X4561955Y522555D01*
X4581007Y507937D01*
X4603192Y498748D01*
X4627000Y495613D01*
X4650808Y498748D01*
X4665512Y504838D01*
X4706276Y464074D01*
X4715373Y457996D01*
X4726103Y455861D01*
X4975008D01*
X4985738Y457996D01*
X4994835Y464074D01*
X5287762Y757001D01*
X5301543Y752821D01*
X5302612Y747443D01*
X5312558Y732558D01*
X5327443Y722612D01*
X5345001Y719120D01*
X5362559Y722612D01*
X5377444Y732558D01*
X5387390Y747443D01*
X5390883Y765001D01*
X5387390Y782559D01*
X5377444Y797444D01*
X5362559Y807390D01*
X5357182Y808460D01*
X5353001Y822240D01*
X5594828Y1064067D01*
X5600905Y1073163D01*
X5602058Y1078959D01*
X5607444Y1082558D01*
X5617390Y1097443D01*
X5620883Y1115001D01*
X5617390Y1132559D01*
X5607444Y1147444D01*
X5592559Y1157390D01*
X5575001Y1160883D01*
X5557443Y1157390D01*
X5548070Y1151127D01*
X5534569Y1156607D01*
X5532390Y1167559D01*
X5530250Y1170762D01*
X5536237Y1181963D01*
X5648387D01*
X5660153Y1170197D01*
X5659120Y1165001D01*
X5662612Y1147443D01*
X5672558Y1132558D01*
X5687443Y1122612D01*
X5705001Y1119120D01*
X5722559Y1122612D01*
X5737444Y1132558D01*
X5747390Y1147443D01*
X5750883Y1165001D01*
X5747390Y1182559D01*
X5737444Y1197444D01*
X5722559Y1207390D01*
X5705001Y1210883D01*
X5699806Y1209849D01*
X5690392Y1219263D01*
X5695653Y1231963D01*
X5725002D01*
X5735731Y1234097D01*
X5744798Y1240155D01*
X5750001Y1239120D01*
X5767559Y1242612D01*
X5782445Y1252558D01*
X5792390Y1267443D01*
X5795883Y1285001D01*
X5792390Y1302559D01*
X5782445Y1317444D01*
X5767559Y1327390D01*
X5750001Y1330883D01*
D02*
G37*
G36*
X3832008Y1161257D02*
X3814450Y1157765D01*
X3799565Y1147819D01*
X3789619Y1132933D01*
X3786126Y1115375D01*
X3789619Y1097817D01*
X3799565Y1082932D01*
X3814450Y1072986D01*
X3832008Y1069494D01*
X3849566Y1072986D01*
X3864451Y1082932D01*
X3874397Y1097817D01*
X3877889Y1115375D01*
X3874397Y1132933D01*
X3864451Y1147819D01*
X3849566Y1157765D01*
X3832008Y1161257D01*
D02*
G37*
G36*
X8436694Y1580299D02*
X8233702D01*
Y1377307D01*
X8263324Y1380225D01*
X8304021Y1392570D01*
X8341528Y1412618D01*
X8374403Y1439598D01*
X8401383Y1472473D01*
X8421431Y1509979D01*
X8433776Y1550677D01*
X8436694Y1580299D01*
D02*
G37*
G36*
X8208302D02*
X8005307D01*
X8008224Y1550677D01*
X8020569Y1509979D01*
X8040617Y1472473D01*
X8067597Y1439598D01*
X8100472Y1412618D01*
X8137979Y1392570D01*
X8178677Y1380225D01*
X8208302Y1377307D01*
Y1580299D01*
D02*
G37*
G36*
X568602Y5947428D02*
X531533Y5942548D01*
X496990Y5928240D01*
X467326Y5905478D01*
X444565Y5875816D01*
X430257Y5841272D01*
X425377Y5804203D01*
X430257Y5767133D01*
X444565Y5732590D01*
X467326Y5702927D01*
X496990Y5680166D01*
X531533Y5665858D01*
X568602Y5660978D01*
X605672Y5665858D01*
X640215Y5680166D01*
X669878Y5702927D01*
X692639Y5732590D01*
X706947Y5767133D01*
X711827Y5804203D01*
X706947Y5841272D01*
X692639Y5875816D01*
X669878Y5905478D01*
X640215Y5928240D01*
X605672Y5942548D01*
X568602Y5947428D01*
D02*
G37*
G36*
X835302Y5702089D02*
Y5562903D01*
X974489D01*
X972797Y5580079D01*
X964083Y5608806D01*
X949931Y5635281D01*
X930887Y5658487D01*
X907681Y5677532D01*
X881205Y5691683D01*
X852478Y5700398D01*
X835302Y5702089D01*
D02*
G37*
G36*
X466489Y6045503D02*
X327302D01*
Y5906316D01*
X344478Y5908008D01*
X373205Y5916722D01*
X399681Y5930874D01*
X422887Y5949918D01*
X441931Y5973124D01*
X456083Y5999600D01*
X464797Y6028327D01*
X466489Y6045503D01*
D02*
G37*
G36*
X301902D02*
X162716D01*
X164407Y6028327D01*
X173122Y5999600D01*
X187273Y5973124D01*
X206318Y5949918D01*
X229524Y5930874D01*
X255999Y5916722D01*
X284726Y5908008D01*
X301902Y5906316D01*
Y6045503D01*
D02*
G37*
G36*
Y5702089D02*
X284726Y5700398D01*
X255999Y5691683D01*
X229524Y5677532D01*
X206318Y5658487D01*
X187273Y5635281D01*
X173122Y5608806D01*
X164407Y5580079D01*
X162716Y5562903D01*
X301902D01*
Y5702089D01*
D02*
G37*
G36*
X974489Y5537503D02*
X835302D01*
Y5398316D01*
X852478Y5400008D01*
X881205Y5408722D01*
X907681Y5422874D01*
X930887Y5441918D01*
X949931Y5465124D01*
X964083Y5491600D01*
X972797Y5520327D01*
X974489Y5537503D01*
D02*
G37*
G36*
X809902Y5702089D02*
X792726Y5700398D01*
X763999Y5691683D01*
X737524Y5677532D01*
X714318Y5658487D01*
X695273Y5635281D01*
X681122Y5608806D01*
X672407Y5580079D01*
X670716Y5562903D01*
X809902D01*
Y5702089D01*
D02*
G37*
G36*
X327302D02*
Y5562903D01*
X466489D01*
X464797Y5580079D01*
X456083Y5608806D01*
X441931Y5635281D01*
X422887Y5658487D01*
X399681Y5677532D01*
X373205Y5691683D01*
X344478Y5700398D01*
X327302Y5702089D01*
D02*
G37*
G36*
X809902Y6045503D02*
X670716D01*
X672407Y6028327D01*
X681122Y5999600D01*
X695273Y5973124D01*
X714318Y5949918D01*
X737524Y5930874D01*
X763999Y5916722D01*
X792726Y5908008D01*
X809902Y5906316D01*
Y6045503D01*
D02*
G37*
G36*
X500000Y6705992D02*
X459813Y6702034D01*
X421170Y6690311D01*
X385557Y6671276D01*
X354342Y6645658D01*
X328724Y6614443D01*
X309688Y6578830D01*
X297966Y6540187D01*
X294008Y6500000D01*
X297966Y6459813D01*
X309688Y6421170D01*
X328724Y6385557D01*
X354342Y6354342D01*
X385557Y6328724D01*
X421170Y6309688D01*
X459813Y6297966D01*
X500000Y6294008D01*
X540187Y6297966D01*
X578830Y6309688D01*
X614443Y6328724D01*
X645658Y6354342D01*
X671276Y6385557D01*
X690312Y6421170D01*
X702034Y6459813D01*
X705992Y6500000D01*
X702034Y6540187D01*
X690312Y6578830D01*
X671276Y6614443D01*
X645658Y6645658D01*
X614443Y6671276D01*
X578830Y6690311D01*
X540187Y6702034D01*
X500000Y6705992D01*
D02*
G37*
G36*
X835302Y6210089D02*
Y6070903D01*
X974489D01*
X972797Y6088079D01*
X964083Y6116806D01*
X949931Y6143281D01*
X930887Y6166487D01*
X907681Y6185532D01*
X881205Y6199683D01*
X852478Y6208398D01*
X835302Y6210089D01*
D02*
G37*
G36*
X5195001Y6420883D02*
X5177443Y6417390D01*
X5162558Y6407444D01*
X5152612Y6392559D01*
X5149120Y6375001D01*
X5152612Y6357443D01*
X5162558Y6342558D01*
X5166037Y6340234D01*
X5168919Y6323034D01*
X5167210Y6320785D01*
X4764962D01*
X4762559Y6322390D01*
X4745001Y6325883D01*
X4670001D01*
X4652443Y6322390D01*
X4637558Y6312445D01*
X4442558Y6117444D01*
X4432612Y6102560D01*
X4429120Y6085001D01*
Y5544006D01*
X4180996Y5295883D01*
X3165001D01*
X3147443Y5292390D01*
X3132558Y5282444D01*
X3092558Y5242444D01*
X3082612Y5227560D01*
X3079120Y5210001D01*
X3082612Y5192443D01*
X3092558Y5177558D01*
X3107443Y5167612D01*
X3110277Y5167048D01*
X3274218Y5003108D01*
Y4137684D01*
X3266245Y4134136D01*
X3261518Y4133064D01*
X3247559Y4142390D01*
X3230001Y4145883D01*
X3212443Y4142390D01*
X3197558Y4132444D01*
X3192912Y4125491D01*
X3135001D01*
X3125247Y4123551D01*
X3116978Y4118025D01*
X2961978Y3963025D01*
X2956452Y3954756D01*
X2954512Y3945001D01*
Y2542091D01*
X2947558Y2537445D01*
X2937612Y2522559D01*
X2934120Y2505001D01*
X2937612Y2487443D01*
X2947558Y2472558D01*
X2962443Y2462612D01*
X2980001Y2459120D01*
X2997559Y2462612D01*
X3012445Y2472558D01*
X3019523Y2483151D01*
X3027852Y2482701D01*
X3033188Y2481582D01*
X3042558Y2467558D01*
X3057443Y2457612D01*
X3075001Y2454120D01*
X3092559Y2457612D01*
X3107444Y2467558D01*
X3117390Y2482443D01*
X3120883Y2500001D01*
X3117390Y2517559D01*
X3107444Y2532445D01*
X3100491Y2537091D01*
Y3779443D01*
X3196799Y3875751D01*
X3205001Y3874120D01*
X3222559Y3877612D01*
X3237445Y3887558D01*
X3247391Y3902443D01*
X3250883Y3920001D01*
X3247391Y3937559D01*
X3237445Y3952444D01*
X3222559Y3962390D01*
X3205001Y3965883D01*
X3187443Y3962390D01*
X3172558Y3952444D01*
X3162612Y3937559D01*
X3159120Y3920001D01*
X3160751Y3911799D01*
X3056977Y3808025D01*
X3051452Y3799756D01*
X3049512Y3790001D01*
Y2537091D01*
X3042558Y2532445D01*
X3035480Y2521852D01*
X3027150Y2522302D01*
X3021815Y2523421D01*
X3012445Y2537445D01*
X3005491Y2542091D01*
Y3934443D01*
X3145559Y4074512D01*
X3192912D01*
X3197558Y4067558D01*
X3212443Y4057612D01*
X3230001Y4054120D01*
X3247559Y4057612D01*
X3261518Y4066939D01*
X3266245Y4065866D01*
X3274218Y4062318D01*
Y3684962D01*
X3272612Y3682559D01*
X3269120Y3665001D01*
X3272612Y3647443D01*
X3282558Y3632558D01*
X3297443Y3622612D01*
X3315001Y3619120D01*
X3332559Y3622612D01*
X3347444Y3632558D01*
X3357390Y3647443D01*
X3360883Y3665001D01*
X3357390Y3682559D01*
X3355785Y3684962D01*
Y5020000D01*
X3355785Y5020001D01*
X3352681Y5035608D01*
X3343840Y5048840D01*
X3343839Y5048840D01*
X3200293Y5192386D01*
X3205153Y5204120D01*
X4200001D01*
X4217559Y5207612D01*
X4232444Y5217558D01*
X4507444Y5492558D01*
X4517390Y5507443D01*
X4520883Y5525001D01*
Y6065997D01*
X4689006Y6234120D01*
X4745001D01*
X4762559Y6237612D01*
X4764962Y6239218D01*
X6173108D01*
X6714218Y5698108D01*
Y2362476D01*
X6703371Y2351629D01*
X6696741Y2341706D01*
X6694412Y2330000D01*
X6694413Y2329999D01*
Y2206923D01*
X6681712Y2198553D01*
X6670001Y2200883D01*
X6652443Y2197390D01*
X6637558Y2187444D01*
X6627612Y2172559D01*
X6624120Y2155001D01*
X6625751Y2146799D01*
X6614443Y2135491D01*
X5381969D01*
X5372214Y2133551D01*
X5363945Y2128025D01*
X4728282Y1492362D01*
X4727444Y1492445D01*
X4712559Y1502390D01*
X4695001Y1505883D01*
X4677443Y1502390D01*
X4662558Y1492445D01*
X4660366Y1489164D01*
X4647666Y1493016D01*
Y1543013D01*
X4699828Y1595175D01*
X4705906Y1604272D01*
X4708040Y1615001D01*
Y1754615D01*
X4712444Y1757558D01*
X4722390Y1772443D01*
X4725883Y1790001D01*
X4722390Y1807559D01*
X4712444Y1822444D01*
X4697559Y1832390D01*
X4680001Y1835883D01*
X4662443Y1832390D01*
X4647558Y1822444D01*
X4642944Y1815539D01*
X4631753Y1819680D01*
X4630830Y1820268D01*
X4627390Y1837559D01*
X4617444Y1852444D01*
X4602559Y1862390D01*
X4585001Y1865883D01*
X4567443Y1862390D01*
X4552558Y1852444D01*
X4542612Y1837559D01*
X4539120Y1820001D01*
X4542612Y1802443D01*
X4552558Y1787558D01*
X4567443Y1777612D01*
X4585001Y1774120D01*
X4602559Y1777612D01*
X4617444Y1787558D01*
X4622059Y1794464D01*
X4633250Y1790323D01*
X4634173Y1789734D01*
X4637612Y1772443D01*
X4647558Y1757558D01*
X4651963Y1754615D01*
Y1626615D01*
X4599801Y1574454D01*
X4593723Y1565357D01*
X4591589Y1554627D01*
Y1340375D01*
X4593723Y1329645D01*
X4599801Y1320549D01*
X4655175Y1265175D01*
X4664271Y1259097D01*
X4675001Y1256963D01*
X4810001D01*
X4820731Y1259097D01*
X4829828Y1265175D01*
X4921615Y1356963D01*
X5834615D01*
X5837558Y1352558D01*
X5852443Y1342612D01*
X5870001Y1339120D01*
X5873925Y1339900D01*
X5881562Y1328471D01*
X5877612Y1322559D01*
X5874120Y1305001D01*
X5877612Y1287443D01*
X5887558Y1272558D01*
X5902443Y1262612D01*
X5920001Y1259120D01*
X5937559Y1262612D01*
X5952445Y1272558D01*
X5962390Y1287443D01*
X5965883Y1305001D01*
X5962390Y1322559D01*
X5952445Y1337444D01*
X5937559Y1347390D01*
X5920001Y1350883D01*
X5916078Y1350102D01*
X5908441Y1361532D01*
X5912390Y1367443D01*
X5915883Y1385001D01*
X5912390Y1402559D01*
X5902444Y1417444D01*
X5887559Y1427390D01*
X5870001Y1430883D01*
X5852443Y1427390D01*
X5837558Y1417444D01*
X5834615Y1413040D01*
X4910001D01*
X4899271Y1410905D01*
X4890175Y1404828D01*
X4798387Y1313040D01*
X4704397D01*
X4703146Y1325740D01*
X4712559Y1327612D01*
X4727444Y1337558D01*
X4737390Y1352443D01*
X4740883Y1370001D01*
X4739251Y1378204D01*
X5405559Y2044512D01*
X6444443D01*
X6538951Y1950003D01*
X6539097Y1949271D01*
X6545175Y1940175D01*
X6554271Y1934097D01*
X6565001Y1931963D01*
X6769992D01*
X6780722Y1934097D01*
X6789818Y1940175D01*
X6827331Y1977688D01*
X6827443Y1977612D01*
X6845001Y1974120D01*
X6862559Y1977612D01*
X6877444Y1987558D01*
X6881812Y1994094D01*
X6894512Y1990242D01*
Y1910560D01*
X6874443Y1890491D01*
X6270001D01*
X6260247Y1888551D01*
X6251978Y1883025D01*
X6079476Y1710524D01*
X6073951Y1702255D01*
X6072010Y1692500D01*
Y1215558D01*
X6001944Y1145491D01*
X5855001D01*
X5845247Y1143551D01*
X5836977Y1138025D01*
X5743203Y1044251D01*
X5735001Y1045883D01*
X5717443Y1042390D01*
X5702558Y1032444D01*
X5692612Y1017559D01*
X5689120Y1000001D01*
X5692612Y982443D01*
X5702558Y967558D01*
X5717443Y957612D01*
X5715001Y945883D01*
X5697443Y942390D01*
X5682558Y932444D01*
X5671117Y938181D01*
X5657560Y947240D01*
X5640002Y950732D01*
X5622444Y947240D01*
X5607559Y937294D01*
X5597613Y922409D01*
X5594120Y904851D01*
X5597613Y887293D01*
X5598394Y886123D01*
Y618094D01*
X5491907Y511606D01*
X5392991D01*
X5392432Y512442D01*
X5377547Y522388D01*
X5359989Y525881D01*
X5342431Y522388D01*
X5327546Y512442D01*
X5317600Y497557D01*
X5314108Y479999D01*
X5317600Y462441D01*
X5323034Y454308D01*
X5316246Y441608D01*
X5288003D01*
X5287445Y442444D01*
X5272559Y452390D01*
X5255001Y455883D01*
X5237443Y452390D01*
X5222558Y442444D01*
X5212612Y427559D01*
X5209120Y410001D01*
X5212612Y392443D01*
X5222558Y377558D01*
X5237443Y367612D01*
X5255001Y364120D01*
X5272559Y367612D01*
X5287445Y377558D01*
X5288003Y378394D01*
X5535001D01*
X5547097Y380800D01*
X5557351Y387651D01*
X5737351Y567652D01*
X5744203Y577906D01*
X5746609Y590001D01*
Y867000D01*
X5747444Y867558D01*
X5757390Y882443D01*
X5760883Y900001D01*
X5757390Y917559D01*
X5747444Y932444D01*
X5732560Y942390D01*
X5735001Y954120D01*
X5752559Y957612D01*
X5767444Y967558D01*
X5777390Y982443D01*
X5780883Y1000001D01*
X5779251Y1008203D01*
X5865560Y1094512D01*
X6012502D01*
X6022256Y1096452D01*
X6030525Y1101977D01*
X6115524Y1186976D01*
X6121049Y1195246D01*
X6122990Y1205000D01*
Y1681942D01*
X6280560Y1839512D01*
X6885001D01*
X6894756Y1841452D01*
X6903025Y1846978D01*
X6938025Y1881977D01*
X6943551Y1890247D01*
X6945491Y1900001D01*
Y2440001D01*
X6943551Y2449756D01*
X6938025Y2458025D01*
X6875491Y2520559D01*
Y5735001D01*
X6873551Y5744756D01*
X6868025Y5753025D01*
X6228025Y6393025D01*
X6219756Y6398551D01*
X6210001Y6400491D01*
X5232091D01*
X5227444Y6407444D01*
X5212559Y6417390D01*
X5195001Y6420883D01*
D02*
G37*
G36*
X8800001Y6705993D02*
X8759815Y6702035D01*
X8721172Y6690313D01*
X8685559Y6671277D01*
X8654343Y6645659D01*
X8628726Y6614444D01*
X8609690Y6578831D01*
X8597968Y6540188D01*
X8594010Y6500001D01*
X8597968Y6459814D01*
X8609690Y6421172D01*
X8628726Y6385558D01*
X8654343Y6354343D01*
X8685559Y6328725D01*
X8721172Y6309690D01*
X8759815Y6297968D01*
X8800001Y6294010D01*
X8840188Y6297968D01*
X8878831Y6309690D01*
X8914444Y6328725D01*
X8945660Y6354343D01*
X8971277Y6385558D01*
X8990313Y6421172D01*
X9002035Y6459814D01*
X9005993Y6500001D01*
X9002035Y6540188D01*
X8990313Y6578831D01*
X8971277Y6614444D01*
X8945660Y6645659D01*
X8914444Y6671277D01*
X8878831Y6690313D01*
X8840188Y6702035D01*
X8800001Y6705993D01*
D02*
G37*
G36*
X301902Y6210089D02*
X284726Y6208398D01*
X255999Y6199683D01*
X229524Y6185532D01*
X206318Y6166487D01*
X187273Y6143281D01*
X173122Y6116806D01*
X164407Y6088079D01*
X162716Y6070903D01*
X301902D01*
Y6210089D01*
D02*
G37*
G36*
X974489Y6045503D02*
X835302D01*
Y5906316D01*
X852478Y5908008D01*
X881205Y5916722D01*
X907681Y5930874D01*
X930887Y5949918D01*
X949931Y5973124D01*
X964083Y5999600D01*
X972797Y6028327D01*
X974489Y6045503D01*
D02*
G37*
G36*
X809902Y6210089D02*
X792726Y6208398D01*
X763999Y6199683D01*
X737524Y6185532D01*
X714318Y6166487D01*
X695273Y6143281D01*
X681122Y6116806D01*
X672407Y6088079D01*
X670716Y6070903D01*
X809902D01*
Y6210089D01*
D02*
G37*
G36*
X327302D02*
Y6070903D01*
X466489D01*
X464797Y6088079D01*
X456083Y6116806D01*
X441931Y6143281D01*
X422887Y6166487D01*
X399681Y6185532D01*
X373205Y6199683D01*
X344478Y6208398D01*
X327302Y6210089D01*
D02*
G37*
G36*
X809902Y5537503D02*
X670716D01*
X672407Y5520327D01*
X681122Y5491600D01*
X695273Y5465124D01*
X714318Y5441918D01*
X737524Y5422874D01*
X763999Y5408722D01*
X792726Y5400008D01*
X809902Y5398316D01*
Y5537503D01*
D02*
G37*
G36*
X5888602Y3351445D02*
X5871044Y3347953D01*
X5856159Y3338007D01*
X5846213Y3323122D01*
X5842721Y3305564D01*
X5846213Y3288006D01*
X5856159Y3273120D01*
X5871044Y3263175D01*
X5888602Y3259682D01*
X5906160Y3263175D01*
X5921045Y3273120D01*
X5930991Y3288006D01*
X5934484Y3305564D01*
X5930991Y3323122D01*
X5921045Y3338007D01*
X5906160Y3347953D01*
X5888602Y3351445D01*
D02*
G37*
G36*
X4000001Y3615981D02*
X3980492Y3612100D01*
X3963953Y3601049D01*
X3952902Y3584510D01*
X3949022Y3565001D01*
X3952902Y3545492D01*
X3963953Y3528953D01*
X3980492Y3517902D01*
X4000001Y3514022D01*
X4002086Y3514436D01*
X4106643Y3409880D01*
X4102322Y3403414D01*
X4099218Y3387807D01*
Y3246894D01*
X4050001Y3197678D01*
X4046341Y3201339D01*
X4033110Y3210179D01*
X4026700Y3211454D01*
X4014510Y3219599D01*
X3995001Y3223480D01*
X3975492Y3219599D01*
X3958953Y3208548D01*
X3947902Y3192009D01*
X3944022Y3172500D01*
X3947902Y3152991D01*
X3958953Y3136452D01*
X3975492Y3125401D01*
X3995001Y3121521D01*
X4008183Y3124143D01*
X4021162Y3111164D01*
X4021163Y3111163D01*
X4034394Y3102322D01*
X4050001Y3099218D01*
X4065609Y3102322D01*
X4078840Y3111163D01*
X4168839Y3201163D01*
X4168840Y3201163D01*
X4177680Y3214394D01*
X4180785Y3230001D01*
X4180785Y3230003D01*
Y3387807D01*
X4177680Y3403414D01*
X4172610Y3411003D01*
X4177680Y3418591D01*
X4180785Y3434198D01*
X4177680Y3449806D01*
X4168840Y3463037D01*
X4046565Y3585312D01*
X4036049Y3601049D01*
X4019510Y3612100D01*
X4000001Y3615981D01*
D02*
G37*
G36*
X583601Y3947058D02*
X548903Y3943640D01*
X515538Y3933519D01*
X484789Y3917084D01*
X457837Y3894965D01*
X435719Y3868013D01*
X419283Y3837264D01*
X409162Y3803900D01*
X405744Y3769202D01*
X409162Y3734503D01*
X419283Y3701139D01*
X435719Y3670390D01*
X457837Y3643438D01*
X484789Y3621319D01*
X515538Y3604884D01*
X548903Y3594763D01*
X583601Y3591345D01*
X618299Y3594763D01*
X651663Y3604884D01*
X682412Y3621319D01*
X709364Y3643438D01*
X731483Y3670390D01*
X747919Y3701139D01*
X758040Y3734503D01*
X761457Y3769202D01*
X758040Y3803900D01*
X747919Y3837264D01*
X731483Y3868013D01*
X709364Y3894965D01*
X682412Y3917084D01*
X651663Y3933519D01*
X618299Y3943640D01*
X583601Y3947058D01*
D02*
G37*
G36*
X5525001Y5645883D02*
X5507443Y5642390D01*
X5492558Y5632444D01*
X5482612Y5617559D01*
X5479120Y5600001D01*
X5482612Y5582443D01*
X5492558Y5567558D01*
X5494571Y5566213D01*
X5495666Y5551714D01*
X5399443Y5455491D01*
X5055001D01*
X5045247Y5453551D01*
X5036977Y5448025D01*
X4986978Y5398025D01*
X4981452Y5389756D01*
X4979512Y5380001D01*
Y4495559D01*
X4931977Y4448025D01*
X4926452Y4439756D01*
X4924512Y4430001D01*
Y3287818D01*
X4923191Y3286727D01*
X4910491Y3292707D01*
Y4510001D01*
X4910491Y4812912D01*
X4917444Y4817558D01*
X4927390Y4832443D01*
X4930883Y4850001D01*
X4927390Y4867559D01*
X4917444Y4882444D01*
X4902559Y4892390D01*
X4885001Y4895883D01*
X4867443Y4892390D01*
X4852558Y4882444D01*
X4842612Y4867559D01*
X4839120Y4850001D01*
X4842612Y4832443D01*
X4852558Y4817558D01*
X4859511Y4812912D01*
X4859512Y4510001D01*
Y2790560D01*
X4534827Y2465875D01*
X4532559Y2467390D01*
X4515001Y2470883D01*
X4497443Y2467390D01*
X4482558Y2457444D01*
X4472612Y2442559D01*
X4469120Y2425001D01*
X4472612Y2407443D01*
X4482558Y2392558D01*
X4497443Y2382612D01*
X4515001Y2379120D01*
X4532559Y2382612D01*
X4547445Y2392558D01*
X4557390Y2407443D01*
X4559600Y2418553D01*
X4707300Y2566252D01*
X4707502Y2566232D01*
X4719512Y2560504D01*
Y1945001D01*
X4721452Y1935247D01*
X4726978Y1926977D01*
X4855751Y1798204D01*
X4854120Y1790001D01*
X4857612Y1772443D01*
X4867558Y1757558D01*
X4882443Y1747612D01*
X4900001Y1744120D01*
X4917559Y1747612D01*
X4932445Y1757558D01*
X4942390Y1772443D01*
X4945883Y1790001D01*
X4942390Y1807559D01*
X4932445Y1822444D01*
X4917559Y1832390D01*
X4900001Y1835883D01*
X4891799Y1834251D01*
X4770491Y1955559D01*
Y2554443D01*
X4963026Y2746978D01*
X4968551Y2755247D01*
X4970491Y2765002D01*
Y3185969D01*
X4980974Y3192480D01*
X4983191Y3192464D01*
X5000001Y3189120D01*
X5017559Y3192612D01*
X5032445Y3202558D01*
X5042390Y3217443D01*
X5045883Y3235001D01*
X5042390Y3252559D01*
X5032445Y3267445D01*
X5017559Y3277390D01*
X5000001Y3280883D01*
X4988191Y3278534D01*
X4975491Y3286857D01*
Y4419443D01*
X5023025Y4466977D01*
X5028551Y4475247D01*
X5030491Y4485001D01*
Y5369443D01*
X5065559Y5404512D01*
X5410001D01*
X5419756Y5406452D01*
X5428025Y5411977D01*
X5543025Y5526978D01*
X5548551Y5535247D01*
X5550491Y5545001D01*
Y5562912D01*
X5557445Y5567558D01*
X5567390Y5582443D01*
X5570883Y5600001D01*
X5567390Y5617559D01*
X5557445Y5632444D01*
X5542559Y5642390D01*
X5525001Y5645883D01*
D02*
G37*
G36*
X5973603Y3455086D02*
X5956045Y3451593D01*
X5941160Y3441647D01*
X5931214Y3426762D01*
X5927722Y3409204D01*
X5931214Y3391646D01*
X5941160Y3376761D01*
X5948114Y3372115D01*
Y3239161D01*
X5924443Y3215491D01*
X5320001D01*
X5310247Y3213551D01*
X5301977Y3208025D01*
X5220580Y3126627D01*
X5215054Y3118358D01*
X5213114Y3108603D01*
Y2859762D01*
X5196806Y2843454D01*
X5188604Y2845086D01*
X5171046Y2841593D01*
X5156160Y2831647D01*
X5146214Y2816762D01*
X5142722Y2799204D01*
X5146214Y2781646D01*
X5156160Y2766761D01*
X5171046Y2756815D01*
X5188604Y2753323D01*
X5206162Y2756815D01*
X5221047Y2766761D01*
X5230993Y2781646D01*
X5234485Y2799204D01*
X5232854Y2807407D01*
X5256627Y2831180D01*
X5262153Y2839449D01*
X5264093Y2849204D01*
Y3098045D01*
X5330560Y3164512D01*
X5935001D01*
X5944756Y3166452D01*
X5953025Y3171977D01*
X5991627Y3210580D01*
X5997153Y3218849D01*
X5999093Y3228603D01*
Y3372115D01*
X6006047Y3376761D01*
X6015993Y3391646D01*
X6019485Y3409204D01*
X6015993Y3426762D01*
X6006047Y3441647D01*
X5991161Y3451593D01*
X5973603Y3455086D01*
D02*
G37*
G36*
X8233702Y3012695D02*
Y2809699D01*
X8436694D01*
X8433776Y2839325D01*
X8421431Y2880022D01*
X8401383Y2917529D01*
X8374403Y2950404D01*
X8341528Y2977384D01*
X8304021Y2997432D01*
X8263324Y3009777D01*
X8233702Y3012695D01*
D02*
G37*
G36*
X1015001Y3515883D02*
X997443Y3512390D01*
X982558Y3502444D01*
X972612Y3487559D01*
X969120Y3470001D01*
X972612Y3452443D01*
X982558Y3437558D01*
X986963Y3434615D01*
Y3389999D01*
X989097Y3379269D01*
X995175Y3370173D01*
X1184608Y3180740D01*
X1179347Y3168040D01*
X1080387D01*
X1077444Y3172445D01*
X1062559Y3182390D01*
X1045001Y3185883D01*
X1027443Y3182390D01*
X1012558Y3172445D01*
X1002612Y3157559D01*
X999120Y3140001D01*
X1002612Y3122443D01*
X1012558Y3107558D01*
X1027443Y3097612D01*
X1045001Y3094120D01*
X1062559Y3097612D01*
X1077444Y3107558D01*
X1080387Y3111963D01*
X1178388D01*
X1301963Y2988387D01*
Y2605001D01*
X1304097Y2594271D01*
X1310175Y2585175D01*
X1385175Y2510175D01*
X1394271Y2504097D01*
X1405001Y2501963D01*
X1829615D01*
X1832558Y2497558D01*
X1847443Y2487612D01*
X1865001Y2484120D01*
X1882559Y2487612D01*
X1897445Y2497558D01*
X1906939Y2511768D01*
X1908893Y2513678D01*
X1919709Y2516959D01*
X1949854Y2486813D01*
X1945674Y2473033D01*
X1942443Y2472390D01*
X1927558Y2462444D01*
X1917612Y2447559D01*
X1914120Y2430001D01*
X1917612Y2412443D01*
X1927558Y2397558D01*
X1942443Y2387612D01*
X1960001Y2384120D01*
X1977559Y2387612D01*
X1992445Y2397558D01*
X1996275Y2403291D01*
X1996823Y2403492D01*
X2010968Y2402421D01*
X2017558Y2392558D01*
X2032443Y2382612D01*
X2050001Y2379120D01*
X2067559Y2382612D01*
X2082444Y2392558D01*
X2092390Y2407443D01*
X2095883Y2425001D01*
X2092390Y2442559D01*
X2082444Y2457444D01*
X2067559Y2467390D01*
X2050001Y2470883D01*
X2045904Y2470068D01*
X1908645Y2607328D01*
X1899548Y2613405D01*
X1888818Y2615540D01*
X1841184D01*
X1830454Y2613405D01*
X1829907Y2613040D01*
X1446615D01*
X1418039Y2641617D01*
Y3015000D01*
X1415904Y3025730D01*
X1409826Y3034826D01*
X1043040Y3401613D01*
Y3434615D01*
X1047444Y3437558D01*
X1057390Y3452443D01*
X1060883Y3470001D01*
X1057390Y3487559D01*
X1047444Y3502444D01*
X1032559Y3512390D01*
X1015001Y3515883D01*
D02*
G37*
G36*
X2235001Y2940883D02*
X2217443Y2937390D01*
X2202558Y2927444D01*
X2192612Y2912559D01*
X2189120Y2895001D01*
X2192612Y2877443D01*
X2202558Y2862558D01*
X2217443Y2852612D01*
X2235001Y2849120D01*
X2252559Y2852612D01*
X2267445Y2862558D01*
X2277390Y2877443D01*
X2280883Y2895001D01*
X2277390Y2912559D01*
X2267445Y2927444D01*
X2252559Y2937390D01*
X2235001Y2940883D01*
D02*
G37*
G36*
X5390001Y3850883D02*
X5372443Y3847390D01*
X5357558Y3837444D01*
X5347612Y3822559D01*
X5344120Y3805001D01*
X5347612Y3787443D01*
X5357558Y3772558D01*
X5372443Y3762612D01*
X5390001Y3759120D01*
X5407559Y3762612D01*
X5422445Y3772558D01*
X5432390Y3787443D01*
X5435883Y3805001D01*
X5432390Y3822559D01*
X5422445Y3837444D01*
X5407559Y3847390D01*
X5390001Y3850883D01*
D02*
G37*
G36*
X1365001Y5395883D02*
X1347443Y5392390D01*
X1332558Y5382444D01*
X1322612Y5367559D01*
X1319120Y5350001D01*
X1322612Y5332443D01*
X1332558Y5317558D01*
X1347443Y5307612D01*
X1365001Y5304120D01*
X1382559Y5307612D01*
X1397444Y5317558D01*
X1407390Y5332443D01*
X1410883Y5350001D01*
X1407390Y5367559D01*
X1397444Y5382444D01*
X1382559Y5392390D01*
X1365001Y5395883D01*
D02*
G37*
G36*
X301902Y5537503D02*
X162716D01*
X164407Y5520327D01*
X173122Y5491600D01*
X187273Y5465124D01*
X206318Y5441918D01*
X229524Y5422874D01*
X255999Y5408722D01*
X284726Y5400008D01*
X301902Y5398316D01*
Y5537503D01*
D02*
G37*
G36*
X466489D02*
X327302D01*
Y5398316D01*
X344478Y5400008D01*
X373205Y5408722D01*
X399681Y5422874D01*
X422887Y5441918D01*
X441931Y5465124D01*
X456083Y5491600D01*
X464797Y5520327D01*
X466489Y5537503D01*
D02*
G37*
G36*
X2791200Y5497400D02*
X2608800D01*
Y5162600D01*
X2791200D01*
Y5497400D01*
D02*
G37*
G36*
X7265001Y4929179D02*
X7244508Y4926481D01*
X7225413Y4918571D01*
X7209014Y4905988D01*
X7196432Y4889590D01*
X7188522Y4870494D01*
X7185824Y4850001D01*
X7188522Y4829509D01*
X7196432Y4810413D01*
X7209014Y4794014D01*
X7225413Y4781432D01*
X7244508Y4773522D01*
X7265001Y4770824D01*
X7285494Y4773522D01*
X7300388Y4779691D01*
X7561719Y4530805D01*
X7565817Y4528209D01*
X7569857Y4525510D01*
X7570179Y4525446D01*
X7570457Y4525270D01*
X7575243Y4524439D01*
X7580001Y4523492D01*
X7580324Y4523556D01*
X7580648Y4523500D01*
X7585387Y4524563D01*
X7590146Y4525510D01*
X7590419Y4525692D01*
X7590740Y4525764D01*
X7594711Y4528560D01*
X7598746Y4531256D01*
X7730982Y4663492D01*
X7881014D01*
X7886432Y4650413D01*
X7899014Y4634014D01*
X7915413Y4621432D01*
X7934509Y4613522D01*
X7955001Y4610824D01*
X7975494Y4613522D01*
X7994590Y4621432D01*
X8010988Y4634014D01*
X8023571Y4650413D01*
X8031481Y4669509D01*
X8034179Y4690001D01*
X8031481Y4710494D01*
X8023571Y4729590D01*
X8010988Y4745988D01*
X7994590Y4758571D01*
X7975494Y4766481D01*
X7955001Y4769179D01*
X7934509Y4766481D01*
X7915413Y4758571D01*
X7899014Y4745988D01*
X7886432Y4729590D01*
X7881014Y4716511D01*
X7720003D01*
X7720001Y4716511D01*
X7709857Y4714493D01*
X7701256Y4708746D01*
X7701256Y4708745D01*
X7579550Y4587040D01*
X7336806Y4818224D01*
X7341481Y4829509D01*
X7344179Y4850001D01*
X7341481Y4870494D01*
X7333571Y4889590D01*
X7320988Y4905988D01*
X7304590Y4918571D01*
X7285494Y4926481D01*
X7265001Y4929179D01*
D02*
G37*
G36*
X8885000Y4337856D02*
X8850302Y4334439D01*
X8816938Y4324318D01*
X8786189Y4307882D01*
X8759237Y4285764D01*
X8737118Y4258812D01*
X8720682Y4228063D01*
X8710561Y4194698D01*
X8707144Y4160000D01*
X8710561Y4125302D01*
X8720682Y4091937D01*
X8737118Y4061188D01*
X8759237Y4034237D01*
X8786189Y4012118D01*
X8816938Y3995682D01*
X8850302Y3985561D01*
X8885000Y3982144D01*
X8919698Y3985561D01*
X8953063Y3995682D01*
X8983812Y4012118D01*
X9010764Y4034237D01*
X9032882Y4061188D01*
X9049318Y4091937D01*
X9059439Y4125302D01*
X9062857Y4160000D01*
X9059439Y4194698D01*
X9049318Y4228063D01*
X9032882Y4258812D01*
X9010764Y4285764D01*
X8983812Y4307882D01*
X8953063Y4324318D01*
X8919698Y4334439D01*
X8885000Y4337856D01*
D02*
G37*
G36*
X573602Y4967059D02*
X538904Y4963642D01*
X505540Y4953521D01*
X474791Y4937085D01*
X447839Y4914967D01*
X425720Y4888015D01*
X409284Y4857266D01*
X399163Y4823901D01*
X395746Y4789203D01*
X399163Y4754505D01*
X409284Y4721140D01*
X425720Y4690391D01*
X447839Y4663439D01*
X474791Y4641321D01*
X505540Y4624885D01*
X538904Y4614764D01*
X573602Y4611347D01*
X608300Y4614764D01*
X641665Y4624885D01*
X672414Y4641321D01*
X699366Y4663439D01*
X721484Y4690391D01*
X737920Y4721140D01*
X748041Y4754505D01*
X751458Y4789203D01*
X748041Y4823901D01*
X737920Y4857266D01*
X721484Y4888015D01*
X699366Y4914967D01*
X672414Y4937085D01*
X641665Y4953521D01*
X608300Y4963642D01*
X573602Y4967059D01*
D02*
G37*
%LPD*%
G36*
X6824512Y5724443D02*
Y2510001D01*
X6826452Y2500247D01*
X6831977Y2491977D01*
X6894512Y2429443D01*
Y2049761D01*
X6881812Y2045909D01*
X6877444Y2052444D01*
X6862559Y2062390D01*
X6845001Y2065883D01*
X6827443Y2062390D01*
X6812558Y2052444D01*
X6802612Y2037559D01*
X6801300Y2030962D01*
X6758378Y1988040D01*
X6696226D01*
X6690239Y1999241D01*
X6692376Y2002438D01*
X6695276Y2017018D01*
X6751630Y2073373D01*
X6758261Y2083296D01*
X6760589Y2095001D01*
X6760589Y2095003D01*
Y2184855D01*
X6758261Y2196561D01*
X6755588Y2200560D01*
Y2317330D01*
X6758090Y2319832D01*
X6770609Y2322322D01*
X6783840Y2331163D01*
X6792680Y2344394D01*
X6795785Y2360001D01*
Y5715002D01*
X6792680Y5730609D01*
X6783840Y5743840D01*
X6783839Y5743840D01*
X6218840Y6308840D01*
X6205609Y6317681D01*
X6190001Y6320785D01*
X6190000Y6320785D01*
X5222793D01*
X5221084Y6323034D01*
X5223966Y6340234D01*
X5227444Y6342558D01*
X5232091Y6349512D01*
X6199443D01*
X6824512Y5724443D01*
D02*
G37*
D11*
X7940001Y380001D02*
X8975001Y1415001D01*
X7210001Y380001D02*
X7940001D01*
X8975001Y1415001D02*
Y3675001D01*
X7625002Y3700001D02*
X8950001D01*
X7530001Y3795001D02*
X7625002Y3700001D01*
D58*
X8950001D02*
X8975001Y3675001D01*
X7720001Y4690001D02*
X7955001D01*
X7580001Y4550001D02*
X7720001Y4690001D01*
X7265001Y4850001D02*
X7580001Y4550001D01*
X4140001Y3387807D02*
Y3434198D01*
D59*
X7750001Y2319999D02*
Y3205002D01*
X6755001Y2360001D02*
Y5715002D01*
X6190001Y6280001D02*
X6755001Y5715002D01*
X3125001Y5210001D02*
X3315001Y5020001D01*
Y3665001D02*
Y5020001D01*
X4305001Y240001D02*
X7075001D01*
X4119000Y426003D02*
X4305001Y240001D01*
X4119000Y426003D02*
Y613000D01*
X7075001Y240001D02*
X7207501Y372501D01*
X4745001Y6280001D02*
X6190001D01*
X4140001Y3230001D02*
Y3387807D01*
X4009198Y3565001D02*
X4140001Y3434198D01*
X4050001Y3140001D02*
X4140001Y3230001D01*
X4017503Y3172500D02*
X4050001Y3140001D01*
X3995001Y3172500D02*
X4017503D01*
D60*
X6850001Y2510001D02*
Y5735001D01*
Y2510001D02*
X6920001Y2440001D01*
X6210001Y6375001D02*
X6850001Y5735001D01*
X4885001Y4850001D02*
X4885001Y4510001D01*
X2980001Y3945001D02*
X3135001Y4100001D01*
X3230001D01*
X3075001Y3790001D02*
X3205001Y3920001D01*
X3075001Y2500001D02*
Y3790001D01*
X5525001Y5545001D02*
Y5600001D01*
X5410001Y5430001D02*
X5525001Y5545001D01*
X5055001Y5430001D02*
X5410001D01*
X5005001Y5380001D02*
X5055001Y5430001D01*
X5005001Y4485001D02*
Y5380001D01*
X4950001Y4430001D02*
X5005001Y4485001D01*
X4950001Y3267782D02*
Y4430001D01*
X4945002Y3262783D02*
X4950001Y3267782D01*
X4945002Y2765002D02*
Y3262783D01*
X4745001Y2565001D02*
X4945002Y2765002D01*
X4745001Y1945001D02*
Y2565001D01*
Y1945001D02*
X4900001Y1790001D01*
X5195001Y6375001D02*
X6210001D01*
X6920001Y1900001D02*
Y2440001D01*
X6885001Y1865001D02*
X6920001Y1900001D01*
X6270001Y1865001D02*
X6885001D01*
X6097500Y1692500D02*
X6270001Y1865001D01*
X6097500Y1205000D02*
Y1692500D01*
X6012502Y1120001D02*
X6097500Y1205000D01*
X5855001Y1120001D02*
X6012502D01*
X5735001Y1000001D02*
X5855001Y1120001D01*
X4885001Y2780002D02*
Y4510001D01*
X4530001Y2425001D02*
X4885001Y2780002D01*
X4515001Y2425001D02*
X4530001D01*
X2980001Y2505001D02*
Y3945001D01*
X6455001Y2070001D02*
X6565001Y1960001D01*
X5395001Y2070001D02*
X6455001D01*
X6625001Y2110001D02*
X6670001Y2155001D01*
X5381969Y2110001D02*
X6625001D01*
X4731969Y1460001D02*
X5381969Y2110001D01*
X4695001Y1460001D02*
X4731969D01*
X4695001Y1370001D02*
X5395001Y2070001D01*
X5973603Y3228603D02*
Y3409204D01*
X5935001Y3190001D02*
X5973603Y3228603D01*
X5320001Y3190001D02*
X5935001D01*
X5238603Y3108603D02*
X5320001Y3190001D01*
X5238603Y2849204D02*
Y3108603D01*
X5188604Y2799204D02*
X5238603Y2849204D01*
X1975001Y2050001D02*
X2755001D01*
X1725001Y1800001D02*
X1975001Y2050001D01*
X1725001Y1065001D02*
Y1800001D01*
D61*
X6769992Y1960001D02*
X6839992Y2030001D01*
X1015001Y3389999D02*
Y3470001D01*
Y3389999D02*
X1390000Y3015000D01*
Y2630003D02*
Y3015000D01*
Y2630003D02*
X1435001Y2585001D01*
X1838684D01*
X1841184Y2587501D01*
X1888818D01*
X2050001Y2426318D01*
Y2425001D02*
Y2426318D01*
X1045001Y3140001D02*
X1190001D01*
X1330001Y3000001D01*
Y2605001D02*
Y3000001D01*
Y2605001D02*
X1405001Y2530001D01*
X1865001D01*
X6565001Y1960001D02*
X6769992D01*
X4810001Y1285001D02*
X4910001Y1385001D01*
X4675001Y1285001D02*
X4810001D01*
X4619627Y1340375D02*
X4675001Y1285001D01*
X4619627Y1340375D02*
Y1554627D01*
X4680001Y1615001D01*
X4910001Y1385001D02*
X5870001D01*
X4680001Y1615001D02*
Y1790001D01*
X4726103Y483900D02*
X4975008D01*
X4627000Y583003D02*
X4726103Y483900D01*
X4627000Y583003D02*
Y613000D01*
X5660001Y1210001D02*
X5705001Y1165001D01*
X5430001Y1210001D02*
X5660001D01*
X5087000Y867000D02*
X5430001Y1210001D01*
X4881000Y867000D02*
X5087000D01*
X5725002Y1260001D02*
X5750001Y1285001D01*
X4955001Y1260001D02*
X5725002D01*
X4627000Y932000D02*
X4955001Y1260001D01*
X4627000Y867000D02*
Y932000D01*
X5575001Y1083893D02*
Y1115001D01*
X4975008Y483900D02*
X5575001Y1083893D01*
X5490001Y1105001D02*
Y1150001D01*
X4998000Y613000D02*
X5490001Y1105001D01*
X4881000Y613000D02*
X4998000D01*
D63*
X6725000Y2330000D02*
X6755001Y2360001D01*
X6725000Y2189856D02*
Y2330000D01*
X6730001Y2095001D02*
Y2184855D01*
X6654996Y2019996D02*
X6730001Y2095001D01*
X6725000Y2189856D02*
X6730001Y2184855D01*
X6649987Y2019996D02*
X6654996D01*
D65*
X7019987Y2180001D02*
X7610002D01*
X7750001Y2319999D01*
X4670001Y6280001D02*
X4745001D01*
X4475001Y6085001D02*
X4670001Y6280001D01*
X4475001Y5525001D02*
Y6085001D01*
X4200001Y5250001D02*
X4475001Y5525001D01*
X3165001Y5250001D02*
X4200001D01*
X3125001Y5210001D02*
X3165001Y5250001D01*
D66*
X3251268Y1015001D02*
X3390001D01*
X3245001D02*
X3251268D01*
X3390001D02*
X3495001Y910001D01*
X3650001Y2560001D02*
X3675001D01*
X3420001Y2330001D02*
X3650001Y2560001D01*
X3420001Y1183734D02*
Y2330001D01*
X3251268Y1015001D02*
X3420001Y1183734D01*
X3355001Y2365001D02*
X3610001Y2620001D01*
X3355001Y1205001D02*
Y2365001D01*
X5630001Y605001D02*
Y900001D01*
X5504999Y479999D02*
X5630001Y605001D01*
X5359989Y479999D02*
X5504999D01*
X5715001Y590001D02*
Y879851D01*
X5715000Y879852D02*
X5715001Y879851D01*
X5535001Y410001D02*
X5715001Y590001D01*
X5255001Y410001D02*
X5535001D01*
D80*
X7950000Y2319999D02*
D03*
X7750001D02*
D03*
X7749998Y2070000D02*
D03*
X7950000D02*
D03*
D81*
X8221000Y1593001D02*
D03*
Y2797001D02*
D03*
D82*
X8800001Y6500001D02*
D03*
X500000Y6500000D02*
D03*
X8800001Y500001D02*
D03*
X500000Y500000D02*
D03*
D83*
X4119000Y867000D02*
D03*
D84*
Y613000D02*
D03*
X4373000Y867000D02*
D03*
Y613000D02*
D03*
X4627000Y867000D02*
D03*
Y613000D02*
D03*
X4881000Y867000D02*
D03*
Y613000D02*
D03*
D85*
X2700000Y5330000D02*
D03*
D86*
X2446000D02*
D03*
D87*
X568602Y5804203D02*
D03*
X314602Y6058203D02*
D03*
Y5550203D02*
D03*
X822602D02*
D03*
Y6058203D02*
D03*
X583600Y2724201D02*
D03*
X329600Y2978201D02*
D03*
Y2470201D02*
D03*
X837600D02*
D03*
Y2978201D02*
D03*
X573602Y4789203D02*
D03*
X319602Y5043203D02*
D03*
Y4535203D02*
D03*
X827602D02*
D03*
Y5043203D02*
D03*
X583601Y3769202D02*
D03*
X329601Y4023202D02*
D03*
Y3515202D02*
D03*
X837601D02*
D03*
Y4023202D02*
D03*
X8885000Y4160000D02*
D03*
X8631000Y4414000D02*
D03*
Y3906000D02*
D03*
X9139000D02*
D03*
Y4414000D02*
D03*
D88*
X7560000Y4090000D02*
D03*
Y4210000D02*
D03*
X5450002Y2965001D02*
D03*
X5570001D02*
D03*
X5690001D02*
D03*
X5450002Y2845001D02*
D03*
X5570001D02*
D03*
X5690001D02*
D03*
X5450002Y2725001D02*
D03*
X5570001D02*
D03*
X5690001D02*
D03*
X1658601Y3209201D02*
D03*
Y3329201D02*
D03*
D89*
X9154988Y6214999D02*
D03*
Y5614999D02*
D03*
Y5014999D02*
D03*
Y3215000D02*
D03*
Y2615000D02*
D03*
Y2015000D02*
D03*
Y1415000D02*
D03*
Y815001D02*
D03*
X8854988Y6814999D02*
D03*
Y6214999D02*
D03*
X9004988Y5914999D02*
D03*
X8854988Y5614999D02*
D03*
X9004988Y5314999D02*
D03*
X8854988Y5014999D02*
D03*
X9004988Y4714999D02*
D03*
X8854988Y4415000D02*
D03*
Y3815000D02*
D03*
Y3215000D02*
D03*
Y2615000D02*
D03*
Y2015000D02*
D03*
X9004988Y1115001D02*
D03*
X8854988Y815001D02*
D03*
Y215001D02*
D03*
X8554988Y6814999D02*
D03*
Y6214999D02*
D03*
X8704988Y5914999D02*
D03*
X8554988Y5614999D02*
D03*
X8704988Y5314999D02*
D03*
X8554988Y5014999D02*
D03*
X8704988Y4714999D02*
D03*
Y3515000D02*
D03*
X8554988Y3215000D02*
D03*
X8704988Y2915000D02*
D03*
X8554988Y2615000D02*
D03*
X8704988Y2315000D02*
D03*
X8554988Y2015000D02*
D03*
X8704988Y1715000D02*
D03*
X8554988Y1415000D02*
D03*
Y815001D02*
D03*
Y215001D02*
D03*
X8254988Y6814999D02*
D03*
X8404988Y6514999D02*
D03*
X8254988Y6214999D02*
D03*
X8404988Y5914999D02*
D03*
X8254988Y5614999D02*
D03*
X8404988Y5314999D02*
D03*
X8254988Y5014999D02*
D03*
X8404988Y4714999D02*
D03*
X8254988Y4415000D02*
D03*
Y3815000D02*
D03*
X8404988Y3515000D02*
D03*
X8254988Y3215000D02*
D03*
X8404988Y2315000D02*
D03*
X8254988Y2015000D02*
D03*
X8404988Y1115001D02*
D03*
Y515001D02*
D03*
X8254988Y215001D02*
D03*
X7954988Y6814999D02*
D03*
X8104988Y6514999D02*
D03*
X7954988Y6214999D02*
D03*
X8104988Y5914999D02*
D03*
X7954988Y5614999D02*
D03*
X8104988Y5314999D02*
D03*
X7954988Y5014999D02*
D03*
X8104988Y4714999D02*
D03*
X7954988Y3815000D02*
D03*
X8104988Y3515000D02*
D03*
X7954988Y3215000D02*
D03*
Y2615000D02*
D03*
X8104988Y2315000D02*
D03*
X7954988Y1415000D02*
D03*
X8104988Y1115001D02*
D03*
X7954988Y815001D02*
D03*
Y215001D02*
D03*
X7654988Y6814999D02*
D03*
X7804988Y6514999D02*
D03*
X7654988Y6214999D02*
D03*
X7804988Y5914999D02*
D03*
X7654988Y5614999D02*
D03*
X7804988Y5314999D02*
D03*
X7654988Y5014999D02*
D03*
Y4415000D02*
D03*
Y3815000D02*
D03*
X7804988Y3515000D02*
D03*
X7654988Y3215000D02*
D03*
Y2615000D02*
D03*
X7804988Y1715000D02*
D03*
X7654988Y1415000D02*
D03*
X7804988Y1115001D02*
D03*
X7654988Y815001D02*
D03*
X7804988Y515001D02*
D03*
X7654988Y215001D02*
D03*
X7354988Y6814999D02*
D03*
X7504988Y6514999D02*
D03*
X7354988Y6214999D02*
D03*
X7504988Y5914999D02*
D03*
X7354988Y5614999D02*
D03*
X7504988Y5314999D02*
D03*
Y3515000D02*
D03*
X7354988Y3215000D02*
D03*
X7504988Y2915000D02*
D03*
X7354988Y2615000D02*
D03*
X7504988Y1715000D02*
D03*
Y1115001D02*
D03*
Y515001D02*
D03*
X7354988Y215001D02*
D03*
X7054988Y6814999D02*
D03*
X7204988Y6514999D02*
D03*
X7054988Y6214999D02*
D03*
X7204988Y5914999D02*
D03*
X7054988Y5614999D02*
D03*
X7204988Y5314999D02*
D03*
Y4714999D02*
D03*
Y3515000D02*
D03*
X7054988Y3215000D02*
D03*
X7204988Y2915000D02*
D03*
X7054988Y2615000D02*
D03*
X7204988Y1715000D02*
D03*
X6754988Y6814999D02*
D03*
X6904988Y6514999D02*
D03*
X6754988Y6214999D02*
D03*
X6904988Y5914999D02*
D03*
Y1715000D02*
D03*
X6754988Y1415000D02*
D03*
X6454988Y6814999D02*
D03*
X6604988Y6514999D02*
D03*
X6454988Y5614999D02*
D03*
X6604988Y5314999D02*
D03*
Y4115000D02*
D03*
X6454988Y3815000D02*
D03*
X6604988Y3515000D02*
D03*
X6454988Y3215000D02*
D03*
X6154988Y6814999D02*
D03*
X6304988Y6514999D02*
D03*
Y5914999D02*
D03*
X6154988Y5614999D02*
D03*
X6304988Y5314999D02*
D03*
X6154988Y3815000D02*
D03*
X6304988Y3515000D02*
D03*
Y2915000D02*
D03*
X5854989Y6814999D02*
D03*
X6004988Y6514999D02*
D03*
Y5914999D02*
D03*
X5854989Y5614999D02*
D03*
X6004988Y5314999D02*
D03*
X5854989Y4415000D02*
D03*
Y3815000D02*
D03*
X5554989Y6814999D02*
D03*
X5704989Y6514999D02*
D03*
Y5914999D02*
D03*
Y5314999D02*
D03*
X5554989Y4415000D02*
D03*
Y3815000D02*
D03*
X5254989Y6814999D02*
D03*
X5404989Y6514999D02*
D03*
Y5914999D02*
D03*
Y5314999D02*
D03*
X5254989Y4415000D02*
D03*
X4954989Y6814999D02*
D03*
X5104989Y6514999D02*
D03*
Y5914999D02*
D03*
Y5314999D02*
D03*
X4654989Y6814999D02*
D03*
X4804989Y6514999D02*
D03*
Y5914999D02*
D03*
Y5314999D02*
D03*
Y3515000D02*
D03*
Y2915000D02*
D03*
X4654989Y2015000D02*
D03*
X4354989Y6814999D02*
D03*
X4504989Y6514999D02*
D03*
Y5314999D02*
D03*
Y4714999D02*
D03*
X4354989Y4415000D02*
D03*
Y3815000D02*
D03*
Y2615000D02*
D03*
X4504989Y2315000D02*
D03*
Y1115001D02*
D03*
X4054989Y6814999D02*
D03*
X4204989Y6514999D02*
D03*
Y5914999D02*
D03*
Y4714999D02*
D03*
X4054989Y4415000D02*
D03*
X4204989Y3515000D02*
D03*
Y2915000D02*
D03*
Y1115001D02*
D03*
X4054989Y215001D02*
D03*
X3754989Y6814999D02*
D03*
X3904989Y6514999D02*
D03*
Y4714999D02*
D03*
X3754989Y4415000D02*
D03*
Y2015000D02*
D03*
X3904989Y515001D02*
D03*
X3754989Y215001D02*
D03*
X3454989Y6814999D02*
D03*
X3604989Y6514999D02*
D03*
X3454989Y6214999D02*
D03*
X3604989Y4714999D02*
D03*
X3454989Y4415000D02*
D03*
Y3815000D02*
D03*
X3604989Y2915000D02*
D03*
X3454989Y215001D02*
D03*
X3154989Y6814999D02*
D03*
X3304989Y6514999D02*
D03*
X3154989Y6214999D02*
D03*
X3304989Y5914999D02*
D03*
X3154989Y4415000D02*
D03*
X3304989Y3515000D02*
D03*
Y2915000D02*
D03*
X3154989Y2615000D02*
D03*
Y815001D02*
D03*
Y215001D02*
D03*
X2854989Y6814999D02*
D03*
X3004989Y6514999D02*
D03*
X2854989Y6214999D02*
D03*
X3004989Y5914999D02*
D03*
Y5314999D02*
D03*
Y4115000D02*
D03*
Y2315000D02*
D03*
X2854989Y815001D02*
D03*
X3004989Y515001D02*
D03*
X2854989Y215001D02*
D03*
X2554990Y6814999D02*
D03*
X2704990Y6514999D02*
D03*
X2554990Y6214999D02*
D03*
X2704990Y5914999D02*
D03*
X2554990Y5614999D02*
D03*
Y5014999D02*
D03*
Y4415000D02*
D03*
X2704990Y4115000D02*
D03*
X2554990Y3815000D02*
D03*
X2704990Y2915000D02*
D03*
X2554990Y815001D02*
D03*
X2704990Y515001D02*
D03*
X2554990Y215001D02*
D03*
X2254990Y6814999D02*
D03*
X2404990Y6514999D02*
D03*
X2254990Y6214999D02*
D03*
Y5014999D02*
D03*
Y4415000D02*
D03*
X2404990Y4115000D02*
D03*
X2254990Y3815000D02*
D03*
X2404990Y3515000D02*
D03*
Y2915000D02*
D03*
Y2315000D02*
D03*
X2254990Y815001D02*
D03*
X2404990Y515001D02*
D03*
X2254990Y215001D02*
D03*
X1954990Y6814999D02*
D03*
X2104990Y6514999D02*
D03*
X1954990Y6214999D02*
D03*
Y5614999D02*
D03*
X2104990Y5314999D02*
D03*
X1954990Y4415000D02*
D03*
X2104990Y4115000D02*
D03*
X1954990Y3815000D02*
D03*
X2104990Y3515000D02*
D03*
X1954990Y2615000D02*
D03*
X2104990Y1715000D02*
D03*
Y515001D02*
D03*
X1954990Y215001D02*
D03*
X1654990Y6814999D02*
D03*
X1804990Y6514999D02*
D03*
X1654990Y6214999D02*
D03*
X1804990Y5314999D02*
D03*
Y4115000D02*
D03*
X1654990Y3815000D02*
D03*
X1804990Y3515000D02*
D03*
Y2915000D02*
D03*
Y2315000D02*
D03*
X1654990Y815001D02*
D03*
X1804990Y515001D02*
D03*
X1654990Y215001D02*
D03*
X1354990Y6814999D02*
D03*
X1504990Y6514999D02*
D03*
X1354990Y5614999D02*
D03*
Y5014999D02*
D03*
Y4415000D02*
D03*
X1504990Y4115000D02*
D03*
Y2315000D02*
D03*
X1354990Y2015000D02*
D03*
Y815001D02*
D03*
X1504990Y515001D02*
D03*
X1354990Y215001D02*
D03*
X1054990Y6814999D02*
D03*
X1204990Y6514999D02*
D03*
X1054990Y5014999D02*
D03*
Y4415000D02*
D03*
X1204990Y4115000D02*
D03*
Y2915000D02*
D03*
X1054990Y2615000D02*
D03*
X1204990Y2315000D02*
D03*
X1054990Y2015000D02*
D03*
X1204990Y1115001D02*
D03*
X1054990Y815001D02*
D03*
X1204990Y515001D02*
D03*
X1054990Y215001D02*
D03*
X754990Y6814999D02*
D03*
X904990Y6514999D02*
D03*
Y5314999D02*
D03*
X754990Y3215000D02*
D03*
Y2015000D02*
D03*
X904990Y1115001D02*
D03*
X754990Y815001D02*
D03*
X904990Y515001D02*
D03*
X754990Y215001D02*
D03*
X454990Y6814999D02*
D03*
Y6214999D02*
D03*
X604990Y5314999D02*
D03*
X454990Y4415000D02*
D03*
X604990Y4115000D02*
D03*
Y3515000D02*
D03*
X454990Y3215000D02*
D03*
X604990Y2315000D02*
D03*
X454990Y2015000D02*
D03*
Y815001D02*
D03*
Y215001D02*
D03*
X154990Y6214999D02*
D03*
X304990Y5314999D02*
D03*
Y4714999D02*
D03*
X154990Y4415000D02*
D03*
Y3815000D02*
D03*
Y3215000D02*
D03*
Y2615000D02*
D03*
Y2015000D02*
D03*
X304990Y1715000D02*
D03*
X154990Y1415000D02*
D03*
X304990Y1115001D02*
D03*
X154990Y815001D02*
D03*
X3817612Y3192443D02*
D03*
X3657612Y3189942D02*
D03*
X3745001Y3280001D02*
D03*
X3825001Y3355001D02*
D03*
X3660001Y3350001D02*
D03*
X6500001Y4135001D02*
D03*
Y4230001D02*
D03*
Y4420001D02*
D03*
Y4325002D02*
D03*
X6395001Y4135001D02*
D03*
Y4230001D02*
D03*
Y4420001D02*
D03*
Y4325002D02*
D03*
X6280001Y4135001D02*
D03*
Y4230001D02*
D03*
Y4420001D02*
D03*
Y4325002D02*
D03*
X6175001D02*
D03*
Y4420001D02*
D03*
Y4230001D02*
D03*
Y4135001D02*
D03*
X4000001Y3565001D02*
D03*
X3995001Y3172500D02*
D03*
D90*
X7019987Y2179996D02*
D03*
X7750001Y3205002D02*
D03*
X2555001Y3530001D02*
D03*
X4550001Y2750001D02*
D03*
X4780001Y3700001D02*
D03*
X4780003Y3575001D02*
D03*
X4885001Y4850001D02*
D03*
X3832008Y1115375D02*
D03*
X3495001Y910001D02*
D03*
X3615001Y915001D02*
D03*
X2235001Y2895001D02*
D03*
X5390001Y3805001D02*
D03*
X5265001Y1530001D02*
D03*
X3315001Y3665001D02*
D03*
X3965001Y4025001D02*
D03*
X3230001Y4100001D02*
D03*
X3205001Y3920001D02*
D03*
X7210001Y380001D02*
D03*
X5525001Y5600001D02*
D03*
X4900001Y1790001D02*
D03*
X5195001Y6375001D02*
D03*
X5735001Y1000001D02*
D03*
X4593605Y3289204D02*
D03*
X4515001Y2425001D02*
D03*
X3075001Y2500001D02*
D03*
X2980001Y2505001D02*
D03*
X1365001Y5350001D02*
D03*
X1015001Y3470001D02*
D03*
X2050001Y2425001D02*
D03*
X1045001Y3140001D02*
D03*
X1865001Y2530001D02*
D03*
X3245001Y1015001D02*
D03*
X3355001Y1205001D02*
D03*
X3675001Y2560001D02*
D03*
X3610001Y2620001D02*
D03*
X6649987Y2019996D02*
D03*
X6845001Y2020001D02*
D03*
X6430000Y2180000D02*
D03*
X6480001Y2215001D02*
D03*
X6670001Y2155001D02*
D03*
X4695001Y1460001D02*
D03*
Y1370001D02*
D03*
X1755001Y765001D02*
D03*
X5000001Y3235001D02*
D03*
X5868602Y2376398D02*
D03*
X5448602Y2314203D02*
D03*
X6073602Y2779203D02*
D03*
X5973603Y3409204D02*
D03*
X5888602Y3305564D02*
D03*
X5705001Y1165001D02*
D03*
X5750001Y1285001D02*
D03*
X5575001Y1115001D02*
D03*
X5490001Y1150001D02*
D03*
X5870001Y1385001D02*
D03*
X4680001Y1790001D02*
D03*
X7315001Y835001D02*
D03*
X5640002Y904851D02*
D03*
X5359989Y479999D02*
D03*
X5715001Y900001D02*
D03*
X5255001Y410001D02*
D03*
X5920001Y1305001D02*
D03*
X6220001Y735001D02*
D03*
X5345001Y765001D02*
D03*
X4585001Y1820001D02*
D03*
X1960001Y2430001D02*
D03*
X3120001Y1745001D02*
D03*
X2755001Y2050001D02*
D03*
X1725001Y1065001D02*
D03*
X4745001Y6280001D02*
D03*
X3125001Y5210001D02*
D03*
X6430001Y2930001D02*
D03*
X5188604Y2799204D02*
D03*
X5822501Y3095001D02*
D03*
X5550001Y975001D02*
D03*
X2220001Y3685001D02*
D03*
X2325001Y3690001D02*
D03*
X2435001D02*
D03*
X2545001D02*
D03*
Y3615001D02*
D03*
X2435001D02*
D03*
X2325001D02*
D03*
X2220001Y3610001D02*
D03*
Y3530001D02*
D03*
X2545001Y3450001D02*
D03*
X2460001Y3425001D02*
D03*
X2325001Y3450001D02*
D03*
X2220001Y3445001D02*
D03*
X2375001Y3375001D02*
D03*
D91*
X7530001Y3795001D02*
D03*
X7955001Y4690001D02*
D03*
X7265001Y4850001D02*
D03*
%TF.MD5,42992ac231708f1696d94befe01c96e2*%
M02*
