G04 Layer_Color=8421504*
%FSLAX45Y45*%
%MOMM*%
%TF.FileFunction,Paste,Top*%
%TF.Part,Single*%
G01*
G75*
%TA.AperFunction,SMDPad,CuDef*%
G04:AMPARAMS|DCode=12|XSize=0.6mm|YSize=0.75mm|CornerRadius=0.15mm|HoleSize=0mm|Usage=FLASHONLY|Rotation=0.000|XOffset=0mm|YOffset=0mm|HoleType=Round|Shape=RoundedRectangle|*
%AMROUNDEDRECTD12*
21,1,0.60000,0.45000,0,0,0.0*
21,1,0.30000,0.75000,0,0,0.0*
1,1,0.30000,0.15000,-0.22500*
1,1,0.30000,-0.15000,-0.22500*
1,1,0.30000,-0.15000,0.22500*
1,1,0.30000,0.15000,0.22500*
%
%ADD12ROUNDEDRECTD12*%
%ADD13O,1.75000X0.30000*%
%ADD14O,0.30000X1.75000*%
%ADD15O,2.00000X0.35000*%
%ADD16R,0.60000X1.40000*%
%ADD17R,2.00660X1.49860*%
%ADD18R,2.00660X3.81000*%
%ADD19O,1.75000X0.60000*%
%ADD20R,1.10000X0.60000*%
%ADD21R,1.00000X1.05000*%
%ADD22R,1.05000X2.20000*%
%ADD23R,0.70000X0.50000*%
%ADD24R,1.01600X1.01600*%
%ADD25O,0.50800X1.77800*%
G04:AMPARAMS|DCode=26|XSize=1.778mm|YSize=0.508mm|CornerRadius=0.0254mm|HoleSize=0mm|Usage=FLASHONLY|Rotation=90.000|XOffset=0mm|YOffset=0mm|HoleType=Round|Shape=RoundedRectangle|*
%AMROUNDEDRECTD26*
21,1,1.77800,0.45720,0,0,90.0*
21,1,1.72720,0.50800,0,0,90.0*
1,1,0.05080,0.22860,0.86360*
1,1,0.05080,0.22860,-0.86360*
1,1,0.05080,-0.22860,-0.86360*
1,1,0.05080,-0.22860,0.86360*
%
%ADD26ROUNDEDRECTD26*%
%ADD27R,1.01600X0.30480*%
%ADD28R,0.65000X0.70000*%
%ADD29R,0.45000X0.70000*%
%ADD30R,1.14300X0.38100*%
%ADD31R,2.00000X1.20000*%
G04:AMPARAMS|DCode=32|XSize=2mm|YSize=1.2mm|CornerRadius=0mm|HoleSize=0mm|Usage=FLASHONLY|Rotation=180.000|XOffset=0mm|YOffset=0mm|HoleType=Round|Shape=Octagon|*
%AMOCTAGOND32*
4,1,8,-1.00000,0.30000,-1.00000,-0.30000,-0.70000,-0.60000,0.70000,-0.60000,1.00000,-0.30000,1.00000,0.30000,0.70000,0.60000,-0.70000,0.60000,-1.00000,0.30000,0.0*
%
%ADD32OCTAGOND32*%

%ADD33R,1.80000X1.60000*%
%ADD34R,1.50000X1.30000*%
%ADD35R,1.30000X1.50000*%
%ADD36R,1.00000X1.10000*%
%ADD37R,1.10000X1.00000*%
%ADD38R,0.70000X0.90000*%
%ADD39R,1.75000X0.60000*%
%ADD40R,1.00000X0.60000*%
%ADD41R,0.90000X2.10000*%
%ADD42O,0.60000X0.30000*%
%ADD43R,0.55000X0.30000*%
%ADD44R,0.30000X0.55000*%
%ADD45R,3.30000X3.30000*%
%ADD46O,0.25000X0.65000*%
%ADD47O,0.65000X0.25000*%
%ADD48O,0.30000X0.60000*%
%ADD49R,0.40000X0.80000*%
%ADD50R,0.90000X1.30000*%
%ADD51R,1.01600X1.01600*%
%ADD52R,0.38000X0.28000*%
G04:AMPARAMS|DCode=53|XSize=0.5mm|YSize=0.25mm|CornerRadius=0.0625mm|HoleSize=0mm|Usage=FLASHONLY|Rotation=90.000|XOffset=0mm|YOffset=0mm|HoleType=Round|Shape=RoundedRectangle|*
%AMROUNDEDRECTD53*
21,1,0.50000,0.12500,0,0,90.0*
21,1,0.37500,0.25000,0,0,90.0*
1,1,0.12500,0.06250,0.18750*
1,1,0.12500,0.06250,-0.18750*
1,1,0.12500,-0.06250,-0.18750*
1,1,0.12500,-0.06250,0.18750*
%
%ADD53ROUNDEDRECTD53*%
G04:AMPARAMS|DCode=54|XSize=0.5mm|YSize=0.25mm|CornerRadius=0.0625mm|HoleSize=0mm|Usage=FLASHONLY|Rotation=0.000|XOffset=0mm|YOffset=0mm|HoleType=Round|Shape=RoundedRectangle|*
%AMROUNDEDRECTD54*
21,1,0.50000,0.12500,0,0,0.0*
21,1,0.37500,0.25000,0,0,0.0*
1,1,0.12500,0.18750,-0.06250*
1,1,0.12500,-0.18750,-0.06250*
1,1,0.12500,-0.18750,0.06250*
1,1,0.12500,0.18750,0.06250*
%
%ADD54ROUNDEDRECTD54*%
%ADD55R,0.90000X0.70000*%
G04:AMPARAMS|DCode=56|XSize=0.7mm|YSize=0.9mm|CornerRadius=0mm|HoleSize=0mm|Usage=FLASHONLY|Rotation=135.000|XOffset=0mm|YOffset=0mm|HoleType=Round|Shape=Rectangle|*
%AMROTATEDRECTD56*
4,1,4,0.56569,0.07071,-0.07071,-0.56569,-0.56569,-0.07071,0.07071,0.56569,0.56569,0.07071,0.0*
%
%ADD56ROTATEDRECTD56*%

G04:AMPARAMS|DCode=57|XSize=0.7mm|YSize=0.9mm|CornerRadius=0mm|HoleSize=0mm|Usage=FLASHONLY|Rotation=225.000|XOffset=0mm|YOffset=0mm|HoleType=Round|Shape=Rectangle|*
%AMROTATEDRECTD57*
4,1,4,-0.07071,0.56569,0.56569,-0.07071,0.07071,-0.56569,-0.56569,0.07071,-0.07071,0.56569,0.0*
%
%ADD57ROTATEDRECTD57*%

D12*
X3243604Y1902204D02*
D03*
Y1789204D02*
D03*
X3408604D02*
D03*
Y1902204D02*
D03*
D13*
X6097500Y905000D02*
D03*
Y955000D02*
D03*
Y1005000D02*
D03*
Y1055000D02*
D03*
Y1105000D02*
D03*
Y1155000D02*
D03*
Y1205000D02*
D03*
Y1255000D02*
D03*
Y1305000D02*
D03*
Y1355000D02*
D03*
Y1405000D02*
D03*
Y1455000D02*
D03*
X5282500D02*
D03*
Y1405000D02*
D03*
Y1355000D02*
D03*
Y1305000D02*
D03*
Y1255000D02*
D03*
Y1205000D02*
D03*
Y1155000D02*
D03*
Y1105000D02*
D03*
Y1055000D02*
D03*
Y1005000D02*
D03*
Y955000D02*
D03*
Y905000D02*
D03*
D14*
X5965000Y1587500D02*
D03*
X5915000D02*
D03*
X5865000D02*
D03*
X5815000D02*
D03*
X5765000D02*
D03*
X5715000D02*
D03*
X5665000D02*
D03*
X5615000D02*
D03*
X5565000D02*
D03*
X5515000D02*
D03*
X5465000D02*
D03*
X5415000D02*
D03*
Y772500D02*
D03*
X5465000D02*
D03*
X5515000D02*
D03*
X5565000D02*
D03*
X5615000D02*
D03*
X5665000D02*
D03*
X5715000D02*
D03*
X5765000D02*
D03*
X5815000D02*
D03*
X5865000D02*
D03*
X5915000D02*
D03*
X5965000D02*
D03*
D15*
X3350000Y2282500D02*
D03*
Y2347500D02*
D03*
Y2412500D02*
D03*
Y2477500D02*
D03*
Y2542500D02*
D03*
Y2607500D02*
D03*
Y2672500D02*
D03*
Y2737500D02*
D03*
X2770000Y2282500D02*
D03*
Y2347500D02*
D03*
Y2412500D02*
D03*
Y2477500D02*
D03*
Y2542500D02*
D03*
Y2607500D02*
D03*
Y2672500D02*
D03*
Y2737500D02*
D03*
D16*
X1295000Y6165000D02*
D03*
X1105000D02*
D03*
X1200000Y5975000D02*
D03*
D17*
X2851780Y4991140D02*
D03*
Y4760000D02*
D03*
Y4528860D02*
D03*
D18*
X2221860Y4760000D02*
D03*
D19*
X3871102Y5433703D02*
D03*
Y5560703D02*
D03*
Y5687703D02*
D03*
Y5814703D02*
D03*
X3346102Y5433703D02*
D03*
Y5560703D02*
D03*
Y5687703D02*
D03*
Y5814703D02*
D03*
D20*
X2806104Y1945704D02*
D03*
Y1755704D02*
D03*
X2566104D02*
D03*
Y1850704D02*
D03*
Y1945704D02*
D03*
D21*
X4436104Y1575954D02*
D03*
X5100000Y3679750D02*
D03*
D22*
X4583604Y1425704D02*
D03*
X4288604D02*
D03*
X4952500Y3830000D02*
D03*
X5247500D02*
D03*
D23*
X6827500Y2275000D02*
D03*
Y2180000D02*
D03*
Y2085000D02*
D03*
X6562500D02*
D03*
Y2180000D02*
D03*
Y2275000D02*
D03*
D24*
X4570362Y6027683D02*
D03*
Y6220723D02*
D03*
X4346842Y6121663D02*
D03*
D25*
X1698102Y2043603D02*
D03*
X1825102D02*
D03*
X1952102D02*
D03*
X2079102D02*
D03*
Y1484803D02*
D03*
X1952102D02*
D03*
X1825102D02*
D03*
D26*
X1698102D02*
D03*
D27*
X4233104Y1749204D02*
D03*
Y1685704D02*
D03*
Y1622204D02*
D03*
X3979104D02*
D03*
Y1685704D02*
D03*
Y1749204D02*
D03*
D28*
X6070000Y2240000D02*
D03*
Y2400000D02*
D03*
X6310000Y2240000D02*
D03*
Y2400000D02*
D03*
D29*
X6150000Y2240000D02*
D03*
Y2400000D02*
D03*
X6230000Y2240000D02*
D03*
Y2400000D02*
D03*
D30*
X3083601Y1176714D02*
D03*
Y1111690D02*
D03*
Y1046666D02*
D03*
Y981642D02*
D03*
X3523601Y981689D02*
D03*
Y1046713D02*
D03*
Y1111737D02*
D03*
Y1176761D02*
D03*
X2028602Y1026691D02*
D03*
Y1091715D02*
D03*
Y1156739D02*
D03*
Y1221763D02*
D03*
X1588602Y1221715D02*
D03*
Y1156691D02*
D03*
Y1091667D02*
D03*
Y1026643D02*
D03*
D31*
X6930000Y1150000D02*
D03*
X6560000D02*
D03*
Y1370000D02*
D03*
D32*
X6930000D02*
D03*
D33*
X1900000Y4770000D02*
D03*
Y5050000D02*
D03*
X3130000Y5020000D02*
D03*
Y4740000D02*
D03*
D34*
X688602Y1489203D02*
D03*
Y1299203D02*
D03*
X1468602Y1669203D02*
D03*
Y1479203D02*
D03*
X4780000Y4035000D02*
D03*
Y3845000D02*
D03*
X1028602Y1459203D02*
D03*
Y1269203D02*
D03*
X1238602Y1459203D02*
D03*
Y1269203D02*
D03*
X1547500Y4922500D02*
D03*
Y5112500D02*
D03*
X3568602Y5219203D02*
D03*
Y5029203D02*
D03*
X4508602Y5569203D02*
D03*
Y5759203D02*
D03*
X5070000Y1645000D02*
D03*
Y1835000D02*
D03*
X5720000Y2025000D02*
D03*
Y1835000D02*
D03*
X2996103Y1945704D02*
D03*
Y1755704D02*
D03*
X2460000Y2585000D02*
D03*
Y2775000D02*
D03*
X6950000Y3975000D02*
D03*
Y3785000D02*
D03*
D35*
X3515000Y580000D02*
D03*
X3705000D02*
D03*
X2633602Y1324203D02*
D03*
X2823602D02*
D03*
X3233602Y1524203D02*
D03*
X3423602D02*
D03*
X2633602D02*
D03*
X2823602D02*
D03*
X3983602Y6124203D02*
D03*
X4173602D02*
D03*
X1493602Y5804203D02*
D03*
X1303602D02*
D03*
X2033602Y5794203D02*
D03*
X1843602D02*
D03*
X2563602Y5804203D02*
D03*
X2373602D02*
D03*
X4591103Y1665704D02*
D03*
X4781103D02*
D03*
X3705000Y790000D02*
D03*
X3515000D02*
D03*
D36*
X7360000Y3795000D02*
D03*
Y3625000D02*
D03*
X2700000Y3455000D02*
D03*
Y3625000D02*
D03*
X3730000Y3795000D02*
D03*
Y3625000D02*
D03*
X3600000Y3795000D02*
D03*
Y3625000D02*
D03*
X5870000Y2375000D02*
D03*
Y2205000D02*
D03*
X5448602Y2314203D02*
D03*
Y2144203D02*
D03*
X5808602Y3224203D02*
D03*
Y3394203D02*
D03*
X4938602Y2844203D02*
D03*
Y2674203D02*
D03*
X5320001Y2430001D02*
D03*
Y2260002D02*
D03*
X5088602Y2844203D02*
D03*
Y2674203D02*
D03*
X2396103Y1750704D02*
D03*
Y1920704D02*
D03*
X3680000Y1165000D02*
D03*
Y1335000D02*
D03*
X5310000Y1635000D02*
D03*
Y1805000D02*
D03*
X5250000Y785000D02*
D03*
Y615000D02*
D03*
X6110000Y685000D02*
D03*
Y515000D02*
D03*
X6375001Y1170001D02*
D03*
Y1340001D02*
D03*
X7140000Y1345000D02*
D03*
Y1175000D02*
D03*
X1720000Y4845000D02*
D03*
Y5015000D02*
D03*
X2930000Y3845000D02*
D03*
Y4015000D02*
D03*
X2270000Y2585000D02*
D03*
Y2755000D02*
D03*
X7855000Y4350000D02*
D03*
Y4520000D02*
D03*
X3358602Y5059203D02*
D03*
Y5229203D02*
D03*
X1678602Y5649203D02*
D03*
Y5819203D02*
D03*
X2218602Y5649203D02*
D03*
Y5819203D02*
D03*
X508602Y1479203D02*
D03*
Y1309203D02*
D03*
X8095000Y4360000D02*
D03*
Y4530000D02*
D03*
X2758602Y5809203D02*
D03*
Y5639203D02*
D03*
X1108602Y5809203D02*
D03*
Y5639203D02*
D03*
X6440000Y2625000D02*
D03*
Y2795000D02*
D03*
D37*
X3655000Y3980000D02*
D03*
X3485000D02*
D03*
X3735000Y2720000D02*
D03*
X3905000D02*
D03*
X3735000Y2860000D02*
D03*
X3905000D02*
D03*
X5143602Y3109203D02*
D03*
X4973602D02*
D03*
X6073602Y2779203D02*
D03*
X6243602D02*
D03*
X5155001Y2345001D02*
D03*
X4985001D02*
D03*
X6155001Y3170002D02*
D03*
X5985001D02*
D03*
X5985001Y3020002D02*
D03*
X6155001D02*
D03*
X1965000Y2330000D02*
D03*
X2135000D02*
D03*
X3631103Y1755704D02*
D03*
X3801103D02*
D03*
X4425000Y2020000D02*
D03*
X4255000D02*
D03*
X4245000Y1880000D02*
D03*
X4415000D02*
D03*
X3811104Y1895704D02*
D03*
X3641104D02*
D03*
X3191103Y2105704D02*
D03*
X3361103D02*
D03*
X6495000Y1620000D02*
D03*
X6665000D02*
D03*
X1517500Y5257500D02*
D03*
X1687500D02*
D03*
X1365000Y5220000D02*
D03*
X1195000D02*
D03*
X4623607Y2884205D02*
D03*
X4453607D02*
D03*
X1355000Y3350000D02*
D03*
X1185000D02*
D03*
X1355000Y3220000D02*
D03*
X1185000D02*
D03*
X6405000Y1760000D02*
D03*
X6575000D02*
D03*
X4265000Y3950000D02*
D03*
X4095000D02*
D03*
X4265000Y4080000D02*
D03*
X4095000D02*
D03*
X3603602Y5994203D02*
D03*
X3773602D02*
D03*
Y6124203D02*
D03*
X3603602D02*
D03*
X3073602Y5814203D02*
D03*
X2903602D02*
D03*
X3953602Y5034203D02*
D03*
X3783602D02*
D03*
X3083602Y5664203D02*
D03*
X2913602D02*
D03*
X4123602Y5564203D02*
D03*
X4293602D02*
D03*
X3943602Y5224203D02*
D03*
X3773602D02*
D03*
X5643602Y5754203D02*
D03*
X5473602D02*
D03*
X4723602D02*
D03*
X4893602D02*
D03*
X5155001Y2495002D02*
D03*
X4985001D02*
D03*
X5988602Y3314203D02*
D03*
X6158602D02*
D03*
X6230001Y2620001D02*
D03*
X6060001D02*
D03*
X2453602Y1324203D02*
D03*
X2283602D02*
D03*
X853602Y1674203D02*
D03*
X683602D02*
D03*
X1223602D02*
D03*
X1053602D02*
D03*
X4151104Y1495704D02*
D03*
X3981104D02*
D03*
X7209599Y515402D02*
D03*
X7039599D02*
D03*
X7209599Y675401D02*
D03*
X7039599D02*
D03*
X7209599Y835401D02*
D03*
X7039599D02*
D03*
X7209599Y995402D02*
D03*
X7039599D02*
D03*
X5755000Y510000D02*
D03*
X5925000D02*
D03*
X4815000Y1430000D02*
D03*
X4985000D02*
D03*
X4815000Y1300000D02*
D03*
X4985000D02*
D03*
X4815000Y1170000D02*
D03*
X4985000D02*
D03*
X3655000Y4110000D02*
D03*
X3485000D02*
D03*
X4803602Y6024203D02*
D03*
X4973602D02*
D03*
X5263602Y5754203D02*
D03*
X5093602D02*
D03*
X5263602Y5574203D02*
D03*
X5093602D02*
D03*
X4893602D02*
D03*
X4723602D02*
D03*
X1305000Y3480000D02*
D03*
X1135000D02*
D03*
X1135000Y3090000D02*
D03*
X1305000D02*
D03*
X5405000Y3680000D02*
D03*
X5575000D02*
D03*
D38*
X3230000Y3655000D02*
D03*
Y3785000D02*
D03*
X2700000Y3965000D02*
D03*
Y3835000D02*
D03*
X5745001Y2435002D02*
D03*
Y2305002D02*
D03*
X4580000Y3975000D02*
D03*
Y3845000D02*
D03*
X2070000Y3135000D02*
D03*
Y3005000D02*
D03*
X4360000Y3285000D02*
D03*
Y3155000D02*
D03*
X5568602Y2424203D02*
D03*
Y2294203D02*
D03*
X6070000Y3965000D02*
D03*
Y4095000D02*
D03*
X7120000Y3645000D02*
D03*
Y3775000D02*
D03*
X7230000Y3640000D02*
D03*
Y3770000D02*
D03*
D39*
X5537500Y3990000D02*
D03*
D40*
X5500000Y4110000D02*
D03*
Y4230000D02*
D03*
X5750000D02*
D03*
Y4110000D02*
D03*
Y3990000D02*
D03*
D41*
X7560000Y4150000D02*
D03*
X1658601Y3269201D02*
D03*
D42*
X7665000Y4250000D02*
D03*
Y4200000D02*
D03*
Y4150000D02*
D03*
Y4100000D02*
D03*
Y4050000D02*
D03*
X7455000D02*
D03*
Y4100000D02*
D03*
Y4150000D02*
D03*
Y4200000D02*
D03*
Y4250000D02*
D03*
X4468605Y3339204D02*
D03*
Y3289204D02*
D03*
Y3239204D02*
D03*
X4678605D02*
D03*
Y3289204D02*
D03*
Y3339204D02*
D03*
X1763601Y3369202D02*
D03*
Y3319201D02*
D03*
Y3269201D02*
D03*
Y3219201D02*
D03*
Y3169201D02*
D03*
X1553601D02*
D03*
Y3219201D02*
D03*
Y3269201D02*
D03*
Y3319201D02*
D03*
Y3369202D02*
D03*
D43*
X3927500Y3172500D02*
D03*
Y3237500D02*
D03*
X3930000Y3302500D02*
D03*
X3930000Y3367500D02*
D03*
X3550000D02*
D03*
Y3302500D02*
D03*
Y3237500D02*
D03*
Y3172500D02*
D03*
D44*
X3837500Y3457500D02*
D03*
X3772500D02*
D03*
X3707500D02*
D03*
X3642500D02*
D03*
Y3082500D02*
D03*
X3707500D02*
D03*
X3772500D02*
D03*
X3837500D02*
D03*
D45*
X5570001Y2845001D02*
D03*
D46*
X5745001Y2592501D02*
D03*
X5695001D02*
D03*
X5645001D02*
D03*
X5595002D02*
D03*
X5545001D02*
D03*
X5495001D02*
D03*
X5445001D02*
D03*
X5395001D02*
D03*
Y3097501D02*
D03*
X5445001D02*
D03*
X5495001D02*
D03*
X5545001D02*
D03*
X5595002D02*
D03*
X5645001D02*
D03*
X5695001D02*
D03*
X5745001D02*
D03*
D47*
X5317501Y2670001D02*
D03*
Y2720001D02*
D03*
Y2770001D02*
D03*
Y2820001D02*
D03*
Y2870001D02*
D03*
Y2920001D02*
D03*
Y2970001D02*
D03*
Y3020001D02*
D03*
X5822501D02*
D03*
Y2970001D02*
D03*
Y2920001D02*
D03*
Y2870001D02*
D03*
Y2820001D02*
D03*
Y2770001D02*
D03*
Y2720001D02*
D03*
Y2670001D02*
D03*
D48*
X4623605Y3444204D02*
D03*
X4573605D02*
D03*
X4523605D02*
D03*
Y3134204D02*
D03*
X4573605D02*
D03*
X4623605D02*
D03*
D49*
X4593605Y3289204D02*
D03*
D50*
X2230000Y3237500D02*
D03*
X2530000D02*
D03*
X2380000D02*
D03*
X6340000Y3967500D02*
D03*
X6490000D02*
D03*
X6190000D02*
D03*
D51*
X6655539Y675401D02*
D03*
X6853659D02*
D03*
X6655539Y515402D02*
D03*
X6853659D02*
D03*
X6655539Y835401D02*
D03*
X6853659D02*
D03*
X6655539Y995402D02*
D03*
X6853659D02*
D03*
D52*
X1207500Y2667500D02*
D03*
X1127500D02*
D03*
Y2717500D02*
D03*
X1207500D02*
D03*
X1167500Y4717500D02*
D03*
X1087500D02*
D03*
Y4767500D02*
D03*
X1167500D02*
D03*
X8300000Y4090000D02*
D03*
X8220000D02*
D03*
Y4140000D02*
D03*
X8300000D02*
D03*
X1202500Y3702500D02*
D03*
X1122500D02*
D03*
Y3752500D02*
D03*
X1202500D02*
D03*
D53*
X3033601Y3186702D02*
D03*
Y3351702D02*
D03*
D54*
X2988601Y3269202D02*
D03*
X3078601D02*
D03*
D55*
X5980001Y2895002D02*
D03*
X6110001D02*
D03*
X5143602Y2989203D02*
D03*
X5013602D02*
D03*
X5925000Y3550000D02*
D03*
X5795000D02*
D03*
X5103602Y3329203D02*
D03*
X5233602D02*
D03*
X5103602Y3429203D02*
D03*
X5233602D02*
D03*
X1965000Y2210000D02*
D03*
X2095000D02*
D03*
X4623606Y3009205D02*
D03*
X4753606D02*
D03*
X3388602Y3364203D02*
D03*
X3258602D02*
D03*
X2070000Y3269201D02*
D03*
X1940000D02*
D03*
X2855000Y3270000D02*
D03*
X2725000D02*
D03*
X3387500Y3175000D02*
D03*
X3257500D02*
D03*
X4225000Y3300000D02*
D03*
X4095000D02*
D03*
X3785000Y4280000D02*
D03*
X3655000D02*
D03*
X8015000Y4160000D02*
D03*
X7885000D02*
D03*
X5233602Y3229203D02*
D03*
X5103602D02*
D03*
X5263602Y3539203D02*
D03*
X5393602D02*
D03*
X4973602D02*
D03*
X5103602D02*
D03*
X1755000Y900000D02*
D03*
X1885000D02*
D03*
X7275000Y3970000D02*
D03*
X7145000D02*
D03*
X5115000Y4060000D02*
D03*
X4985000D02*
D03*
X4555000Y3550000D02*
D03*
X4425000D02*
D03*
D56*
X1431538Y2749038D02*
D03*
X1523462Y2840962D02*
D03*
D57*
X1424038Y3763462D02*
D03*
X1515962Y3671539D02*
D03*
%TF.MD5,41b68bd48c90b280d49e2113f849657a*%
M02*
