G04 Layer_Color=16711935*
%FSLAX45Y45*%
%MOMM*%
%TF.FileFunction,Other,Mechanical_1*%
%TF.Part,Single*%
G01*
G75*
%TA.AperFunction,NonConductor*%
%ADD108C,0.12700*%
D108*
X4631322Y5961643D02*
Y6286763D01*
X4288422Y5961643D02*
X4631322D01*
X4288422D02*
Y6286763D01*
X4631322D01*
X1626982Y1387013D02*
Y2141393D01*
Y1387013D02*
X2150222D01*
Y2141393D01*
X1626982D02*
X2150222D01*
X6912079Y616981D02*
Y733821D01*
X6597119D02*
X6912079D01*
X6597119Y616981D02*
Y733821D01*
Y616981D02*
X6912079D01*
X3953900Y1006700D02*
X4030100Y1082900D01*
X3953900Y397100D02*
Y1006700D01*
Y397100D02*
X5046100D01*
Y1082900D01*
X4030100D02*
X5046100D01*
X2788900Y5507800D02*
X2865100Y5431600D01*
Y5152200D02*
Y5431600D01*
X2280900Y5152200D02*
X2865100D01*
X2280900D02*
Y5507800D01*
X2788900D01*
X174902Y6197903D02*
X962302D01*
Y5410503D02*
Y6197903D01*
X174902Y5410503D02*
X962302D01*
X174902D02*
Y6197903D01*
X6912079Y456982D02*
Y573822D01*
X6597119D02*
X6912079D01*
X6597119Y456982D02*
Y573822D01*
Y456982D02*
X6912079D01*
X189900Y3117901D02*
X977300D01*
Y2330501D02*
Y3117901D01*
X189900Y2330501D02*
X977300D01*
X189900D02*
Y3117901D01*
X6912079Y776981D02*
Y893821D01*
X6597119D02*
X6912079D01*
X6597119Y776981D02*
Y893821D01*
Y776981D02*
X6912079D01*
X179902Y5182903D02*
X967302D01*
Y4395503D02*
Y5182903D01*
X179902Y4395503D02*
X967302D01*
X179902D02*
Y5182903D01*
X189901Y4162902D02*
X977301D01*
Y3375502D02*
Y4162902D01*
X189901Y3375502D02*
X977301D01*
X189901D02*
Y4162902D01*
X6912079Y936982D02*
Y1053822D01*
X6597119D02*
X6912079D01*
X6597119Y936982D02*
Y1053822D01*
Y936982D02*
X6912079D01*
X8491300Y4553700D02*
X9278700D01*
Y3766300D02*
Y4553700D01*
X8491300Y3766300D02*
X9278700D01*
X8491300D02*
Y4553700D01*
%TF.MD5,4116b4ffb67fba41a721d530c8ba5813*%
M02*
